M48
; DRILL file {KiCad (6.0.7)} date Sat May 13 08:52:06 2023
; FORMAT={-:-/ absolute / metric / decimal}
; #@! TF.CreationDate,2023-05-13T08:52:06+05:30
; #@! TF.GenerationSoftware,Kicad,Pcbnew,(6.0.7)
; #@! TF.FileFunction,Plated,1,4,PTH
FMAT,2
METRIC
; #@! TA.AperFunction,Plated,PTH,ViaDrill
T1C0.200
; #@! TA.AperFunction,Plated,PTH,ViaDrill
T2C0.400
; #@! TA.AperFunction,Plated,PTH,ComponentDrill
T3C1.000
%
G90
G05
T1
X104.3Y-102.28
X104.432Y-83.82
X104.52Y-107.24
X107.44Y-104.43
X107.48Y-105.73
X107.59Y-100.72
X107.67Y-101.92
X107.73Y-131.11
X107.954Y-107.0
X107.998Y-85.25
X108.064Y-99.34
X108.188Y-78.94
X108.218Y-81.53
X108.238Y-86.48
X108.278Y-80.21
X108.308Y-84.03
X109.0Y-130.03
X109.622Y-99.477
X110.32Y-132.22
X111.42Y-83.93
X112.9Y-99.36
X113.068Y-78.85
X113.22Y-105.61
X113.24Y-100.7
X113.25Y-101.97
X113.25Y-104.4
X113.258Y-85.2
X113.488Y-86.65
X113.528Y-81.5
X113.598Y-84.0
X113.694Y-107.02
X113.748Y-80.14
X115.443Y-93.662
X115.53Y-87.47
X115.623Y-89.261
X116.13Y-90.01
X116.75Y-95.04
X117.03Y-99.02
X117.25Y-86.81
X118.13Y-86.34
X118.13Y-91.4
X118.14Y-92.51
X118.72Y-114.43
X122.63Y-92.56
X122.79Y-101.85
X122.83Y-84.84
X123.11Y-115.99
X123.21Y-117.27
X123.72Y-118.6
X124.39Y-89.61
X124.535Y-89.12
X124.59Y-90.114
X124.608Y-110.61
X124.67Y-86.79
X124.711Y-88.335
X124.725Y-90.62
X125.42Y-99.3
X126.695Y-110.75
X127.358Y-88.369
X127.36Y-92.15
X127.41Y-91.12
X127.64Y-91.65
X127.78Y-87.6
X128.19Y-80.73
X128.6Y-113.51
X128.78Y-116.11
X129.927Y-94.535
X130.14Y-103.55
X130.21Y-80.69
X130.67Y-127.16
X130.745Y-81.32
X130.8Y-98.34
X130.82Y-102.602
X130.95Y-128.41
X131.02Y-124.65
X131.23Y-85.58
X131.294Y-97.94
X131.37Y-122.08
X131.704Y-89.98
X131.789Y-97.654
X132.03Y-102.582
X132.117Y-95.01
X132.2Y-83.68
X132.35Y-97.75
X132.7Y-81.68
X133.245Y-97.1
X133.296Y-103.593
X133.57Y-92.58
X133.72Y-95.519
X133.79Y-83.74
X134.71Y-98.03
X135.524Y-99.22
X136.022Y-122.114
X136.08Y-94.8
X136.24Y-97.58
X136.24Y-124.66
X136.25Y-98.495
X136.71Y-81.01
X136.74Y-97.29
X137.111Y-93.48
X137.65Y-94.49
X137.72Y-81.12
X138.08Y-91.66
X138.33Y-88.95
X138.39Y-86.1
X138.52Y-84.39
X139.72Y-95.39
X140.45Y-88.109
X140.58Y-111.45
X140.77Y-93.08
X140.79Y-92.48
X140.99Y-85.15
X141.44Y-111.56
X145.72Y-80.95
X146.62Y-81.95
X148.72Y-137.68
X151.76Y-137.7
T2
X102.48Y-88.48
X104.17Y-135.13
X104.25Y-86.9
X104.42Y-78.79
X116.9Y-107.18
X116.91Y-78.51
X117.48Y-119.11
X117.949Y-95.987
X119.82Y-115.6
X120.18Y-126.7
X120.18Y-129.24
X121.19Y-81.03
X122.854Y-113.516
X123.25Y-96.32
X124.17Y-103.75
X125.082Y-115.987
X126.08Y-108.93
X126.12Y-128.09
X126.42Y-95.44
X126.46Y-97.55
X127.31Y-118.96
X127.53Y-129.94
X132.81Y-120.71
X133.31Y-101.859
X135.0Y-120.71
X143.41Y-103.52
X147.34Y-103.53
T3
X88.005Y-133.72
X88.005Y-136.26
X88.005Y-138.8
X88.005Y-141.34
X88.005Y-143.88
X99.275Y-60.04
X99.275Y-62.58
X100.12Y-140.61
X100.12Y-143.15
X101.815Y-60.04
X101.815Y-62.58
X102.66Y-140.61
X102.66Y-143.15
X104.355Y-60.04
X104.355Y-62.58
X105.2Y-140.61
X105.2Y-143.15
X106.895Y-60.04
X106.895Y-62.58
X107.74Y-140.61
X107.74Y-143.15
X109.435Y-60.04
X109.435Y-62.58
X110.28Y-140.61
X110.28Y-143.15
X111.975Y-60.04
X111.975Y-62.58
X112.82Y-140.61
X112.82Y-143.15
X115.36Y-140.61
X115.36Y-143.15
X117.9Y-140.61
X117.9Y-143.15
X120.44Y-140.61
X120.44Y-143.15
X122.075Y-60.04
X122.075Y-62.58
X122.98Y-140.61
X122.98Y-143.15
X124.615Y-60.04
X124.615Y-62.58
X126.905Y-140.67
X126.905Y-143.21
X127.155Y-60.04
X127.155Y-62.58
X129.695Y-60.04
X129.695Y-62.58
X130.665Y-140.62
X130.665Y-143.16
X132.235Y-60.04
X132.235Y-62.58
X134.445Y-140.595
X134.445Y-143.135
X134.775Y-60.04
X134.775Y-62.58
X136.985Y-140.595
X136.985Y-143.135
X139.525Y-140.595
X139.525Y-143.135
X142.355Y-70.52
X143.35Y-140.6
X143.35Y-143.14
X143.38Y-95.165
X143.38Y-97.705
X144.305Y-91.44
X144.315Y-87.69
X144.875Y-60.04
X144.875Y-62.58
X144.895Y-70.52
X146.845Y-91.44
X146.855Y-87.69
X147.13Y-95.13
X147.13Y-97.67
X147.415Y-60.04
X147.415Y-62.58
X147.435Y-70.52
X147.435Y-73.06
X149.955Y-60.04
X149.955Y-62.58
X149.975Y-70.52
X149.975Y-73.06
X151.465Y-118.8
X152.495Y-60.04
X152.495Y-62.58
X152.515Y-70.52
X152.515Y-73.06
X154.005Y-118.8
X155.035Y-60.04
X155.035Y-62.58
X155.055Y-70.52
X155.055Y-73.06
X156.545Y-118.8
X157.575Y-60.04
X157.575Y-62.58
X157.595Y-70.52
X157.595Y-73.06
X159.085Y-118.8
X160.135Y-70.52
X160.135Y-73.06
X161.625Y-116.26
X161.625Y-118.8
X162.675Y-70.52
X162.675Y-73.06
X164.165Y-116.26
X164.165Y-118.8
X165.215Y-70.52
X165.215Y-73.06
X166.705Y-116.26
X166.705Y-118.8
X167.675Y-60.04
X167.675Y-62.58
X169.245Y-70.52
X169.245Y-73.06
X169.245Y-116.26
X169.245Y-118.8
X170.215Y-60.04
X170.215Y-62.58
X171.785Y-70.52
X171.785Y-73.06
X172.755Y-60.04
X172.755Y-62.58
X174.325Y-70.52
X174.325Y-73.06
X174.325Y-116.26
X174.325Y-118.8
X175.295Y-60.04
X175.295Y-62.58
X176.865Y-70.52
X176.865Y-73.06
X176.865Y-116.26
X176.865Y-118.8
X177.835Y-60.04
X177.835Y-62.58
X179.405Y-70.52
X179.405Y-73.06
X179.405Y-116.26
X179.405Y-118.8
X180.375Y-60.04
X180.375Y-62.58
X181.945Y-70.52
X181.945Y-73.06
X181.945Y-116.26
X181.945Y-118.8
X184.485Y-70.52
X184.485Y-73.06
X184.485Y-116.26
X184.485Y-118.8
X187.025Y-70.54
X187.025Y-73.08
X187.025Y-116.26
X187.025Y-118.8
T0
M30
