%TF.GenerationSoftware,KiCad,Pcbnew,(6.0.7)*%
%TF.CreationDate,2023-05-13T08:51:53+05:30*%
%TF.ProjectId,DSP_board,4453505f-626f-4617-9264-2e6b69636164,rev?*%
%TF.SameCoordinates,Original*%
%TF.FileFunction,Legend,Bot*%
%TF.FilePolarity,Positive*%
%FSLAX46Y46*%
G04 Gerber Fmt 4.6, Leading zero omitted, Abs format (unit mm)*
G04 Created by KiCad (PCBNEW (6.0.7)) date 2023-05-13 08:51:53*
%MOMM*%
%LPD*%
G01*
G04 APERTURE LIST*
%ADD10C,0.150000*%
%ADD11C,0.254000*%
%ADD12C,0.120000*%
%ADD13C,0.200000*%
G04 APERTURE END LIST*
D10*
%TO.C,C26*%
X121780357Y-109505892D02*
X121827976Y-109553511D01*
X121970833Y-109601130D01*
X122066071Y-109601130D01*
X122208928Y-109553511D01*
X122304166Y-109458273D01*
X122351785Y-109363035D01*
X122399404Y-109172559D01*
X122399404Y-109029702D01*
X122351785Y-108839226D01*
X122304166Y-108743988D01*
X122208928Y-108648750D01*
X122066071Y-108601130D01*
X121970833Y-108601130D01*
X121827976Y-108648750D01*
X121780357Y-108696369D01*
X121399404Y-108696369D02*
X121351785Y-108648750D01*
X121256547Y-108601130D01*
X121018452Y-108601130D01*
X120923214Y-108648750D01*
X120875595Y-108696369D01*
X120827976Y-108791607D01*
X120827976Y-108886845D01*
X120875595Y-109029702D01*
X121447023Y-109601130D01*
X120827976Y-109601130D01*
X119970833Y-108601130D02*
X120161309Y-108601130D01*
X120256547Y-108648750D01*
X120304166Y-108696369D01*
X120399404Y-108839226D01*
X120447023Y-109029702D01*
X120447023Y-109410654D01*
X120399404Y-109505892D01*
X120351785Y-109553511D01*
X120256547Y-109601130D01*
X120066071Y-109601130D01*
X119970833Y-109553511D01*
X119923214Y-109505892D01*
X119875595Y-109410654D01*
X119875595Y-109172559D01*
X119923214Y-109077321D01*
X119970833Y-109029702D01*
X120066071Y-108982083D01*
X120256547Y-108982083D01*
X120351785Y-109029702D01*
X120399404Y-109077321D01*
X120447023Y-109172559D01*
%TO.C,R26*%
X102990380Y-74517142D02*
X102514190Y-74183809D01*
X102990380Y-73945714D02*
X101990380Y-73945714D01*
X101990380Y-74326666D01*
X102038000Y-74421904D01*
X102085619Y-74469523D01*
X102180857Y-74517142D01*
X102323714Y-74517142D01*
X102418952Y-74469523D01*
X102466571Y-74421904D01*
X102514190Y-74326666D01*
X102514190Y-73945714D01*
X102085619Y-74898095D02*
X102038000Y-74945714D01*
X101990380Y-75040952D01*
X101990380Y-75279047D01*
X102038000Y-75374285D01*
X102085619Y-75421904D01*
X102180857Y-75469523D01*
X102276095Y-75469523D01*
X102418952Y-75421904D01*
X102990380Y-74850476D01*
X102990380Y-75469523D01*
X101990380Y-76326666D02*
X101990380Y-76136190D01*
X102038000Y-76040952D01*
X102085619Y-75993333D01*
X102228476Y-75898095D01*
X102418952Y-75850476D01*
X102799904Y-75850476D01*
X102895142Y-75898095D01*
X102942761Y-75945714D01*
X102990380Y-76040952D01*
X102990380Y-76231428D01*
X102942761Y-76326666D01*
X102895142Y-76374285D01*
X102799904Y-76421904D01*
X102561809Y-76421904D01*
X102466571Y-76374285D01*
X102418952Y-76326666D01*
X102371333Y-76231428D01*
X102371333Y-76040952D01*
X102418952Y-75945714D01*
X102466571Y-75898095D01*
X102561809Y-75850476D01*
%TO.C,Cvdda_2*%
X128747142Y-95353785D02*
X128794761Y-95306166D01*
X128842380Y-95163309D01*
X128842380Y-95068071D01*
X128794761Y-94925214D01*
X128699523Y-94829976D01*
X128604285Y-94782357D01*
X128413809Y-94734738D01*
X128270952Y-94734738D01*
X128080476Y-94782357D01*
X127985238Y-94829976D01*
X127890000Y-94925214D01*
X127842380Y-95068071D01*
X127842380Y-95163309D01*
X127890000Y-95306166D01*
X127937619Y-95353785D01*
X128175714Y-95687119D02*
X128842380Y-95925214D01*
X128175714Y-96163309D01*
X128842380Y-96972833D02*
X127842380Y-96972833D01*
X128794761Y-96972833D02*
X128842380Y-96877595D01*
X128842380Y-96687119D01*
X128794761Y-96591880D01*
X128747142Y-96544261D01*
X128651904Y-96496642D01*
X128366190Y-96496642D01*
X128270952Y-96544261D01*
X128223333Y-96591880D01*
X128175714Y-96687119D01*
X128175714Y-96877595D01*
X128223333Y-96972833D01*
X128842380Y-97877595D02*
X127842380Y-97877595D01*
X128794761Y-97877595D02*
X128842380Y-97782357D01*
X128842380Y-97591880D01*
X128794761Y-97496642D01*
X128747142Y-97449023D01*
X128651904Y-97401404D01*
X128366190Y-97401404D01*
X128270952Y-97449023D01*
X128223333Y-97496642D01*
X128175714Y-97591880D01*
X128175714Y-97782357D01*
X128223333Y-97877595D01*
X128842380Y-98782357D02*
X128318571Y-98782357D01*
X128223333Y-98734738D01*
X128175714Y-98639500D01*
X128175714Y-98449023D01*
X128223333Y-98353785D01*
X128794761Y-98782357D02*
X128842380Y-98687119D01*
X128842380Y-98449023D01*
X128794761Y-98353785D01*
X128699523Y-98306166D01*
X128604285Y-98306166D01*
X128509047Y-98353785D01*
X128461428Y-98449023D01*
X128461428Y-98687119D01*
X128413809Y-98782357D01*
X128937619Y-99020452D02*
X128937619Y-99782357D01*
X127937619Y-99972833D02*
X127890000Y-100020452D01*
X127842380Y-100115690D01*
X127842380Y-100353785D01*
X127890000Y-100449023D01*
X127937619Y-100496642D01*
X128032857Y-100544261D01*
X128128095Y-100544261D01*
X128270952Y-100496642D01*
X128842380Y-99925214D01*
X128842380Y-100544261D01*
%TO.C,R78*%
X122082380Y-121437142D02*
X121606190Y-121103809D01*
X122082380Y-120865714D02*
X121082380Y-120865714D01*
X121082380Y-121246666D01*
X121130000Y-121341904D01*
X121177619Y-121389523D01*
X121272857Y-121437142D01*
X121415714Y-121437142D01*
X121510952Y-121389523D01*
X121558571Y-121341904D01*
X121606190Y-121246666D01*
X121606190Y-120865714D01*
X121082380Y-121770476D02*
X121082380Y-122437142D01*
X122082380Y-122008571D01*
X121510952Y-122960952D02*
X121463333Y-122865714D01*
X121415714Y-122818095D01*
X121320476Y-122770476D01*
X121272857Y-122770476D01*
X121177619Y-122818095D01*
X121130000Y-122865714D01*
X121082380Y-122960952D01*
X121082380Y-123151428D01*
X121130000Y-123246666D01*
X121177619Y-123294285D01*
X121272857Y-123341904D01*
X121320476Y-123341904D01*
X121415714Y-123294285D01*
X121463333Y-123246666D01*
X121510952Y-123151428D01*
X121510952Y-122960952D01*
X121558571Y-122865714D01*
X121606190Y-122818095D01*
X121701428Y-122770476D01*
X121891904Y-122770476D01*
X121987142Y-122818095D01*
X122034761Y-122865714D01*
X122082380Y-122960952D01*
X122082380Y-123151428D01*
X122034761Y-123246666D01*
X121987142Y-123294285D01*
X121891904Y-123341904D01*
X121701428Y-123341904D01*
X121606190Y-123294285D01*
X121558571Y-123246666D01*
X121510952Y-123151428D01*
%TO.C,R32*%
X129392857Y-123473630D02*
X129726190Y-122997440D01*
X129964285Y-123473630D02*
X129964285Y-122473630D01*
X129583333Y-122473630D01*
X129488095Y-122521250D01*
X129440476Y-122568869D01*
X129392857Y-122664107D01*
X129392857Y-122806964D01*
X129440476Y-122902202D01*
X129488095Y-122949821D01*
X129583333Y-122997440D01*
X129964285Y-122997440D01*
X129059523Y-122473630D02*
X128440476Y-122473630D01*
X128773809Y-122854583D01*
X128630952Y-122854583D01*
X128535714Y-122902202D01*
X128488095Y-122949821D01*
X128440476Y-123045059D01*
X128440476Y-123283154D01*
X128488095Y-123378392D01*
X128535714Y-123426011D01*
X128630952Y-123473630D01*
X128916666Y-123473630D01*
X129011904Y-123426011D01*
X129059523Y-123378392D01*
X128059523Y-122568869D02*
X128011904Y-122521250D01*
X127916666Y-122473630D01*
X127678571Y-122473630D01*
X127583333Y-122521250D01*
X127535714Y-122568869D01*
X127488095Y-122664107D01*
X127488095Y-122759345D01*
X127535714Y-122902202D01*
X128107142Y-123473630D01*
X127488095Y-123473630D01*
%TO.C,R65*%
X139182857Y-122252380D02*
X139516190Y-121776190D01*
X139754285Y-122252380D02*
X139754285Y-121252380D01*
X139373333Y-121252380D01*
X139278095Y-121300000D01*
X139230476Y-121347619D01*
X139182857Y-121442857D01*
X139182857Y-121585714D01*
X139230476Y-121680952D01*
X139278095Y-121728571D01*
X139373333Y-121776190D01*
X139754285Y-121776190D01*
X138325714Y-121252380D02*
X138516190Y-121252380D01*
X138611428Y-121300000D01*
X138659047Y-121347619D01*
X138754285Y-121490476D01*
X138801904Y-121680952D01*
X138801904Y-122061904D01*
X138754285Y-122157142D01*
X138706666Y-122204761D01*
X138611428Y-122252380D01*
X138420952Y-122252380D01*
X138325714Y-122204761D01*
X138278095Y-122157142D01*
X138230476Y-122061904D01*
X138230476Y-121823809D01*
X138278095Y-121728571D01*
X138325714Y-121680952D01*
X138420952Y-121633333D01*
X138611428Y-121633333D01*
X138706666Y-121680952D01*
X138754285Y-121728571D01*
X138801904Y-121823809D01*
X137325714Y-121252380D02*
X137801904Y-121252380D01*
X137849523Y-121728571D01*
X137801904Y-121680952D01*
X137706666Y-121633333D01*
X137468571Y-121633333D01*
X137373333Y-121680952D01*
X137325714Y-121728571D01*
X137278095Y-121823809D01*
X137278095Y-122061904D01*
X137325714Y-122157142D01*
X137373333Y-122204761D01*
X137468571Y-122252380D01*
X137706666Y-122252380D01*
X137801904Y-122204761D01*
X137849523Y-122157142D01*
%TO.C,Cvdd_4*%
X125877142Y-87206166D02*
X125924761Y-87158547D01*
X125972380Y-87015690D01*
X125972380Y-86920452D01*
X125924761Y-86777595D01*
X125829523Y-86682357D01*
X125734285Y-86634738D01*
X125543809Y-86587119D01*
X125400952Y-86587119D01*
X125210476Y-86634738D01*
X125115238Y-86682357D01*
X125020000Y-86777595D01*
X124972380Y-86920452D01*
X124972380Y-87015690D01*
X125020000Y-87158547D01*
X125067619Y-87206166D01*
X125305714Y-87539500D02*
X125972380Y-87777595D01*
X125305714Y-88015690D01*
X125972380Y-88825214D02*
X124972380Y-88825214D01*
X125924761Y-88825214D02*
X125972380Y-88729976D01*
X125972380Y-88539500D01*
X125924761Y-88444261D01*
X125877142Y-88396642D01*
X125781904Y-88349023D01*
X125496190Y-88349023D01*
X125400952Y-88396642D01*
X125353333Y-88444261D01*
X125305714Y-88539500D01*
X125305714Y-88729976D01*
X125353333Y-88825214D01*
X125972380Y-89729976D02*
X124972380Y-89729976D01*
X125924761Y-89729976D02*
X125972380Y-89634738D01*
X125972380Y-89444261D01*
X125924761Y-89349023D01*
X125877142Y-89301404D01*
X125781904Y-89253785D01*
X125496190Y-89253785D01*
X125400952Y-89301404D01*
X125353333Y-89349023D01*
X125305714Y-89444261D01*
X125305714Y-89634738D01*
X125353333Y-89729976D01*
X126067619Y-89968071D02*
X126067619Y-90729976D01*
X125305714Y-91396642D02*
X125972380Y-91396642D01*
X124924761Y-91158547D02*
X125639047Y-90920452D01*
X125639047Y-91539500D01*
%TO.C,C15*%
X113680857Y-90987142D02*
X113728476Y-91034761D01*
X113871333Y-91082380D01*
X113966571Y-91082380D01*
X114109428Y-91034761D01*
X114204666Y-90939523D01*
X114252285Y-90844285D01*
X114299904Y-90653809D01*
X114299904Y-90510952D01*
X114252285Y-90320476D01*
X114204666Y-90225238D01*
X114109428Y-90130000D01*
X113966571Y-90082380D01*
X113871333Y-90082380D01*
X113728476Y-90130000D01*
X113680857Y-90177619D01*
X112728476Y-91082380D02*
X113299904Y-91082380D01*
X113014190Y-91082380D02*
X113014190Y-90082380D01*
X113109428Y-90225238D01*
X113204666Y-90320476D01*
X113299904Y-90368095D01*
X111823714Y-90082380D02*
X112299904Y-90082380D01*
X112347523Y-90558571D01*
X112299904Y-90510952D01*
X112204666Y-90463333D01*
X111966571Y-90463333D01*
X111871333Y-90510952D01*
X111823714Y-90558571D01*
X111776095Y-90653809D01*
X111776095Y-90891904D01*
X111823714Y-90987142D01*
X111871333Y-91034761D01*
X111966571Y-91082380D01*
X112204666Y-91082380D01*
X112299904Y-91034761D01*
X112347523Y-90987142D01*
%TO.C,C2*%
X123686666Y-118167142D02*
X123734285Y-118214761D01*
X123877142Y-118262380D01*
X123972380Y-118262380D01*
X124115238Y-118214761D01*
X124210476Y-118119523D01*
X124258095Y-118024285D01*
X124305714Y-117833809D01*
X124305714Y-117690952D01*
X124258095Y-117500476D01*
X124210476Y-117405238D01*
X124115238Y-117310000D01*
X123972380Y-117262380D01*
X123877142Y-117262380D01*
X123734285Y-117310000D01*
X123686666Y-117357619D01*
X123305714Y-117357619D02*
X123258095Y-117310000D01*
X123162857Y-117262380D01*
X122924761Y-117262380D01*
X122829523Y-117310000D01*
X122781904Y-117357619D01*
X122734285Y-117452857D01*
X122734285Y-117548095D01*
X122781904Y-117690952D01*
X123353333Y-118262380D01*
X122734285Y-118262380D01*
%TO.C,R67*%
X115582880Y-74374642D02*
X115106690Y-74041309D01*
X115582880Y-73803214D02*
X114582880Y-73803214D01*
X114582880Y-74184166D01*
X114630500Y-74279404D01*
X114678119Y-74327023D01*
X114773357Y-74374642D01*
X114916214Y-74374642D01*
X115011452Y-74327023D01*
X115059071Y-74279404D01*
X115106690Y-74184166D01*
X115106690Y-73803214D01*
X114582880Y-75231785D02*
X114582880Y-75041309D01*
X114630500Y-74946071D01*
X114678119Y-74898452D01*
X114820976Y-74803214D01*
X115011452Y-74755595D01*
X115392404Y-74755595D01*
X115487642Y-74803214D01*
X115535261Y-74850833D01*
X115582880Y-74946071D01*
X115582880Y-75136547D01*
X115535261Y-75231785D01*
X115487642Y-75279404D01*
X115392404Y-75327023D01*
X115154309Y-75327023D01*
X115059071Y-75279404D01*
X115011452Y-75231785D01*
X114963833Y-75136547D01*
X114963833Y-74946071D01*
X115011452Y-74850833D01*
X115059071Y-74803214D01*
X115154309Y-74755595D01*
X114582880Y-75660357D02*
X114582880Y-76327023D01*
X115582880Y-75898452D01*
%TO.C,R55*%
X108715357Y-114218630D02*
X109048690Y-113742440D01*
X109286785Y-114218630D02*
X109286785Y-113218630D01*
X108905833Y-113218630D01*
X108810595Y-113266250D01*
X108762976Y-113313869D01*
X108715357Y-113409107D01*
X108715357Y-113551964D01*
X108762976Y-113647202D01*
X108810595Y-113694821D01*
X108905833Y-113742440D01*
X109286785Y-113742440D01*
X107810595Y-113218630D02*
X108286785Y-113218630D01*
X108334404Y-113694821D01*
X108286785Y-113647202D01*
X108191547Y-113599583D01*
X107953452Y-113599583D01*
X107858214Y-113647202D01*
X107810595Y-113694821D01*
X107762976Y-113790059D01*
X107762976Y-114028154D01*
X107810595Y-114123392D01*
X107858214Y-114171011D01*
X107953452Y-114218630D01*
X108191547Y-114218630D01*
X108286785Y-114171011D01*
X108334404Y-114123392D01*
X106858214Y-113218630D02*
X107334404Y-113218630D01*
X107382023Y-113694821D01*
X107334404Y-113647202D01*
X107239166Y-113599583D01*
X107001071Y-113599583D01*
X106905833Y-113647202D01*
X106858214Y-113694821D01*
X106810595Y-113790059D01*
X106810595Y-114028154D01*
X106858214Y-114123392D01*
X106905833Y-114171011D01*
X107001071Y-114218630D01*
X107239166Y-114218630D01*
X107334404Y-114171011D01*
X107382023Y-114123392D01*
%TO.C,R77*%
X125882380Y-111667142D02*
X125406190Y-111333809D01*
X125882380Y-111095714D02*
X124882380Y-111095714D01*
X124882380Y-111476666D01*
X124930000Y-111571904D01*
X124977619Y-111619523D01*
X125072857Y-111667142D01*
X125215714Y-111667142D01*
X125310952Y-111619523D01*
X125358571Y-111571904D01*
X125406190Y-111476666D01*
X125406190Y-111095714D01*
X124882380Y-112000476D02*
X124882380Y-112667142D01*
X125882380Y-112238571D01*
X124882380Y-112952857D02*
X124882380Y-113619523D01*
X125882380Y-113190952D01*
%TO.C,R75*%
X123449880Y-111608892D02*
X122973690Y-111275559D01*
X123449880Y-111037464D02*
X122449880Y-111037464D01*
X122449880Y-111418416D01*
X122497500Y-111513654D01*
X122545119Y-111561273D01*
X122640357Y-111608892D01*
X122783214Y-111608892D01*
X122878452Y-111561273D01*
X122926071Y-111513654D01*
X122973690Y-111418416D01*
X122973690Y-111037464D01*
X122449880Y-111942226D02*
X122449880Y-112608892D01*
X123449880Y-112180321D01*
X122449880Y-113466035D02*
X122449880Y-112989845D01*
X122926071Y-112942226D01*
X122878452Y-112989845D01*
X122830833Y-113085083D01*
X122830833Y-113323178D01*
X122878452Y-113418416D01*
X122926071Y-113466035D01*
X123021309Y-113513654D01*
X123259404Y-113513654D01*
X123354642Y-113466035D01*
X123402261Y-113418416D01*
X123449880Y-113323178D01*
X123449880Y-113085083D01*
X123402261Y-112989845D01*
X123354642Y-112942226D01*
%TO.C,C11*%
X108630857Y-87277142D02*
X108678476Y-87324761D01*
X108821333Y-87372380D01*
X108916571Y-87372380D01*
X109059428Y-87324761D01*
X109154666Y-87229523D01*
X109202285Y-87134285D01*
X109249904Y-86943809D01*
X109249904Y-86800952D01*
X109202285Y-86610476D01*
X109154666Y-86515238D01*
X109059428Y-86420000D01*
X108916571Y-86372380D01*
X108821333Y-86372380D01*
X108678476Y-86420000D01*
X108630857Y-86467619D01*
X107678476Y-87372380D02*
X108249904Y-87372380D01*
X107964190Y-87372380D02*
X107964190Y-86372380D01*
X108059428Y-86515238D01*
X108154666Y-86610476D01*
X108249904Y-86658095D01*
X106726095Y-87372380D02*
X107297523Y-87372380D01*
X107011809Y-87372380D02*
X107011809Y-86372380D01*
X107107047Y-86515238D01*
X107202285Y-86610476D01*
X107297523Y-86658095D01*
%TO.C,R8*%
X131106666Y-117232380D02*
X131440000Y-116756190D01*
X131678095Y-117232380D02*
X131678095Y-116232380D01*
X131297142Y-116232380D01*
X131201904Y-116280000D01*
X131154285Y-116327619D01*
X131106666Y-116422857D01*
X131106666Y-116565714D01*
X131154285Y-116660952D01*
X131201904Y-116708571D01*
X131297142Y-116756190D01*
X131678095Y-116756190D01*
X130535238Y-116660952D02*
X130630476Y-116613333D01*
X130678095Y-116565714D01*
X130725714Y-116470476D01*
X130725714Y-116422857D01*
X130678095Y-116327619D01*
X130630476Y-116280000D01*
X130535238Y-116232380D01*
X130344761Y-116232380D01*
X130249523Y-116280000D01*
X130201904Y-116327619D01*
X130154285Y-116422857D01*
X130154285Y-116470476D01*
X130201904Y-116565714D01*
X130249523Y-116613333D01*
X130344761Y-116660952D01*
X130535238Y-116660952D01*
X130630476Y-116708571D01*
X130678095Y-116756190D01*
X130725714Y-116851428D01*
X130725714Y-117041904D01*
X130678095Y-117137142D01*
X130630476Y-117184761D01*
X130535238Y-117232380D01*
X130344761Y-117232380D01*
X130249523Y-117184761D01*
X130201904Y-117137142D01*
X130154285Y-117041904D01*
X130154285Y-116851428D01*
X130201904Y-116756190D01*
X130249523Y-116708571D01*
X130344761Y-116660952D01*
%TO.C,Cvdd_1*%
X135083333Y-83737142D02*
X135130952Y-83784761D01*
X135273809Y-83832380D01*
X135369047Y-83832380D01*
X135511904Y-83784761D01*
X135607142Y-83689523D01*
X135654761Y-83594285D01*
X135702380Y-83403809D01*
X135702380Y-83260952D01*
X135654761Y-83070476D01*
X135607142Y-82975238D01*
X135511904Y-82880000D01*
X135369047Y-82832380D01*
X135273809Y-82832380D01*
X135130952Y-82880000D01*
X135083333Y-82927619D01*
X134750000Y-83165714D02*
X134511904Y-83832380D01*
X134273809Y-83165714D01*
X133464285Y-83832380D02*
X133464285Y-82832380D01*
X133464285Y-83784761D02*
X133559523Y-83832380D01*
X133750000Y-83832380D01*
X133845238Y-83784761D01*
X133892857Y-83737142D01*
X133940476Y-83641904D01*
X133940476Y-83356190D01*
X133892857Y-83260952D01*
X133845238Y-83213333D01*
X133750000Y-83165714D01*
X133559523Y-83165714D01*
X133464285Y-83213333D01*
X132559523Y-83832380D02*
X132559523Y-82832380D01*
X132559523Y-83784761D02*
X132654761Y-83832380D01*
X132845238Y-83832380D01*
X132940476Y-83784761D01*
X132988095Y-83737142D01*
X133035714Y-83641904D01*
X133035714Y-83356190D01*
X132988095Y-83260952D01*
X132940476Y-83213333D01*
X132845238Y-83165714D01*
X132654761Y-83165714D01*
X132559523Y-83213333D01*
X132321428Y-83927619D02*
X131559523Y-83927619D01*
X130797619Y-83832380D02*
X131369047Y-83832380D01*
X131083333Y-83832380D02*
X131083333Y-82832380D01*
X131178571Y-82975238D01*
X131273809Y-83070476D01*
X131369047Y-83118095D01*
%TO.C,R72*%
X113807857Y-101761130D02*
X114141190Y-101284940D01*
X114379285Y-101761130D02*
X114379285Y-100761130D01*
X113998333Y-100761130D01*
X113903095Y-100808750D01*
X113855476Y-100856369D01*
X113807857Y-100951607D01*
X113807857Y-101094464D01*
X113855476Y-101189702D01*
X113903095Y-101237321D01*
X113998333Y-101284940D01*
X114379285Y-101284940D01*
X113474523Y-100761130D02*
X112807857Y-100761130D01*
X113236428Y-101761130D01*
X112474523Y-100856369D02*
X112426904Y-100808750D01*
X112331666Y-100761130D01*
X112093571Y-100761130D01*
X111998333Y-100808750D01*
X111950714Y-100856369D01*
X111903095Y-100951607D01*
X111903095Y-101046845D01*
X111950714Y-101189702D01*
X112522142Y-101761130D01*
X111903095Y-101761130D01*
%TO.C,R15*%
X108672857Y-100552380D02*
X109006190Y-100076190D01*
X109244285Y-100552380D02*
X109244285Y-99552380D01*
X108863333Y-99552380D01*
X108768095Y-99600000D01*
X108720476Y-99647619D01*
X108672857Y-99742857D01*
X108672857Y-99885714D01*
X108720476Y-99980952D01*
X108768095Y-100028571D01*
X108863333Y-100076190D01*
X109244285Y-100076190D01*
X107720476Y-100552380D02*
X108291904Y-100552380D01*
X108006190Y-100552380D02*
X108006190Y-99552380D01*
X108101428Y-99695238D01*
X108196666Y-99790476D01*
X108291904Y-99838095D01*
X106815714Y-99552380D02*
X107291904Y-99552380D01*
X107339523Y-100028571D01*
X107291904Y-99980952D01*
X107196666Y-99933333D01*
X106958571Y-99933333D01*
X106863333Y-99980952D01*
X106815714Y-100028571D01*
X106768095Y-100123809D01*
X106768095Y-100361904D01*
X106815714Y-100457142D01*
X106863333Y-100504761D01*
X106958571Y-100552380D01*
X107196666Y-100552380D01*
X107291904Y-100504761D01*
X107339523Y-100457142D01*
%TO.C,C4*%
X131146666Y-118417142D02*
X131194285Y-118464761D01*
X131337142Y-118512380D01*
X131432380Y-118512380D01*
X131575238Y-118464761D01*
X131670476Y-118369523D01*
X131718095Y-118274285D01*
X131765714Y-118083809D01*
X131765714Y-117940952D01*
X131718095Y-117750476D01*
X131670476Y-117655238D01*
X131575238Y-117560000D01*
X131432380Y-117512380D01*
X131337142Y-117512380D01*
X131194285Y-117560000D01*
X131146666Y-117607619D01*
X130289523Y-117845714D02*
X130289523Y-118512380D01*
X130527619Y-117464761D02*
X130765714Y-118179047D01*
X130146666Y-118179047D01*
D11*
%TO.C,FB2*%
X130709285Y-102101666D02*
X130709285Y-101678333D01*
X131374523Y-101678333D02*
X130104523Y-101678333D01*
X130104523Y-102283095D01*
X130709285Y-103190238D02*
X130769761Y-103371666D01*
X130830238Y-103432142D01*
X130951190Y-103492619D01*
X131132619Y-103492619D01*
X131253571Y-103432142D01*
X131314047Y-103371666D01*
X131374523Y-103250714D01*
X131374523Y-102766904D01*
X130104523Y-102766904D01*
X130104523Y-103190238D01*
X130165000Y-103311190D01*
X130225476Y-103371666D01*
X130346428Y-103432142D01*
X130467380Y-103432142D01*
X130588333Y-103371666D01*
X130648809Y-103311190D01*
X130709285Y-103190238D01*
X130709285Y-102766904D01*
X130225476Y-103976428D02*
X130165000Y-104036904D01*
X130104523Y-104157857D01*
X130104523Y-104460238D01*
X130165000Y-104581190D01*
X130225476Y-104641666D01*
X130346428Y-104702142D01*
X130467380Y-104702142D01*
X130648809Y-104641666D01*
X131374523Y-103915952D01*
X131374523Y-104702142D01*
D10*
%TO.C,Cvdd_3*%
X142517142Y-85406166D02*
X142564761Y-85358547D01*
X142612380Y-85215690D01*
X142612380Y-85120452D01*
X142564761Y-84977595D01*
X142469523Y-84882357D01*
X142374285Y-84834738D01*
X142183809Y-84787119D01*
X142040952Y-84787119D01*
X141850476Y-84834738D01*
X141755238Y-84882357D01*
X141660000Y-84977595D01*
X141612380Y-85120452D01*
X141612380Y-85215690D01*
X141660000Y-85358547D01*
X141707619Y-85406166D01*
X141945714Y-85739500D02*
X142612380Y-85977595D01*
X141945714Y-86215690D01*
X142612380Y-87025214D02*
X141612380Y-87025214D01*
X142564761Y-87025214D02*
X142612380Y-86929976D01*
X142612380Y-86739500D01*
X142564761Y-86644261D01*
X142517142Y-86596642D01*
X142421904Y-86549023D01*
X142136190Y-86549023D01*
X142040952Y-86596642D01*
X141993333Y-86644261D01*
X141945714Y-86739500D01*
X141945714Y-86929976D01*
X141993333Y-87025214D01*
X142612380Y-87929976D02*
X141612380Y-87929976D01*
X142564761Y-87929976D02*
X142612380Y-87834738D01*
X142612380Y-87644261D01*
X142564761Y-87549023D01*
X142517142Y-87501404D01*
X142421904Y-87453785D01*
X142136190Y-87453785D01*
X142040952Y-87501404D01*
X141993333Y-87549023D01*
X141945714Y-87644261D01*
X141945714Y-87834738D01*
X141993333Y-87929976D01*
X142707619Y-88168071D02*
X142707619Y-88929976D01*
X141612380Y-89072833D02*
X141612380Y-89691880D01*
X141993333Y-89358547D01*
X141993333Y-89501404D01*
X142040952Y-89596642D01*
X142088571Y-89644261D01*
X142183809Y-89691880D01*
X142421904Y-89691880D01*
X142517142Y-89644261D01*
X142564761Y-89596642D01*
X142612380Y-89501404D01*
X142612380Y-89215690D01*
X142564761Y-89120452D01*
X142517142Y-89072833D01*
%TO.C,R13*%
X108692857Y-105542380D02*
X109026190Y-105066190D01*
X109264285Y-105542380D02*
X109264285Y-104542380D01*
X108883333Y-104542380D01*
X108788095Y-104590000D01*
X108740476Y-104637619D01*
X108692857Y-104732857D01*
X108692857Y-104875714D01*
X108740476Y-104970952D01*
X108788095Y-105018571D01*
X108883333Y-105066190D01*
X109264285Y-105066190D01*
X107740476Y-105542380D02*
X108311904Y-105542380D01*
X108026190Y-105542380D02*
X108026190Y-104542380D01*
X108121428Y-104685238D01*
X108216666Y-104780476D01*
X108311904Y-104828095D01*
X107407142Y-104542380D02*
X106788095Y-104542380D01*
X107121428Y-104923333D01*
X106978571Y-104923333D01*
X106883333Y-104970952D01*
X106835714Y-105018571D01*
X106788095Y-105113809D01*
X106788095Y-105351904D01*
X106835714Y-105447142D01*
X106883333Y-105494761D01*
X106978571Y-105542380D01*
X107264285Y-105542380D01*
X107359523Y-105494761D01*
X107407142Y-105447142D01*
%TO.C,C8*%
X128636666Y-124108392D02*
X128684285Y-124156011D01*
X128827142Y-124203630D01*
X128922380Y-124203630D01*
X129065238Y-124156011D01*
X129160476Y-124060773D01*
X129208095Y-123965535D01*
X129255714Y-123775059D01*
X129255714Y-123632202D01*
X129208095Y-123441726D01*
X129160476Y-123346488D01*
X129065238Y-123251250D01*
X128922380Y-123203630D01*
X128827142Y-123203630D01*
X128684285Y-123251250D01*
X128636666Y-123298869D01*
X128065238Y-123632202D02*
X128160476Y-123584583D01*
X128208095Y-123536964D01*
X128255714Y-123441726D01*
X128255714Y-123394107D01*
X128208095Y-123298869D01*
X128160476Y-123251250D01*
X128065238Y-123203630D01*
X127874761Y-123203630D01*
X127779523Y-123251250D01*
X127731904Y-123298869D01*
X127684285Y-123394107D01*
X127684285Y-123441726D01*
X127731904Y-123536964D01*
X127779523Y-123584583D01*
X127874761Y-123632202D01*
X128065238Y-123632202D01*
X128160476Y-123679821D01*
X128208095Y-123727440D01*
X128255714Y-123822678D01*
X128255714Y-124013154D01*
X128208095Y-124108392D01*
X128160476Y-124156011D01*
X128065238Y-124203630D01*
X127874761Y-124203630D01*
X127779523Y-124156011D01*
X127731904Y-124108392D01*
X127684285Y-124013154D01*
X127684285Y-123822678D01*
X127731904Y-123727440D01*
X127779523Y-123679821D01*
X127874761Y-123632202D01*
%TO.C,R66*%
X119172380Y-104987142D02*
X118696190Y-104653809D01*
X119172380Y-104415714D02*
X118172380Y-104415714D01*
X118172380Y-104796666D01*
X118220000Y-104891904D01*
X118267619Y-104939523D01*
X118362857Y-104987142D01*
X118505714Y-104987142D01*
X118600952Y-104939523D01*
X118648571Y-104891904D01*
X118696190Y-104796666D01*
X118696190Y-104415714D01*
X118172380Y-105844285D02*
X118172380Y-105653809D01*
X118220000Y-105558571D01*
X118267619Y-105510952D01*
X118410476Y-105415714D01*
X118600952Y-105368095D01*
X118981904Y-105368095D01*
X119077142Y-105415714D01*
X119124761Y-105463333D01*
X119172380Y-105558571D01*
X119172380Y-105749047D01*
X119124761Y-105844285D01*
X119077142Y-105891904D01*
X118981904Y-105939523D01*
X118743809Y-105939523D01*
X118648571Y-105891904D01*
X118600952Y-105844285D01*
X118553333Y-105749047D01*
X118553333Y-105558571D01*
X118600952Y-105463333D01*
X118648571Y-105415714D01*
X118743809Y-105368095D01*
X118172380Y-106796666D02*
X118172380Y-106606190D01*
X118220000Y-106510952D01*
X118267619Y-106463333D01*
X118410476Y-106368095D01*
X118600952Y-106320476D01*
X118981904Y-106320476D01*
X119077142Y-106368095D01*
X119124761Y-106415714D01*
X119172380Y-106510952D01*
X119172380Y-106701428D01*
X119124761Y-106796666D01*
X119077142Y-106844285D01*
X118981904Y-106891904D01*
X118743809Y-106891904D01*
X118648571Y-106844285D01*
X118600952Y-106796666D01*
X118553333Y-106701428D01*
X118553333Y-106510952D01*
X118600952Y-106415714D01*
X118648571Y-106368095D01*
X118743809Y-106320476D01*
%TO.C,R1*%
X108254666Y-80052380D02*
X108588000Y-79576190D01*
X108826095Y-80052380D02*
X108826095Y-79052380D01*
X108445142Y-79052380D01*
X108349904Y-79100000D01*
X108302285Y-79147619D01*
X108254666Y-79242857D01*
X108254666Y-79385714D01*
X108302285Y-79480952D01*
X108349904Y-79528571D01*
X108445142Y-79576190D01*
X108826095Y-79576190D01*
X107302285Y-80052380D02*
X107873714Y-80052380D01*
X107588000Y-80052380D02*
X107588000Y-79052380D01*
X107683238Y-79195238D01*
X107778476Y-79290476D01*
X107873714Y-79338095D01*
%TO.C,C6*%
X108226666Y-101777142D02*
X108274285Y-101824761D01*
X108417142Y-101872380D01*
X108512380Y-101872380D01*
X108655238Y-101824761D01*
X108750476Y-101729523D01*
X108798095Y-101634285D01*
X108845714Y-101443809D01*
X108845714Y-101300952D01*
X108798095Y-101110476D01*
X108750476Y-101015238D01*
X108655238Y-100920000D01*
X108512380Y-100872380D01*
X108417142Y-100872380D01*
X108274285Y-100920000D01*
X108226666Y-100967619D01*
X107369523Y-100872380D02*
X107560000Y-100872380D01*
X107655238Y-100920000D01*
X107702857Y-100967619D01*
X107798095Y-101110476D01*
X107845714Y-101300952D01*
X107845714Y-101681904D01*
X107798095Y-101777142D01*
X107750476Y-101824761D01*
X107655238Y-101872380D01*
X107464761Y-101872380D01*
X107369523Y-101824761D01*
X107321904Y-101777142D01*
X107274285Y-101681904D01*
X107274285Y-101443809D01*
X107321904Y-101348571D01*
X107369523Y-101300952D01*
X107464761Y-101253333D01*
X107655238Y-101253333D01*
X107750476Y-101300952D01*
X107798095Y-101348571D01*
X107845714Y-101443809D01*
%TO.C,Cvdd_2*%
X134223333Y-95756642D02*
X134270952Y-95804261D01*
X134413809Y-95851880D01*
X134509047Y-95851880D01*
X134651904Y-95804261D01*
X134747142Y-95709023D01*
X134794761Y-95613785D01*
X134842380Y-95423309D01*
X134842380Y-95280452D01*
X134794761Y-95089976D01*
X134747142Y-94994738D01*
X134651904Y-94899500D01*
X134509047Y-94851880D01*
X134413809Y-94851880D01*
X134270952Y-94899500D01*
X134223333Y-94947119D01*
X133890000Y-95185214D02*
X133651904Y-95851880D01*
X133413809Y-95185214D01*
X132604285Y-95851880D02*
X132604285Y-94851880D01*
X132604285Y-95804261D02*
X132699523Y-95851880D01*
X132890000Y-95851880D01*
X132985238Y-95804261D01*
X133032857Y-95756642D01*
X133080476Y-95661404D01*
X133080476Y-95375690D01*
X133032857Y-95280452D01*
X132985238Y-95232833D01*
X132890000Y-95185214D01*
X132699523Y-95185214D01*
X132604285Y-95232833D01*
X131699523Y-95851880D02*
X131699523Y-94851880D01*
X131699523Y-95804261D02*
X131794761Y-95851880D01*
X131985238Y-95851880D01*
X132080476Y-95804261D01*
X132128095Y-95756642D01*
X132175714Y-95661404D01*
X132175714Y-95375690D01*
X132128095Y-95280452D01*
X132080476Y-95232833D01*
X131985238Y-95185214D01*
X131794761Y-95185214D01*
X131699523Y-95232833D01*
X131461428Y-95947119D02*
X130699523Y-95947119D01*
X130509047Y-94947119D02*
X130461428Y-94899500D01*
X130366190Y-94851880D01*
X130128095Y-94851880D01*
X130032857Y-94899500D01*
X129985238Y-94947119D01*
X129937619Y-95042357D01*
X129937619Y-95137595D01*
X129985238Y-95280452D01*
X130556666Y-95851880D01*
X129937619Y-95851880D01*
%TO.C,C12*%
X108763357Y-72633392D02*
X108810976Y-72681011D01*
X108953833Y-72728630D01*
X109049071Y-72728630D01*
X109191928Y-72681011D01*
X109287166Y-72585773D01*
X109334785Y-72490535D01*
X109382404Y-72300059D01*
X109382404Y-72157202D01*
X109334785Y-71966726D01*
X109287166Y-71871488D01*
X109191928Y-71776250D01*
X109049071Y-71728630D01*
X108953833Y-71728630D01*
X108810976Y-71776250D01*
X108763357Y-71823869D01*
X107810976Y-72728630D02*
X108382404Y-72728630D01*
X108096690Y-72728630D02*
X108096690Y-71728630D01*
X108191928Y-71871488D01*
X108287166Y-71966726D01*
X108382404Y-72014345D01*
X107430023Y-71823869D02*
X107382404Y-71776250D01*
X107287166Y-71728630D01*
X107049071Y-71728630D01*
X106953833Y-71776250D01*
X106906214Y-71823869D01*
X106858595Y-71919107D01*
X106858595Y-72014345D01*
X106906214Y-72157202D01*
X107477642Y-72728630D01*
X106858595Y-72728630D01*
%TO.C,C18*%
X131217142Y-102087142D02*
X131264761Y-102039523D01*
X131312380Y-101896666D01*
X131312380Y-101801428D01*
X131264761Y-101658571D01*
X131169523Y-101563333D01*
X131074285Y-101515714D01*
X130883809Y-101468095D01*
X130740952Y-101468095D01*
X130550476Y-101515714D01*
X130455238Y-101563333D01*
X130360000Y-101658571D01*
X130312380Y-101801428D01*
X130312380Y-101896666D01*
X130360000Y-102039523D01*
X130407619Y-102087142D01*
X131312380Y-103039523D02*
X131312380Y-102468095D01*
X131312380Y-102753809D02*
X130312380Y-102753809D01*
X130455238Y-102658571D01*
X130550476Y-102563333D01*
X130598095Y-102468095D01*
X130740952Y-103610952D02*
X130693333Y-103515714D01*
X130645714Y-103468095D01*
X130550476Y-103420476D01*
X130502857Y-103420476D01*
X130407619Y-103468095D01*
X130360000Y-103515714D01*
X130312380Y-103610952D01*
X130312380Y-103801428D01*
X130360000Y-103896666D01*
X130407619Y-103944285D01*
X130502857Y-103991904D01*
X130550476Y-103991904D01*
X130645714Y-103944285D01*
X130693333Y-103896666D01*
X130740952Y-103801428D01*
X130740952Y-103610952D01*
X130788571Y-103515714D01*
X130836190Y-103468095D01*
X130931428Y-103420476D01*
X131121904Y-103420476D01*
X131217142Y-103468095D01*
X131264761Y-103515714D01*
X131312380Y-103610952D01*
X131312380Y-103801428D01*
X131264761Y-103896666D01*
X131217142Y-103944285D01*
X131121904Y-103991904D01*
X130931428Y-103991904D01*
X130836190Y-103944285D01*
X130788571Y-103896666D01*
X130740952Y-103801428D01*
%TO.C,R21*%
X119220380Y-79360892D02*
X118744190Y-79027559D01*
X119220380Y-78789464D02*
X118220380Y-78789464D01*
X118220380Y-79170416D01*
X118268000Y-79265654D01*
X118315619Y-79313273D01*
X118410857Y-79360892D01*
X118553714Y-79360892D01*
X118648952Y-79313273D01*
X118696571Y-79265654D01*
X118744190Y-79170416D01*
X118744190Y-78789464D01*
X118315619Y-79741845D02*
X118268000Y-79789464D01*
X118220380Y-79884702D01*
X118220380Y-80122797D01*
X118268000Y-80218035D01*
X118315619Y-80265654D01*
X118410857Y-80313273D01*
X118506095Y-80313273D01*
X118648952Y-80265654D01*
X119220380Y-79694226D01*
X119220380Y-80313273D01*
X119220380Y-81265654D02*
X119220380Y-80694226D01*
X119220380Y-80979940D02*
X118220380Y-80979940D01*
X118363238Y-80884702D01*
X118458476Y-80789464D01*
X118506095Y-80694226D01*
%TO.C,C5*%
X108236666Y-106687142D02*
X108284285Y-106734761D01*
X108427142Y-106782380D01*
X108522380Y-106782380D01*
X108665238Y-106734761D01*
X108760476Y-106639523D01*
X108808095Y-106544285D01*
X108855714Y-106353809D01*
X108855714Y-106210952D01*
X108808095Y-106020476D01*
X108760476Y-105925238D01*
X108665238Y-105830000D01*
X108522380Y-105782380D01*
X108427142Y-105782380D01*
X108284285Y-105830000D01*
X108236666Y-105877619D01*
X107331904Y-105782380D02*
X107808095Y-105782380D01*
X107855714Y-106258571D01*
X107808095Y-106210952D01*
X107712857Y-106163333D01*
X107474761Y-106163333D01*
X107379523Y-106210952D01*
X107331904Y-106258571D01*
X107284285Y-106353809D01*
X107284285Y-106591904D01*
X107331904Y-106687142D01*
X107379523Y-106734761D01*
X107474761Y-106782380D01*
X107712857Y-106782380D01*
X107808095Y-106734761D01*
X107855714Y-106687142D01*
%TO.C,Cvddio_3*%
X135573809Y-85286642D02*
X135621428Y-85334261D01*
X135764285Y-85381880D01*
X135859523Y-85381880D01*
X136002380Y-85334261D01*
X136097619Y-85239023D01*
X136145238Y-85143785D01*
X136192857Y-84953309D01*
X136192857Y-84810452D01*
X136145238Y-84619976D01*
X136097619Y-84524738D01*
X136002380Y-84429500D01*
X135859523Y-84381880D01*
X135764285Y-84381880D01*
X135621428Y-84429500D01*
X135573809Y-84477119D01*
X135240476Y-84715214D02*
X135002380Y-85381880D01*
X134764285Y-84715214D01*
X133954761Y-85381880D02*
X133954761Y-84381880D01*
X133954761Y-85334261D02*
X134050000Y-85381880D01*
X134240476Y-85381880D01*
X134335714Y-85334261D01*
X134383333Y-85286642D01*
X134430952Y-85191404D01*
X134430952Y-84905690D01*
X134383333Y-84810452D01*
X134335714Y-84762833D01*
X134240476Y-84715214D01*
X134050000Y-84715214D01*
X133954761Y-84762833D01*
X133050000Y-85381880D02*
X133050000Y-84381880D01*
X133050000Y-85334261D02*
X133145238Y-85381880D01*
X133335714Y-85381880D01*
X133430952Y-85334261D01*
X133478571Y-85286642D01*
X133526190Y-85191404D01*
X133526190Y-84905690D01*
X133478571Y-84810452D01*
X133430952Y-84762833D01*
X133335714Y-84715214D01*
X133145238Y-84715214D01*
X133050000Y-84762833D01*
X132573809Y-85381880D02*
X132573809Y-84715214D01*
X132573809Y-84381880D02*
X132621428Y-84429500D01*
X132573809Y-84477119D01*
X132526190Y-84429500D01*
X132573809Y-84381880D01*
X132573809Y-84477119D01*
X131954761Y-85381880D02*
X132050000Y-85334261D01*
X132097619Y-85286642D01*
X132145238Y-85191404D01*
X132145238Y-84905690D01*
X132097619Y-84810452D01*
X132050000Y-84762833D01*
X131954761Y-84715214D01*
X131811904Y-84715214D01*
X131716666Y-84762833D01*
X131669047Y-84810452D01*
X131621428Y-84905690D01*
X131621428Y-85191404D01*
X131669047Y-85286642D01*
X131716666Y-85334261D01*
X131811904Y-85381880D01*
X131954761Y-85381880D01*
X131430952Y-85477119D02*
X130669047Y-85477119D01*
X130526190Y-84381880D02*
X129907142Y-84381880D01*
X130240476Y-84762833D01*
X130097619Y-84762833D01*
X130002380Y-84810452D01*
X129954761Y-84858071D01*
X129907142Y-84953309D01*
X129907142Y-85191404D01*
X129954761Y-85286642D01*
X130002380Y-85334261D01*
X130097619Y-85381880D01*
X130383333Y-85381880D01*
X130478571Y-85334261D01*
X130526190Y-85286642D01*
%TO.C,C14*%
X108695357Y-93357142D02*
X108742976Y-93404761D01*
X108885833Y-93452380D01*
X108981071Y-93452380D01*
X109123928Y-93404761D01*
X109219166Y-93309523D01*
X109266785Y-93214285D01*
X109314404Y-93023809D01*
X109314404Y-92880952D01*
X109266785Y-92690476D01*
X109219166Y-92595238D01*
X109123928Y-92500000D01*
X108981071Y-92452380D01*
X108885833Y-92452380D01*
X108742976Y-92500000D01*
X108695357Y-92547619D01*
X107742976Y-93452380D02*
X108314404Y-93452380D01*
X108028690Y-93452380D02*
X108028690Y-92452380D01*
X108123928Y-92595238D01*
X108219166Y-92690476D01*
X108314404Y-92738095D01*
X106885833Y-92785714D02*
X106885833Y-93452380D01*
X107123928Y-92404761D02*
X107362023Y-93119047D01*
X106742976Y-93119047D01*
%TO.C,R3*%
X106620380Y-80113333D02*
X106144190Y-79780000D01*
X106620380Y-79541904D02*
X105620380Y-79541904D01*
X105620380Y-79922857D01*
X105668000Y-80018095D01*
X105715619Y-80065714D01*
X105810857Y-80113333D01*
X105953714Y-80113333D01*
X106048952Y-80065714D01*
X106096571Y-80018095D01*
X106144190Y-79922857D01*
X106144190Y-79541904D01*
X105620380Y-80446666D02*
X105620380Y-81065714D01*
X106001333Y-80732380D01*
X106001333Y-80875238D01*
X106048952Y-80970476D01*
X106096571Y-81018095D01*
X106191809Y-81065714D01*
X106429904Y-81065714D01*
X106525142Y-81018095D01*
X106572761Y-80970476D01*
X106620380Y-80875238D01*
X106620380Y-80589523D01*
X106572761Y-80494285D01*
X106525142Y-80446666D01*
%TO.C,R73*%
X121800357Y-115641130D02*
X122133690Y-115164940D01*
X122371785Y-115641130D02*
X122371785Y-114641130D01*
X121990833Y-114641130D01*
X121895595Y-114688750D01*
X121847976Y-114736369D01*
X121800357Y-114831607D01*
X121800357Y-114974464D01*
X121847976Y-115069702D01*
X121895595Y-115117321D01*
X121990833Y-115164940D01*
X122371785Y-115164940D01*
X121467023Y-114641130D02*
X120800357Y-114641130D01*
X121228928Y-115641130D01*
X120514642Y-114641130D02*
X119895595Y-114641130D01*
X120228928Y-115022083D01*
X120086071Y-115022083D01*
X119990833Y-115069702D01*
X119943214Y-115117321D01*
X119895595Y-115212559D01*
X119895595Y-115450654D01*
X119943214Y-115545892D01*
X119990833Y-115593511D01*
X120086071Y-115641130D01*
X120371785Y-115641130D01*
X120467023Y-115593511D01*
X120514642Y-115545892D01*
%TO.C,R76*%
X131572857Y-112242380D02*
X131906190Y-111766190D01*
X132144285Y-112242380D02*
X132144285Y-111242380D01*
X131763333Y-111242380D01*
X131668095Y-111290000D01*
X131620476Y-111337619D01*
X131572857Y-111432857D01*
X131572857Y-111575714D01*
X131620476Y-111670952D01*
X131668095Y-111718571D01*
X131763333Y-111766190D01*
X132144285Y-111766190D01*
X131239523Y-111242380D02*
X130572857Y-111242380D01*
X131001428Y-112242380D01*
X129763333Y-111242380D02*
X129953809Y-111242380D01*
X130049047Y-111290000D01*
X130096666Y-111337619D01*
X130191904Y-111480476D01*
X130239523Y-111670952D01*
X130239523Y-112051904D01*
X130191904Y-112147142D01*
X130144285Y-112194761D01*
X130049047Y-112242380D01*
X129858571Y-112242380D01*
X129763333Y-112194761D01*
X129715714Y-112147142D01*
X129668095Y-112051904D01*
X129668095Y-111813809D01*
X129715714Y-111718571D01*
X129763333Y-111670952D01*
X129858571Y-111623333D01*
X130049047Y-111623333D01*
X130144285Y-111670952D01*
X130191904Y-111718571D01*
X130239523Y-111813809D01*
%TO.C,C22*%
X113820357Y-99357142D02*
X113867976Y-99404761D01*
X114010833Y-99452380D01*
X114106071Y-99452380D01*
X114248928Y-99404761D01*
X114344166Y-99309523D01*
X114391785Y-99214285D01*
X114439404Y-99023809D01*
X114439404Y-98880952D01*
X114391785Y-98690476D01*
X114344166Y-98595238D01*
X114248928Y-98500000D01*
X114106071Y-98452380D01*
X114010833Y-98452380D01*
X113867976Y-98500000D01*
X113820357Y-98547619D01*
X113439404Y-98547619D02*
X113391785Y-98500000D01*
X113296547Y-98452380D01*
X113058452Y-98452380D01*
X112963214Y-98500000D01*
X112915595Y-98547619D01*
X112867976Y-98642857D01*
X112867976Y-98738095D01*
X112915595Y-98880952D01*
X113487023Y-99452380D01*
X112867976Y-99452380D01*
X112487023Y-98547619D02*
X112439404Y-98500000D01*
X112344166Y-98452380D01*
X112106071Y-98452380D01*
X112010833Y-98500000D01*
X111963214Y-98547619D01*
X111915595Y-98642857D01*
X111915595Y-98738095D01*
X111963214Y-98880952D01*
X112534642Y-99452380D01*
X111915595Y-99452380D01*
%TO.C,C27*%
X121722857Y-106967142D02*
X121770476Y-107014761D01*
X121913333Y-107062380D01*
X122008571Y-107062380D01*
X122151428Y-107014761D01*
X122246666Y-106919523D01*
X122294285Y-106824285D01*
X122341904Y-106633809D01*
X122341904Y-106490952D01*
X122294285Y-106300476D01*
X122246666Y-106205238D01*
X122151428Y-106110000D01*
X122008571Y-106062380D01*
X121913333Y-106062380D01*
X121770476Y-106110000D01*
X121722857Y-106157619D01*
X121341904Y-106157619D02*
X121294285Y-106110000D01*
X121199047Y-106062380D01*
X120960952Y-106062380D01*
X120865714Y-106110000D01*
X120818095Y-106157619D01*
X120770476Y-106252857D01*
X120770476Y-106348095D01*
X120818095Y-106490952D01*
X121389523Y-107062380D01*
X120770476Y-107062380D01*
X120437142Y-106062380D02*
X119770476Y-106062380D01*
X120199047Y-107062380D01*
%TO.C,R57*%
X129412380Y-127557142D02*
X128936190Y-127223809D01*
X129412380Y-126985714D02*
X128412380Y-126985714D01*
X128412380Y-127366666D01*
X128460000Y-127461904D01*
X128507619Y-127509523D01*
X128602857Y-127557142D01*
X128745714Y-127557142D01*
X128840952Y-127509523D01*
X128888571Y-127461904D01*
X128936190Y-127366666D01*
X128936190Y-126985714D01*
X128412380Y-128461904D02*
X128412380Y-127985714D01*
X128888571Y-127938095D01*
X128840952Y-127985714D01*
X128793333Y-128080952D01*
X128793333Y-128319047D01*
X128840952Y-128414285D01*
X128888571Y-128461904D01*
X128983809Y-128509523D01*
X129221904Y-128509523D01*
X129317142Y-128461904D01*
X129364761Y-128414285D01*
X129412380Y-128319047D01*
X129412380Y-128080952D01*
X129364761Y-127985714D01*
X129317142Y-127938095D01*
X128412380Y-128842857D02*
X128412380Y-129509523D01*
X129412380Y-129080952D01*
%TO.C,C23*%
X139182857Y-123417142D02*
X139230476Y-123464761D01*
X139373333Y-123512380D01*
X139468571Y-123512380D01*
X139611428Y-123464761D01*
X139706666Y-123369523D01*
X139754285Y-123274285D01*
X139801904Y-123083809D01*
X139801904Y-122940952D01*
X139754285Y-122750476D01*
X139706666Y-122655238D01*
X139611428Y-122560000D01*
X139468571Y-122512380D01*
X139373333Y-122512380D01*
X139230476Y-122560000D01*
X139182857Y-122607619D01*
X138801904Y-122607619D02*
X138754285Y-122560000D01*
X138659047Y-122512380D01*
X138420952Y-122512380D01*
X138325714Y-122560000D01*
X138278095Y-122607619D01*
X138230476Y-122702857D01*
X138230476Y-122798095D01*
X138278095Y-122940952D01*
X138849523Y-123512380D01*
X138230476Y-123512380D01*
X137897142Y-122512380D02*
X137278095Y-122512380D01*
X137611428Y-122893333D01*
X137468571Y-122893333D01*
X137373333Y-122940952D01*
X137325714Y-122988571D01*
X137278095Y-123083809D01*
X137278095Y-123321904D01*
X137325714Y-123417142D01*
X137373333Y-123464761D01*
X137468571Y-123512380D01*
X137754285Y-123512380D01*
X137849523Y-123464761D01*
X137897142Y-123417142D01*
%TO.C,R2*%
X122112380Y-116913333D02*
X121636190Y-116580000D01*
X122112380Y-116341904D02*
X121112380Y-116341904D01*
X121112380Y-116722857D01*
X121160000Y-116818095D01*
X121207619Y-116865714D01*
X121302857Y-116913333D01*
X121445714Y-116913333D01*
X121540952Y-116865714D01*
X121588571Y-116818095D01*
X121636190Y-116722857D01*
X121636190Y-116341904D01*
X121207619Y-117294285D02*
X121160000Y-117341904D01*
X121112380Y-117437142D01*
X121112380Y-117675238D01*
X121160000Y-117770476D01*
X121207619Y-117818095D01*
X121302857Y-117865714D01*
X121398095Y-117865714D01*
X121540952Y-117818095D01*
X122112380Y-117246666D01*
X122112380Y-117865714D01*
%TO.C,R71*%
X119139880Y-99927142D02*
X118663690Y-99593809D01*
X119139880Y-99355714D02*
X118139880Y-99355714D01*
X118139880Y-99736666D01*
X118187500Y-99831904D01*
X118235119Y-99879523D01*
X118330357Y-99927142D01*
X118473214Y-99927142D01*
X118568452Y-99879523D01*
X118616071Y-99831904D01*
X118663690Y-99736666D01*
X118663690Y-99355714D01*
X118139880Y-100260476D02*
X118139880Y-100927142D01*
X119139880Y-100498571D01*
X119139880Y-101831904D02*
X119139880Y-101260476D01*
X119139880Y-101546190D02*
X118139880Y-101546190D01*
X118282738Y-101450952D01*
X118377976Y-101355714D01*
X118425595Y-101260476D01*
%TO.C,R53*%
X108630857Y-93412380D02*
X108964190Y-92936190D01*
X109202285Y-93412380D02*
X109202285Y-92412380D01*
X108821333Y-92412380D01*
X108726095Y-92460000D01*
X108678476Y-92507619D01*
X108630857Y-92602857D01*
X108630857Y-92745714D01*
X108678476Y-92840952D01*
X108726095Y-92888571D01*
X108821333Y-92936190D01*
X109202285Y-92936190D01*
X107726095Y-92412380D02*
X108202285Y-92412380D01*
X108249904Y-92888571D01*
X108202285Y-92840952D01*
X108107047Y-92793333D01*
X107868952Y-92793333D01*
X107773714Y-92840952D01*
X107726095Y-92888571D01*
X107678476Y-92983809D01*
X107678476Y-93221904D01*
X107726095Y-93317142D01*
X107773714Y-93364761D01*
X107868952Y-93412380D01*
X108107047Y-93412380D01*
X108202285Y-93364761D01*
X108249904Y-93317142D01*
X107345142Y-92412380D02*
X106726095Y-92412380D01*
X107059428Y-92793333D01*
X106916571Y-92793333D01*
X106821333Y-92840952D01*
X106773714Y-92888571D01*
X106726095Y-92983809D01*
X106726095Y-93221904D01*
X106773714Y-93317142D01*
X106821333Y-93364761D01*
X106916571Y-93412380D01*
X107202285Y-93412380D01*
X107297523Y-93364761D01*
X107345142Y-93317142D01*
%TO.C,R59*%
X119020380Y-89437142D02*
X118544190Y-89103809D01*
X119020380Y-88865714D02*
X118020380Y-88865714D01*
X118020380Y-89246666D01*
X118068000Y-89341904D01*
X118115619Y-89389523D01*
X118210857Y-89437142D01*
X118353714Y-89437142D01*
X118448952Y-89389523D01*
X118496571Y-89341904D01*
X118544190Y-89246666D01*
X118544190Y-88865714D01*
X118020380Y-90341904D02*
X118020380Y-89865714D01*
X118496571Y-89818095D01*
X118448952Y-89865714D01*
X118401333Y-89960952D01*
X118401333Y-90199047D01*
X118448952Y-90294285D01*
X118496571Y-90341904D01*
X118591809Y-90389523D01*
X118829904Y-90389523D01*
X118925142Y-90341904D01*
X118972761Y-90294285D01*
X119020380Y-90199047D01*
X119020380Y-89960952D01*
X118972761Y-89865714D01*
X118925142Y-89818095D01*
X119020380Y-90865714D02*
X119020380Y-91056190D01*
X118972761Y-91151428D01*
X118925142Y-91199047D01*
X118782285Y-91294285D01*
X118591809Y-91341904D01*
X118210857Y-91341904D01*
X118115619Y-91294285D01*
X118068000Y-91246666D01*
X118020380Y-91151428D01*
X118020380Y-90960952D01*
X118068000Y-90865714D01*
X118115619Y-90818095D01*
X118210857Y-90770476D01*
X118448952Y-90770476D01*
X118544190Y-90818095D01*
X118591809Y-90865714D01*
X118639428Y-90960952D01*
X118639428Y-91151428D01*
X118591809Y-91246666D01*
X118544190Y-91294285D01*
X118448952Y-91341904D01*
%TO.C,R23*%
X113858357Y-83622380D02*
X114191690Y-83146190D01*
X114429785Y-83622380D02*
X114429785Y-82622380D01*
X114048833Y-82622380D01*
X113953595Y-82670000D01*
X113905976Y-82717619D01*
X113858357Y-82812857D01*
X113858357Y-82955714D01*
X113905976Y-83050952D01*
X113953595Y-83098571D01*
X114048833Y-83146190D01*
X114429785Y-83146190D01*
X113477404Y-82717619D02*
X113429785Y-82670000D01*
X113334547Y-82622380D01*
X113096452Y-82622380D01*
X113001214Y-82670000D01*
X112953595Y-82717619D01*
X112905976Y-82812857D01*
X112905976Y-82908095D01*
X112953595Y-83050952D01*
X113525023Y-83622380D01*
X112905976Y-83622380D01*
X112572642Y-82622380D02*
X111953595Y-82622380D01*
X112286928Y-83003333D01*
X112144071Y-83003333D01*
X112048833Y-83050952D01*
X112001214Y-83098571D01*
X111953595Y-83193809D01*
X111953595Y-83431904D01*
X112001214Y-83527142D01*
X112048833Y-83574761D01*
X112144071Y-83622380D01*
X112429785Y-83622380D01*
X112525023Y-83574761D01*
X112572642Y-83527142D01*
%TO.C,C24*%
X113810357Y-97487142D02*
X113857976Y-97534761D01*
X114000833Y-97582380D01*
X114096071Y-97582380D01*
X114238928Y-97534761D01*
X114334166Y-97439523D01*
X114381785Y-97344285D01*
X114429404Y-97153809D01*
X114429404Y-97010952D01*
X114381785Y-96820476D01*
X114334166Y-96725238D01*
X114238928Y-96630000D01*
X114096071Y-96582380D01*
X114000833Y-96582380D01*
X113857976Y-96630000D01*
X113810357Y-96677619D01*
X113429404Y-96677619D02*
X113381785Y-96630000D01*
X113286547Y-96582380D01*
X113048452Y-96582380D01*
X112953214Y-96630000D01*
X112905595Y-96677619D01*
X112857976Y-96772857D01*
X112857976Y-96868095D01*
X112905595Y-97010952D01*
X113477023Y-97582380D01*
X112857976Y-97582380D01*
X112000833Y-96915714D02*
X112000833Y-97582380D01*
X112238928Y-96534761D02*
X112477023Y-97249047D01*
X111857976Y-97249047D01*
%TO.C,R16*%
X119000380Y-84397142D02*
X118524190Y-84063809D01*
X119000380Y-83825714D02*
X118000380Y-83825714D01*
X118000380Y-84206666D01*
X118048000Y-84301904D01*
X118095619Y-84349523D01*
X118190857Y-84397142D01*
X118333714Y-84397142D01*
X118428952Y-84349523D01*
X118476571Y-84301904D01*
X118524190Y-84206666D01*
X118524190Y-83825714D01*
X119000380Y-85349523D02*
X119000380Y-84778095D01*
X119000380Y-85063809D02*
X118000380Y-85063809D01*
X118143238Y-84968571D01*
X118238476Y-84873333D01*
X118286095Y-84778095D01*
X118000380Y-86206666D02*
X118000380Y-86016190D01*
X118048000Y-85920952D01*
X118095619Y-85873333D01*
X118238476Y-85778095D01*
X118428952Y-85730476D01*
X118809904Y-85730476D01*
X118905142Y-85778095D01*
X118952761Y-85825714D01*
X119000380Y-85920952D01*
X119000380Y-86111428D01*
X118952761Y-86206666D01*
X118905142Y-86254285D01*
X118809904Y-86301904D01*
X118571809Y-86301904D01*
X118476571Y-86254285D01*
X118428952Y-86206666D01*
X118381333Y-86111428D01*
X118381333Y-85920952D01*
X118428952Y-85825714D01*
X118476571Y-85778095D01*
X118571809Y-85730476D01*
%TO.C,R5*%
X129542380Y-117143333D02*
X129066190Y-116810000D01*
X129542380Y-116571904D02*
X128542380Y-116571904D01*
X128542380Y-116952857D01*
X128590000Y-117048095D01*
X128637619Y-117095714D01*
X128732857Y-117143333D01*
X128875714Y-117143333D01*
X128970952Y-117095714D01*
X129018571Y-117048095D01*
X129066190Y-116952857D01*
X129066190Y-116571904D01*
X128542380Y-118048095D02*
X128542380Y-117571904D01*
X129018571Y-117524285D01*
X128970952Y-117571904D01*
X128923333Y-117667142D01*
X128923333Y-117905238D01*
X128970952Y-118000476D01*
X129018571Y-118048095D01*
X129113809Y-118095714D01*
X129351904Y-118095714D01*
X129447142Y-118048095D01*
X129494761Y-118000476D01*
X129542380Y-117905238D01*
X129542380Y-117667142D01*
X129494761Y-117571904D01*
X129447142Y-117524285D01*
%TO.C,R41*%
X151002857Y-143402380D02*
X151336190Y-142926190D01*
X151574285Y-143402380D02*
X151574285Y-142402380D01*
X151193333Y-142402380D01*
X151098095Y-142450000D01*
X151050476Y-142497619D01*
X151002857Y-142592857D01*
X151002857Y-142735714D01*
X151050476Y-142830952D01*
X151098095Y-142878571D01*
X151193333Y-142926190D01*
X151574285Y-142926190D01*
X150145714Y-142735714D02*
X150145714Y-143402380D01*
X150383809Y-142354761D02*
X150621904Y-143069047D01*
X150002857Y-143069047D01*
X149098095Y-143402380D02*
X149669523Y-143402380D01*
X149383809Y-143402380D02*
X149383809Y-142402380D01*
X149479047Y-142545238D01*
X149574285Y-142640476D01*
X149669523Y-142688095D01*
%TO.C,C10*%
X131502857Y-131487142D02*
X131550476Y-131534761D01*
X131693333Y-131582380D01*
X131788571Y-131582380D01*
X131931428Y-131534761D01*
X132026666Y-131439523D01*
X132074285Y-131344285D01*
X132121904Y-131153809D01*
X132121904Y-131010952D01*
X132074285Y-130820476D01*
X132026666Y-130725238D01*
X131931428Y-130630000D01*
X131788571Y-130582380D01*
X131693333Y-130582380D01*
X131550476Y-130630000D01*
X131502857Y-130677619D01*
X130550476Y-131582380D02*
X131121904Y-131582380D01*
X130836190Y-131582380D02*
X130836190Y-130582380D01*
X130931428Y-130725238D01*
X131026666Y-130820476D01*
X131121904Y-130868095D01*
X129931428Y-130582380D02*
X129836190Y-130582380D01*
X129740952Y-130630000D01*
X129693333Y-130677619D01*
X129645714Y-130772857D01*
X129598095Y-130963333D01*
X129598095Y-131201428D01*
X129645714Y-131391904D01*
X129693333Y-131487142D01*
X129740952Y-131534761D01*
X129836190Y-131582380D01*
X129931428Y-131582380D01*
X130026666Y-131534761D01*
X130074285Y-131487142D01*
X130121904Y-131391904D01*
X130169523Y-131201428D01*
X130169523Y-130963333D01*
X130121904Y-130772857D01*
X130074285Y-130677619D01*
X130026666Y-130630000D01*
X129931428Y-130582380D01*
%TO.C,C16*%
X135097142Y-102087142D02*
X135144761Y-102039523D01*
X135192380Y-101896666D01*
X135192380Y-101801428D01*
X135144761Y-101658571D01*
X135049523Y-101563333D01*
X134954285Y-101515714D01*
X134763809Y-101468095D01*
X134620952Y-101468095D01*
X134430476Y-101515714D01*
X134335238Y-101563333D01*
X134240000Y-101658571D01*
X134192380Y-101801428D01*
X134192380Y-101896666D01*
X134240000Y-102039523D01*
X134287619Y-102087142D01*
X135192380Y-103039523D02*
X135192380Y-102468095D01*
X135192380Y-102753809D02*
X134192380Y-102753809D01*
X134335238Y-102658571D01*
X134430476Y-102563333D01*
X134478095Y-102468095D01*
X134192380Y-103896666D02*
X134192380Y-103706190D01*
X134240000Y-103610952D01*
X134287619Y-103563333D01*
X134430476Y-103468095D01*
X134620952Y-103420476D01*
X135001904Y-103420476D01*
X135097142Y-103468095D01*
X135144761Y-103515714D01*
X135192380Y-103610952D01*
X135192380Y-103801428D01*
X135144761Y-103896666D01*
X135097142Y-103944285D01*
X135001904Y-103991904D01*
X134763809Y-103991904D01*
X134668571Y-103944285D01*
X134620952Y-103896666D01*
X134573333Y-103801428D01*
X134573333Y-103610952D01*
X134620952Y-103515714D01*
X134668571Y-103468095D01*
X134763809Y-103420476D01*
%TO.C,R29*%
X106600380Y-89807142D02*
X106124190Y-89473809D01*
X106600380Y-89235714D02*
X105600380Y-89235714D01*
X105600380Y-89616666D01*
X105648000Y-89711904D01*
X105695619Y-89759523D01*
X105790857Y-89807142D01*
X105933714Y-89807142D01*
X106028952Y-89759523D01*
X106076571Y-89711904D01*
X106124190Y-89616666D01*
X106124190Y-89235714D01*
X105695619Y-90188095D02*
X105648000Y-90235714D01*
X105600380Y-90330952D01*
X105600380Y-90569047D01*
X105648000Y-90664285D01*
X105695619Y-90711904D01*
X105790857Y-90759523D01*
X105886095Y-90759523D01*
X106028952Y-90711904D01*
X106600380Y-90140476D01*
X106600380Y-90759523D01*
X106600380Y-91235714D02*
X106600380Y-91426190D01*
X106552761Y-91521428D01*
X106505142Y-91569047D01*
X106362285Y-91664285D01*
X106171809Y-91711904D01*
X105790857Y-91711904D01*
X105695619Y-91664285D01*
X105648000Y-91616666D01*
X105600380Y-91521428D01*
X105600380Y-91330952D01*
X105648000Y-91235714D01*
X105695619Y-91188095D01*
X105790857Y-91140476D01*
X106028952Y-91140476D01*
X106124190Y-91188095D01*
X106171809Y-91235714D01*
X106219428Y-91330952D01*
X106219428Y-91521428D01*
X106171809Y-91616666D01*
X106124190Y-91664285D01*
X106028952Y-91711904D01*
%TO.C,R62*%
X113640857Y-89802380D02*
X113974190Y-89326190D01*
X114212285Y-89802380D02*
X114212285Y-88802380D01*
X113831333Y-88802380D01*
X113736095Y-88850000D01*
X113688476Y-88897619D01*
X113640857Y-88992857D01*
X113640857Y-89135714D01*
X113688476Y-89230952D01*
X113736095Y-89278571D01*
X113831333Y-89326190D01*
X114212285Y-89326190D01*
X112783714Y-88802380D02*
X112974190Y-88802380D01*
X113069428Y-88850000D01*
X113117047Y-88897619D01*
X113212285Y-89040476D01*
X113259904Y-89230952D01*
X113259904Y-89611904D01*
X113212285Y-89707142D01*
X113164666Y-89754761D01*
X113069428Y-89802380D01*
X112878952Y-89802380D01*
X112783714Y-89754761D01*
X112736095Y-89707142D01*
X112688476Y-89611904D01*
X112688476Y-89373809D01*
X112736095Y-89278571D01*
X112783714Y-89230952D01*
X112878952Y-89183333D01*
X113069428Y-89183333D01*
X113164666Y-89230952D01*
X113212285Y-89278571D01*
X113259904Y-89373809D01*
X112307523Y-88897619D02*
X112259904Y-88850000D01*
X112164666Y-88802380D01*
X111926571Y-88802380D01*
X111831333Y-88850000D01*
X111783714Y-88897619D01*
X111736095Y-88992857D01*
X111736095Y-89088095D01*
X111783714Y-89230952D01*
X112355142Y-89802380D01*
X111736095Y-89802380D01*
%TO.C,C9*%
X113372166Y-77487142D02*
X113419785Y-77534761D01*
X113562642Y-77582380D01*
X113657880Y-77582380D01*
X113800738Y-77534761D01*
X113895976Y-77439523D01*
X113943595Y-77344285D01*
X113991214Y-77153809D01*
X113991214Y-77010952D01*
X113943595Y-76820476D01*
X113895976Y-76725238D01*
X113800738Y-76630000D01*
X113657880Y-76582380D01*
X113562642Y-76582380D01*
X113419785Y-76630000D01*
X113372166Y-76677619D01*
X112895976Y-77582380D02*
X112705500Y-77582380D01*
X112610261Y-77534761D01*
X112562642Y-77487142D01*
X112467404Y-77344285D01*
X112419785Y-77153809D01*
X112419785Y-76772857D01*
X112467404Y-76677619D01*
X112515023Y-76630000D01*
X112610261Y-76582380D01*
X112800738Y-76582380D01*
X112895976Y-76630000D01*
X112943595Y-76677619D01*
X112991214Y-76772857D01*
X112991214Y-77010952D01*
X112943595Y-77106190D01*
X112895976Y-77153809D01*
X112800738Y-77201428D01*
X112610261Y-77201428D01*
X112515023Y-77153809D01*
X112467404Y-77106190D01*
X112419785Y-77010952D01*
%TO.C,C13*%
X108715357Y-108013392D02*
X108762976Y-108061011D01*
X108905833Y-108108630D01*
X109001071Y-108108630D01*
X109143928Y-108061011D01*
X109239166Y-107965773D01*
X109286785Y-107870535D01*
X109334404Y-107680059D01*
X109334404Y-107537202D01*
X109286785Y-107346726D01*
X109239166Y-107251488D01*
X109143928Y-107156250D01*
X109001071Y-107108630D01*
X108905833Y-107108630D01*
X108762976Y-107156250D01*
X108715357Y-107203869D01*
X107762976Y-108108630D02*
X108334404Y-108108630D01*
X108048690Y-108108630D02*
X108048690Y-107108630D01*
X108143928Y-107251488D01*
X108239166Y-107346726D01*
X108334404Y-107394345D01*
X107429642Y-107108630D02*
X106810595Y-107108630D01*
X107143928Y-107489583D01*
X107001071Y-107489583D01*
X106905833Y-107537202D01*
X106858214Y-107584821D01*
X106810595Y-107680059D01*
X106810595Y-107918154D01*
X106858214Y-108013392D01*
X106905833Y-108061011D01*
X107001071Y-108108630D01*
X107286785Y-108108630D01*
X107382023Y-108061011D01*
X107429642Y-108013392D01*
%TO.C,Cvdda_1*%
X131607142Y-91903785D02*
X131654761Y-91856166D01*
X131702380Y-91713309D01*
X131702380Y-91618071D01*
X131654761Y-91475214D01*
X131559523Y-91379976D01*
X131464285Y-91332357D01*
X131273809Y-91284738D01*
X131130952Y-91284738D01*
X130940476Y-91332357D01*
X130845238Y-91379976D01*
X130750000Y-91475214D01*
X130702380Y-91618071D01*
X130702380Y-91713309D01*
X130750000Y-91856166D01*
X130797619Y-91903785D01*
X131035714Y-92237119D02*
X131702380Y-92475214D01*
X131035714Y-92713309D01*
X131702380Y-93522833D02*
X130702380Y-93522833D01*
X131654761Y-93522833D02*
X131702380Y-93427595D01*
X131702380Y-93237119D01*
X131654761Y-93141880D01*
X131607142Y-93094261D01*
X131511904Y-93046642D01*
X131226190Y-93046642D01*
X131130952Y-93094261D01*
X131083333Y-93141880D01*
X131035714Y-93237119D01*
X131035714Y-93427595D01*
X131083333Y-93522833D01*
X131702380Y-94427595D02*
X130702380Y-94427595D01*
X131654761Y-94427595D02*
X131702380Y-94332357D01*
X131702380Y-94141880D01*
X131654761Y-94046642D01*
X131607142Y-93999023D01*
X131511904Y-93951404D01*
X131226190Y-93951404D01*
X131130952Y-93999023D01*
X131083333Y-94046642D01*
X131035714Y-94141880D01*
X131035714Y-94332357D01*
X131083333Y-94427595D01*
X131702380Y-95332357D02*
X131178571Y-95332357D01*
X131083333Y-95284738D01*
X131035714Y-95189500D01*
X131035714Y-94999023D01*
X131083333Y-94903785D01*
X131654761Y-95332357D02*
X131702380Y-95237119D01*
X131702380Y-94999023D01*
X131654761Y-94903785D01*
X131559523Y-94856166D01*
X131464285Y-94856166D01*
X131369047Y-94903785D01*
X131321428Y-94999023D01*
X131321428Y-95237119D01*
X131273809Y-95332357D01*
X131797619Y-95570452D02*
X131797619Y-96332357D01*
X131702380Y-97094261D02*
X131702380Y-96522833D01*
X131702380Y-96808547D02*
X130702380Y-96808547D01*
X130845238Y-96713309D01*
X130940476Y-96618071D01*
X130988095Y-96522833D01*
D11*
%TO.C,FB1*%
X131879285Y-102131666D02*
X131879285Y-101708333D01*
X132544523Y-101708333D02*
X131274523Y-101708333D01*
X131274523Y-102313095D01*
X131879285Y-103220238D02*
X131939761Y-103401666D01*
X132000238Y-103462142D01*
X132121190Y-103522619D01*
X132302619Y-103522619D01*
X132423571Y-103462142D01*
X132484047Y-103401666D01*
X132544523Y-103280714D01*
X132544523Y-102796904D01*
X131274523Y-102796904D01*
X131274523Y-103220238D01*
X131335000Y-103341190D01*
X131395476Y-103401666D01*
X131516428Y-103462142D01*
X131637380Y-103462142D01*
X131758333Y-103401666D01*
X131818809Y-103341190D01*
X131879285Y-103220238D01*
X131879285Y-102796904D01*
X132544523Y-104732142D02*
X132544523Y-104006428D01*
X132544523Y-104369285D02*
X131274523Y-104369285D01*
X131455952Y-104248333D01*
X131576904Y-104127380D01*
X131637380Y-104006428D01*
D10*
%TO.C,R25*%
X106602380Y-105157142D02*
X106126190Y-104823809D01*
X106602380Y-104585714D02*
X105602380Y-104585714D01*
X105602380Y-104966666D01*
X105650000Y-105061904D01*
X105697619Y-105109523D01*
X105792857Y-105157142D01*
X105935714Y-105157142D01*
X106030952Y-105109523D01*
X106078571Y-105061904D01*
X106126190Y-104966666D01*
X106126190Y-104585714D01*
X105697619Y-105538095D02*
X105650000Y-105585714D01*
X105602380Y-105680952D01*
X105602380Y-105919047D01*
X105650000Y-106014285D01*
X105697619Y-106061904D01*
X105792857Y-106109523D01*
X105888095Y-106109523D01*
X106030952Y-106061904D01*
X106602380Y-105490476D01*
X106602380Y-106109523D01*
X105602380Y-107014285D02*
X105602380Y-106538095D01*
X106078571Y-106490476D01*
X106030952Y-106538095D01*
X105983333Y-106633333D01*
X105983333Y-106871428D01*
X106030952Y-106966666D01*
X106078571Y-107014285D01*
X106173809Y-107061904D01*
X106411904Y-107061904D01*
X106507142Y-107014285D01*
X106554761Y-106966666D01*
X106602380Y-106871428D01*
X106602380Y-106633333D01*
X106554761Y-106538095D01*
X106507142Y-106490476D01*
%TO.C,R54*%
X108717857Y-99472380D02*
X109051190Y-98996190D01*
X109289285Y-99472380D02*
X109289285Y-98472380D01*
X108908333Y-98472380D01*
X108813095Y-98520000D01*
X108765476Y-98567619D01*
X108717857Y-98662857D01*
X108717857Y-98805714D01*
X108765476Y-98900952D01*
X108813095Y-98948571D01*
X108908333Y-98996190D01*
X109289285Y-98996190D01*
X107813095Y-98472380D02*
X108289285Y-98472380D01*
X108336904Y-98948571D01*
X108289285Y-98900952D01*
X108194047Y-98853333D01*
X107955952Y-98853333D01*
X107860714Y-98900952D01*
X107813095Y-98948571D01*
X107765476Y-99043809D01*
X107765476Y-99281904D01*
X107813095Y-99377142D01*
X107860714Y-99424761D01*
X107955952Y-99472380D01*
X108194047Y-99472380D01*
X108289285Y-99424761D01*
X108336904Y-99377142D01*
X106908333Y-98805714D02*
X106908333Y-99472380D01*
X107146428Y-98424761D02*
X107384523Y-99139047D01*
X106765476Y-99139047D01*
%TO.C,C20*%
X113862857Y-113907142D02*
X113910476Y-113954761D01*
X114053333Y-114002380D01*
X114148571Y-114002380D01*
X114291428Y-113954761D01*
X114386666Y-113859523D01*
X114434285Y-113764285D01*
X114481904Y-113573809D01*
X114481904Y-113430952D01*
X114434285Y-113240476D01*
X114386666Y-113145238D01*
X114291428Y-113050000D01*
X114148571Y-113002380D01*
X114053333Y-113002380D01*
X113910476Y-113050000D01*
X113862857Y-113097619D01*
X113481904Y-113097619D02*
X113434285Y-113050000D01*
X113339047Y-113002380D01*
X113100952Y-113002380D01*
X113005714Y-113050000D01*
X112958095Y-113097619D01*
X112910476Y-113192857D01*
X112910476Y-113288095D01*
X112958095Y-113430952D01*
X113529523Y-114002380D01*
X112910476Y-114002380D01*
X112291428Y-113002380D02*
X112196190Y-113002380D01*
X112100952Y-113050000D01*
X112053333Y-113097619D01*
X112005714Y-113192857D01*
X111958095Y-113383333D01*
X111958095Y-113621428D01*
X112005714Y-113811904D01*
X112053333Y-113907142D01*
X112100952Y-113954761D01*
X112196190Y-114002380D01*
X112291428Y-114002380D01*
X112386666Y-113954761D01*
X112434285Y-113907142D01*
X112481904Y-113811904D01*
X112529523Y-113621428D01*
X112529523Y-113383333D01*
X112481904Y-113192857D01*
X112434285Y-113097619D01*
X112386666Y-113050000D01*
X112291428Y-113002380D01*
%TO.C,Cvddio_2*%
X135373809Y-94206642D02*
X135421428Y-94254261D01*
X135564285Y-94301880D01*
X135659523Y-94301880D01*
X135802380Y-94254261D01*
X135897619Y-94159023D01*
X135945238Y-94063785D01*
X135992857Y-93873309D01*
X135992857Y-93730452D01*
X135945238Y-93539976D01*
X135897619Y-93444738D01*
X135802380Y-93349500D01*
X135659523Y-93301880D01*
X135564285Y-93301880D01*
X135421428Y-93349500D01*
X135373809Y-93397119D01*
X135040476Y-93635214D02*
X134802380Y-94301880D01*
X134564285Y-93635214D01*
X133754761Y-94301880D02*
X133754761Y-93301880D01*
X133754761Y-94254261D02*
X133850000Y-94301880D01*
X134040476Y-94301880D01*
X134135714Y-94254261D01*
X134183333Y-94206642D01*
X134230952Y-94111404D01*
X134230952Y-93825690D01*
X134183333Y-93730452D01*
X134135714Y-93682833D01*
X134040476Y-93635214D01*
X133850000Y-93635214D01*
X133754761Y-93682833D01*
X132850000Y-94301880D02*
X132850000Y-93301880D01*
X132850000Y-94254261D02*
X132945238Y-94301880D01*
X133135714Y-94301880D01*
X133230952Y-94254261D01*
X133278571Y-94206642D01*
X133326190Y-94111404D01*
X133326190Y-93825690D01*
X133278571Y-93730452D01*
X133230952Y-93682833D01*
X133135714Y-93635214D01*
X132945238Y-93635214D01*
X132850000Y-93682833D01*
X132373809Y-94301880D02*
X132373809Y-93635214D01*
X132373809Y-93301880D02*
X132421428Y-93349500D01*
X132373809Y-93397119D01*
X132326190Y-93349500D01*
X132373809Y-93301880D01*
X132373809Y-93397119D01*
X131754761Y-94301880D02*
X131850000Y-94254261D01*
X131897619Y-94206642D01*
X131945238Y-94111404D01*
X131945238Y-93825690D01*
X131897619Y-93730452D01*
X131850000Y-93682833D01*
X131754761Y-93635214D01*
X131611904Y-93635214D01*
X131516666Y-93682833D01*
X131469047Y-93730452D01*
X131421428Y-93825690D01*
X131421428Y-94111404D01*
X131469047Y-94206642D01*
X131516666Y-94254261D01*
X131611904Y-94301880D01*
X131754761Y-94301880D01*
X131230952Y-94397119D02*
X130469047Y-94397119D01*
X130278571Y-93397119D02*
X130230952Y-93349500D01*
X130135714Y-93301880D01*
X129897619Y-93301880D01*
X129802380Y-93349500D01*
X129754761Y-93397119D01*
X129707142Y-93492357D01*
X129707142Y-93587595D01*
X129754761Y-93730452D01*
X130326190Y-94301880D01*
X129707142Y-94301880D01*
%TO.C,R63*%
X113780357Y-93402380D02*
X114113690Y-92926190D01*
X114351785Y-93402380D02*
X114351785Y-92402380D01*
X113970833Y-92402380D01*
X113875595Y-92450000D01*
X113827976Y-92497619D01*
X113780357Y-92592857D01*
X113780357Y-92735714D01*
X113827976Y-92830952D01*
X113875595Y-92878571D01*
X113970833Y-92926190D01*
X114351785Y-92926190D01*
X112923214Y-92402380D02*
X113113690Y-92402380D01*
X113208928Y-92450000D01*
X113256547Y-92497619D01*
X113351785Y-92640476D01*
X113399404Y-92830952D01*
X113399404Y-93211904D01*
X113351785Y-93307142D01*
X113304166Y-93354761D01*
X113208928Y-93402380D01*
X113018452Y-93402380D01*
X112923214Y-93354761D01*
X112875595Y-93307142D01*
X112827976Y-93211904D01*
X112827976Y-92973809D01*
X112875595Y-92878571D01*
X112923214Y-92830952D01*
X113018452Y-92783333D01*
X113208928Y-92783333D01*
X113304166Y-92830952D01*
X113351785Y-92878571D01*
X113399404Y-92973809D01*
X112494642Y-92402380D02*
X111875595Y-92402380D01*
X112208928Y-92783333D01*
X112066071Y-92783333D01*
X111970833Y-92830952D01*
X111923214Y-92878571D01*
X111875595Y-92973809D01*
X111875595Y-93211904D01*
X111923214Y-93307142D01*
X111970833Y-93354761D01*
X112066071Y-93402380D01*
X112351785Y-93402380D01*
X112447023Y-93354761D01*
X112494642Y-93307142D01*
%TO.C,R36*%
X108783357Y-78858630D02*
X109116690Y-78382440D01*
X109354785Y-78858630D02*
X109354785Y-77858630D01*
X108973833Y-77858630D01*
X108878595Y-77906250D01*
X108830976Y-77953869D01*
X108783357Y-78049107D01*
X108783357Y-78191964D01*
X108830976Y-78287202D01*
X108878595Y-78334821D01*
X108973833Y-78382440D01*
X109354785Y-78382440D01*
X108450023Y-77858630D02*
X107830976Y-77858630D01*
X108164309Y-78239583D01*
X108021452Y-78239583D01*
X107926214Y-78287202D01*
X107878595Y-78334821D01*
X107830976Y-78430059D01*
X107830976Y-78668154D01*
X107878595Y-78763392D01*
X107926214Y-78811011D01*
X108021452Y-78858630D01*
X108307166Y-78858630D01*
X108402404Y-78811011D01*
X108450023Y-78763392D01*
X106973833Y-77858630D02*
X107164309Y-77858630D01*
X107259547Y-77906250D01*
X107307166Y-77953869D01*
X107402404Y-78096726D01*
X107450023Y-78287202D01*
X107450023Y-78668154D01*
X107402404Y-78763392D01*
X107354785Y-78811011D01*
X107259547Y-78858630D01*
X107069071Y-78858630D01*
X106973833Y-78811011D01*
X106926214Y-78763392D01*
X106878595Y-78668154D01*
X106878595Y-78430059D01*
X106926214Y-78334821D01*
X106973833Y-78287202D01*
X107069071Y-78239583D01*
X107259547Y-78239583D01*
X107354785Y-78287202D01*
X107402404Y-78334821D01*
X107450023Y-78430059D01*
%TO.C,R7*%
X106542880Y-85203333D02*
X106066690Y-84870000D01*
X106542880Y-84631904D02*
X105542880Y-84631904D01*
X105542880Y-85012857D01*
X105590500Y-85108095D01*
X105638119Y-85155714D01*
X105733357Y-85203333D01*
X105876214Y-85203333D01*
X105971452Y-85155714D01*
X106019071Y-85108095D01*
X106066690Y-85012857D01*
X106066690Y-84631904D01*
X105542880Y-85536666D02*
X105542880Y-86203333D01*
X106542880Y-85774761D01*
%TO.C,C30*%
X131562857Y-113457142D02*
X131610476Y-113504761D01*
X131753333Y-113552380D01*
X131848571Y-113552380D01*
X131991428Y-113504761D01*
X132086666Y-113409523D01*
X132134285Y-113314285D01*
X132181904Y-113123809D01*
X132181904Y-112980952D01*
X132134285Y-112790476D01*
X132086666Y-112695238D01*
X131991428Y-112600000D01*
X131848571Y-112552380D01*
X131753333Y-112552380D01*
X131610476Y-112600000D01*
X131562857Y-112647619D01*
X131229523Y-112552380D02*
X130610476Y-112552380D01*
X130943809Y-112933333D01*
X130800952Y-112933333D01*
X130705714Y-112980952D01*
X130658095Y-113028571D01*
X130610476Y-113123809D01*
X130610476Y-113361904D01*
X130658095Y-113457142D01*
X130705714Y-113504761D01*
X130800952Y-113552380D01*
X131086666Y-113552380D01*
X131181904Y-113504761D01*
X131229523Y-113457142D01*
X129991428Y-112552380D02*
X129896190Y-112552380D01*
X129800952Y-112600000D01*
X129753333Y-112647619D01*
X129705714Y-112742857D01*
X129658095Y-112933333D01*
X129658095Y-113171428D01*
X129705714Y-113361904D01*
X129753333Y-113457142D01*
X129800952Y-113504761D01*
X129896190Y-113552380D01*
X129991428Y-113552380D01*
X130086666Y-113504761D01*
X130134285Y-113457142D01*
X130181904Y-113361904D01*
X130229523Y-113171428D01*
X130229523Y-112933333D01*
X130181904Y-112742857D01*
X130134285Y-112647619D01*
X130086666Y-112600000D01*
X129991428Y-112552380D01*
%TO.C,R64*%
X113872857Y-107992380D02*
X114206190Y-107516190D01*
X114444285Y-107992380D02*
X114444285Y-106992380D01*
X114063333Y-106992380D01*
X113968095Y-107040000D01*
X113920476Y-107087619D01*
X113872857Y-107182857D01*
X113872857Y-107325714D01*
X113920476Y-107420952D01*
X113968095Y-107468571D01*
X114063333Y-107516190D01*
X114444285Y-107516190D01*
X113015714Y-106992380D02*
X113206190Y-106992380D01*
X113301428Y-107040000D01*
X113349047Y-107087619D01*
X113444285Y-107230476D01*
X113491904Y-107420952D01*
X113491904Y-107801904D01*
X113444285Y-107897142D01*
X113396666Y-107944761D01*
X113301428Y-107992380D01*
X113110952Y-107992380D01*
X113015714Y-107944761D01*
X112968095Y-107897142D01*
X112920476Y-107801904D01*
X112920476Y-107563809D01*
X112968095Y-107468571D01*
X113015714Y-107420952D01*
X113110952Y-107373333D01*
X113301428Y-107373333D01*
X113396666Y-107420952D01*
X113444285Y-107468571D01*
X113491904Y-107563809D01*
X112063333Y-107325714D02*
X112063333Y-107992380D01*
X112301428Y-106944761D02*
X112539523Y-107659047D01*
X111920476Y-107659047D01*
%TO.C,R28*%
X102982380Y-95107142D02*
X102506190Y-94773809D01*
X102982380Y-94535714D02*
X101982380Y-94535714D01*
X101982380Y-94916666D01*
X102030000Y-95011904D01*
X102077619Y-95059523D01*
X102172857Y-95107142D01*
X102315714Y-95107142D01*
X102410952Y-95059523D01*
X102458571Y-95011904D01*
X102506190Y-94916666D01*
X102506190Y-94535714D01*
X102077619Y-95488095D02*
X102030000Y-95535714D01*
X101982380Y-95630952D01*
X101982380Y-95869047D01*
X102030000Y-95964285D01*
X102077619Y-96011904D01*
X102172857Y-96059523D01*
X102268095Y-96059523D01*
X102410952Y-96011904D01*
X102982380Y-95440476D01*
X102982380Y-96059523D01*
X102410952Y-96630952D02*
X102363333Y-96535714D01*
X102315714Y-96488095D01*
X102220476Y-96440476D01*
X102172857Y-96440476D01*
X102077619Y-96488095D01*
X102030000Y-96535714D01*
X101982380Y-96630952D01*
X101982380Y-96821428D01*
X102030000Y-96916666D01*
X102077619Y-96964285D01*
X102172857Y-97011904D01*
X102220476Y-97011904D01*
X102315714Y-96964285D01*
X102363333Y-96916666D01*
X102410952Y-96821428D01*
X102410952Y-96630952D01*
X102458571Y-96535714D01*
X102506190Y-96488095D01*
X102601428Y-96440476D01*
X102791904Y-96440476D01*
X102887142Y-96488095D01*
X102934761Y-96535714D01*
X102982380Y-96630952D01*
X102982380Y-96821428D01*
X102934761Y-96916666D01*
X102887142Y-96964285D01*
X102791904Y-97011904D01*
X102601428Y-97011904D01*
X102506190Y-96964285D01*
X102458571Y-96916666D01*
X102410952Y-96821428D01*
%TO.C,R19*%
X102992380Y-100097142D02*
X102516190Y-99763809D01*
X102992380Y-99525714D02*
X101992380Y-99525714D01*
X101992380Y-99906666D01*
X102040000Y-100001904D01*
X102087619Y-100049523D01*
X102182857Y-100097142D01*
X102325714Y-100097142D01*
X102420952Y-100049523D01*
X102468571Y-100001904D01*
X102516190Y-99906666D01*
X102516190Y-99525714D01*
X102992380Y-101049523D02*
X102992380Y-100478095D01*
X102992380Y-100763809D02*
X101992380Y-100763809D01*
X102135238Y-100668571D01*
X102230476Y-100573333D01*
X102278095Y-100478095D01*
X102992380Y-101525714D02*
X102992380Y-101716190D01*
X102944761Y-101811428D01*
X102897142Y-101859047D01*
X102754285Y-101954285D01*
X102563809Y-102001904D01*
X102182857Y-102001904D01*
X102087619Y-101954285D01*
X102040000Y-101906666D01*
X101992380Y-101811428D01*
X101992380Y-101620952D01*
X102040000Y-101525714D01*
X102087619Y-101478095D01*
X102182857Y-101430476D01*
X102420952Y-101430476D01*
X102516190Y-101478095D01*
X102563809Y-101525714D01*
X102611428Y-101620952D01*
X102611428Y-101811428D01*
X102563809Y-101906666D01*
X102516190Y-101954285D01*
X102420952Y-102001904D01*
%TO.C,C7*%
X113174666Y-84847142D02*
X113222285Y-84894761D01*
X113365142Y-84942380D01*
X113460380Y-84942380D01*
X113603238Y-84894761D01*
X113698476Y-84799523D01*
X113746095Y-84704285D01*
X113793714Y-84513809D01*
X113793714Y-84370952D01*
X113746095Y-84180476D01*
X113698476Y-84085238D01*
X113603238Y-83990000D01*
X113460380Y-83942380D01*
X113365142Y-83942380D01*
X113222285Y-83990000D01*
X113174666Y-84037619D01*
X112841333Y-83942380D02*
X112174666Y-83942380D01*
X112603238Y-84942380D01*
%TO.C,R60*%
X113860857Y-75206130D02*
X114194190Y-74729940D01*
X114432285Y-75206130D02*
X114432285Y-74206130D01*
X114051333Y-74206130D01*
X113956095Y-74253750D01*
X113908476Y-74301369D01*
X113860857Y-74396607D01*
X113860857Y-74539464D01*
X113908476Y-74634702D01*
X113956095Y-74682321D01*
X114051333Y-74729940D01*
X114432285Y-74729940D01*
X113003714Y-74206130D02*
X113194190Y-74206130D01*
X113289428Y-74253750D01*
X113337047Y-74301369D01*
X113432285Y-74444226D01*
X113479904Y-74634702D01*
X113479904Y-75015654D01*
X113432285Y-75110892D01*
X113384666Y-75158511D01*
X113289428Y-75206130D01*
X113098952Y-75206130D01*
X113003714Y-75158511D01*
X112956095Y-75110892D01*
X112908476Y-75015654D01*
X112908476Y-74777559D01*
X112956095Y-74682321D01*
X113003714Y-74634702D01*
X113098952Y-74587083D01*
X113289428Y-74587083D01*
X113384666Y-74634702D01*
X113432285Y-74682321D01*
X113479904Y-74777559D01*
X112289428Y-74206130D02*
X112194190Y-74206130D01*
X112098952Y-74253750D01*
X112051333Y-74301369D01*
X112003714Y-74396607D01*
X111956095Y-74587083D01*
X111956095Y-74825178D01*
X112003714Y-75015654D01*
X112051333Y-75110892D01*
X112098952Y-75158511D01*
X112194190Y-75206130D01*
X112289428Y-75206130D01*
X112384666Y-75158511D01*
X112432285Y-75110892D01*
X112479904Y-75015654D01*
X112527523Y-74825178D01*
X112527523Y-74587083D01*
X112479904Y-74396607D01*
X112432285Y-74301369D01*
X112384666Y-74253750D01*
X112289428Y-74206130D01*
%TO.C,R61*%
X119162380Y-110017142D02*
X118686190Y-109683809D01*
X119162380Y-109445714D02*
X118162380Y-109445714D01*
X118162380Y-109826666D01*
X118210000Y-109921904D01*
X118257619Y-109969523D01*
X118352857Y-110017142D01*
X118495714Y-110017142D01*
X118590952Y-109969523D01*
X118638571Y-109921904D01*
X118686190Y-109826666D01*
X118686190Y-109445714D01*
X118162380Y-110874285D02*
X118162380Y-110683809D01*
X118210000Y-110588571D01*
X118257619Y-110540952D01*
X118400476Y-110445714D01*
X118590952Y-110398095D01*
X118971904Y-110398095D01*
X119067142Y-110445714D01*
X119114761Y-110493333D01*
X119162380Y-110588571D01*
X119162380Y-110779047D01*
X119114761Y-110874285D01*
X119067142Y-110921904D01*
X118971904Y-110969523D01*
X118733809Y-110969523D01*
X118638571Y-110921904D01*
X118590952Y-110874285D01*
X118543333Y-110779047D01*
X118543333Y-110588571D01*
X118590952Y-110493333D01*
X118638571Y-110445714D01*
X118733809Y-110398095D01*
X119162380Y-111921904D02*
X119162380Y-111350476D01*
X119162380Y-111636190D02*
X118162380Y-111636190D01*
X118305238Y-111540952D01*
X118400476Y-111445714D01*
X118448095Y-111350476D01*
%TO.C,Cvddio_1*%
X140977142Y-85215690D02*
X141024761Y-85168071D01*
X141072380Y-85025214D01*
X141072380Y-84929976D01*
X141024761Y-84787119D01*
X140929523Y-84691880D01*
X140834285Y-84644261D01*
X140643809Y-84596642D01*
X140500952Y-84596642D01*
X140310476Y-84644261D01*
X140215238Y-84691880D01*
X140120000Y-84787119D01*
X140072380Y-84929976D01*
X140072380Y-85025214D01*
X140120000Y-85168071D01*
X140167619Y-85215690D01*
X140405714Y-85549023D02*
X141072380Y-85787119D01*
X140405714Y-86025214D01*
X141072380Y-86834738D02*
X140072380Y-86834738D01*
X141024761Y-86834738D02*
X141072380Y-86739500D01*
X141072380Y-86549023D01*
X141024761Y-86453785D01*
X140977142Y-86406166D01*
X140881904Y-86358547D01*
X140596190Y-86358547D01*
X140500952Y-86406166D01*
X140453333Y-86453785D01*
X140405714Y-86549023D01*
X140405714Y-86739500D01*
X140453333Y-86834738D01*
X141072380Y-87739500D02*
X140072380Y-87739500D01*
X141024761Y-87739500D02*
X141072380Y-87644261D01*
X141072380Y-87453785D01*
X141024761Y-87358547D01*
X140977142Y-87310928D01*
X140881904Y-87263309D01*
X140596190Y-87263309D01*
X140500952Y-87310928D01*
X140453333Y-87358547D01*
X140405714Y-87453785D01*
X140405714Y-87644261D01*
X140453333Y-87739500D01*
X141072380Y-88215690D02*
X140405714Y-88215690D01*
X140072380Y-88215690D02*
X140120000Y-88168071D01*
X140167619Y-88215690D01*
X140120000Y-88263309D01*
X140072380Y-88215690D01*
X140167619Y-88215690D01*
X141072380Y-88834738D02*
X141024761Y-88739500D01*
X140977142Y-88691880D01*
X140881904Y-88644261D01*
X140596190Y-88644261D01*
X140500952Y-88691880D01*
X140453333Y-88739500D01*
X140405714Y-88834738D01*
X140405714Y-88977595D01*
X140453333Y-89072833D01*
X140500952Y-89120452D01*
X140596190Y-89168071D01*
X140881904Y-89168071D01*
X140977142Y-89120452D01*
X141024761Y-89072833D01*
X141072380Y-88977595D01*
X141072380Y-88834738D01*
X141167619Y-89358547D02*
X141167619Y-90120452D01*
X141072380Y-90882357D02*
X141072380Y-90310928D01*
X141072380Y-90596642D02*
X140072380Y-90596642D01*
X140215238Y-90501404D01*
X140310476Y-90406166D01*
X140358095Y-90310928D01*
%TO.C,C29*%
X121097142Y-99617142D02*
X121144761Y-99569523D01*
X121192380Y-99426666D01*
X121192380Y-99331428D01*
X121144761Y-99188571D01*
X121049523Y-99093333D01*
X120954285Y-99045714D01*
X120763809Y-98998095D01*
X120620952Y-98998095D01*
X120430476Y-99045714D01*
X120335238Y-99093333D01*
X120240000Y-99188571D01*
X120192380Y-99331428D01*
X120192380Y-99426666D01*
X120240000Y-99569523D01*
X120287619Y-99617142D01*
X120287619Y-99998095D02*
X120240000Y-100045714D01*
X120192380Y-100140952D01*
X120192380Y-100379047D01*
X120240000Y-100474285D01*
X120287619Y-100521904D01*
X120382857Y-100569523D01*
X120478095Y-100569523D01*
X120620952Y-100521904D01*
X121192380Y-99950476D01*
X121192380Y-100569523D01*
X121192380Y-101045714D02*
X121192380Y-101236190D01*
X121144761Y-101331428D01*
X121097142Y-101379047D01*
X120954285Y-101474285D01*
X120763809Y-101521904D01*
X120382857Y-101521904D01*
X120287619Y-101474285D01*
X120240000Y-101426666D01*
X120192380Y-101331428D01*
X120192380Y-101140952D01*
X120240000Y-101045714D01*
X120287619Y-100998095D01*
X120382857Y-100950476D01*
X120620952Y-100950476D01*
X120716190Y-100998095D01*
X120763809Y-101045714D01*
X120811428Y-101140952D01*
X120811428Y-101331428D01*
X120763809Y-101426666D01*
X120716190Y-101474285D01*
X120620952Y-101521904D01*
%TO.C,C19*%
X125067142Y-95827142D02*
X125114761Y-95779523D01*
X125162380Y-95636666D01*
X125162380Y-95541428D01*
X125114761Y-95398571D01*
X125019523Y-95303333D01*
X124924285Y-95255714D01*
X124733809Y-95208095D01*
X124590952Y-95208095D01*
X124400476Y-95255714D01*
X124305238Y-95303333D01*
X124210000Y-95398571D01*
X124162380Y-95541428D01*
X124162380Y-95636666D01*
X124210000Y-95779523D01*
X124257619Y-95827142D01*
X125162380Y-96779523D02*
X125162380Y-96208095D01*
X125162380Y-96493809D02*
X124162380Y-96493809D01*
X124305238Y-96398571D01*
X124400476Y-96303333D01*
X124448095Y-96208095D01*
X125162380Y-97255714D02*
X125162380Y-97446190D01*
X125114761Y-97541428D01*
X125067142Y-97589047D01*
X124924285Y-97684285D01*
X124733809Y-97731904D01*
X124352857Y-97731904D01*
X124257619Y-97684285D01*
X124210000Y-97636666D01*
X124162380Y-97541428D01*
X124162380Y-97350952D01*
X124210000Y-97255714D01*
X124257619Y-97208095D01*
X124352857Y-97160476D01*
X124590952Y-97160476D01*
X124686190Y-97208095D01*
X124733809Y-97255714D01*
X124781428Y-97350952D01*
X124781428Y-97541428D01*
X124733809Y-97636666D01*
X124686190Y-97684285D01*
X124590952Y-97731904D01*
%TO.C,R4*%
X123686666Y-117002380D02*
X124020000Y-116526190D01*
X124258095Y-117002380D02*
X124258095Y-116002380D01*
X123877142Y-116002380D01*
X123781904Y-116050000D01*
X123734285Y-116097619D01*
X123686666Y-116192857D01*
X123686666Y-116335714D01*
X123734285Y-116430952D01*
X123781904Y-116478571D01*
X123877142Y-116526190D01*
X124258095Y-116526190D01*
X122829523Y-116335714D02*
X122829523Y-117002380D01*
X123067619Y-115954761D02*
X123305714Y-116669047D01*
X122686666Y-116669047D01*
%TO.C,C28*%
X124242857Y-121847142D02*
X124290476Y-121894761D01*
X124433333Y-121942380D01*
X124528571Y-121942380D01*
X124671428Y-121894761D01*
X124766666Y-121799523D01*
X124814285Y-121704285D01*
X124861904Y-121513809D01*
X124861904Y-121370952D01*
X124814285Y-121180476D01*
X124766666Y-121085238D01*
X124671428Y-120990000D01*
X124528571Y-120942380D01*
X124433333Y-120942380D01*
X124290476Y-120990000D01*
X124242857Y-121037619D01*
X123861904Y-121037619D02*
X123814285Y-120990000D01*
X123719047Y-120942380D01*
X123480952Y-120942380D01*
X123385714Y-120990000D01*
X123338095Y-121037619D01*
X123290476Y-121132857D01*
X123290476Y-121228095D01*
X123338095Y-121370952D01*
X123909523Y-121942380D01*
X123290476Y-121942380D01*
X122719047Y-121370952D02*
X122814285Y-121323333D01*
X122861904Y-121275714D01*
X122909523Y-121180476D01*
X122909523Y-121132857D01*
X122861904Y-121037619D01*
X122814285Y-120990000D01*
X122719047Y-120942380D01*
X122528571Y-120942380D01*
X122433333Y-120990000D01*
X122385714Y-121037619D01*
X122338095Y-121132857D01*
X122338095Y-121180476D01*
X122385714Y-121275714D01*
X122433333Y-121323333D01*
X122528571Y-121370952D01*
X122719047Y-121370952D01*
X122814285Y-121418571D01*
X122861904Y-121466190D01*
X122909523Y-121561428D01*
X122909523Y-121751904D01*
X122861904Y-121847142D01*
X122814285Y-121894761D01*
X122719047Y-121942380D01*
X122528571Y-121942380D01*
X122433333Y-121894761D01*
X122385714Y-121847142D01*
X122338095Y-121751904D01*
X122338095Y-121561428D01*
X122385714Y-121466190D01*
X122433333Y-121418571D01*
X122528571Y-121370952D01*
D11*
%TO.C,LDO1*%
X123794523Y-103488095D02*
X123794523Y-102883333D01*
X122524523Y-102883333D01*
X123794523Y-103911428D02*
X122524523Y-103911428D01*
X122524523Y-104213809D01*
X122585000Y-104395238D01*
X122705952Y-104516190D01*
X122826904Y-104576666D01*
X123068809Y-104637142D01*
X123250238Y-104637142D01*
X123492142Y-104576666D01*
X123613095Y-104516190D01*
X123734047Y-104395238D01*
X123794523Y-104213809D01*
X123794523Y-103911428D01*
X122524523Y-105423333D02*
X122524523Y-105665238D01*
X122585000Y-105786190D01*
X122705952Y-105907142D01*
X122947857Y-105967619D01*
X123371190Y-105967619D01*
X123613095Y-105907142D01*
X123734047Y-105786190D01*
X123794523Y-105665238D01*
X123794523Y-105423333D01*
X123734047Y-105302380D01*
X123613095Y-105181428D01*
X123371190Y-105120952D01*
X122947857Y-105120952D01*
X122705952Y-105181428D01*
X122585000Y-105302380D01*
X122524523Y-105423333D01*
X123794523Y-107177142D02*
X123794523Y-106451428D01*
X123794523Y-106814285D02*
X122524523Y-106814285D01*
X122705952Y-106693333D01*
X122826904Y-106572380D01*
X122887380Y-106451428D01*
D10*
%TO.C,R70*%
X113812857Y-109032380D02*
X114146190Y-108556190D01*
X114384285Y-109032380D02*
X114384285Y-108032380D01*
X114003333Y-108032380D01*
X113908095Y-108080000D01*
X113860476Y-108127619D01*
X113812857Y-108222857D01*
X113812857Y-108365714D01*
X113860476Y-108460952D01*
X113908095Y-108508571D01*
X114003333Y-108556190D01*
X114384285Y-108556190D01*
X113479523Y-108032380D02*
X112812857Y-108032380D01*
X113241428Y-109032380D01*
X112241428Y-108032380D02*
X112146190Y-108032380D01*
X112050952Y-108080000D01*
X112003333Y-108127619D01*
X111955714Y-108222857D01*
X111908095Y-108413333D01*
X111908095Y-108651428D01*
X111955714Y-108841904D01*
X112003333Y-108937142D01*
X112050952Y-108984761D01*
X112146190Y-109032380D01*
X112241428Y-109032380D01*
X112336666Y-108984761D01*
X112384285Y-108937142D01*
X112431904Y-108841904D01*
X112479523Y-108651428D01*
X112479523Y-108413333D01*
X112431904Y-108222857D01*
X112384285Y-108127619D01*
X112336666Y-108080000D01*
X112241428Y-108032380D01*
%TO.C,R69*%
X119119880Y-94897142D02*
X118643690Y-94563809D01*
X119119880Y-94325714D02*
X118119880Y-94325714D01*
X118119880Y-94706666D01*
X118167500Y-94801904D01*
X118215119Y-94849523D01*
X118310357Y-94897142D01*
X118453214Y-94897142D01*
X118548452Y-94849523D01*
X118596071Y-94801904D01*
X118643690Y-94706666D01*
X118643690Y-94325714D01*
X118119880Y-95754285D02*
X118119880Y-95563809D01*
X118167500Y-95468571D01*
X118215119Y-95420952D01*
X118357976Y-95325714D01*
X118548452Y-95278095D01*
X118929404Y-95278095D01*
X119024642Y-95325714D01*
X119072261Y-95373333D01*
X119119880Y-95468571D01*
X119119880Y-95659047D01*
X119072261Y-95754285D01*
X119024642Y-95801904D01*
X118929404Y-95849523D01*
X118691309Y-95849523D01*
X118596071Y-95801904D01*
X118548452Y-95754285D01*
X118500833Y-95659047D01*
X118500833Y-95468571D01*
X118548452Y-95373333D01*
X118596071Y-95325714D01*
X118691309Y-95278095D01*
X119119880Y-96325714D02*
X119119880Y-96516190D01*
X119072261Y-96611428D01*
X119024642Y-96659047D01*
X118881785Y-96754285D01*
X118691309Y-96801904D01*
X118310357Y-96801904D01*
X118215119Y-96754285D01*
X118167500Y-96706666D01*
X118119880Y-96611428D01*
X118119880Y-96420952D01*
X118167500Y-96325714D01*
X118215119Y-96278095D01*
X118310357Y-96230476D01*
X118548452Y-96230476D01*
X118643690Y-96278095D01*
X118691309Y-96325714D01*
X118738928Y-96420952D01*
X118738928Y-96611428D01*
X118691309Y-96706666D01*
X118643690Y-96754285D01*
X118548452Y-96801904D01*
%TO.C,C3*%
X108167166Y-88567142D02*
X108214785Y-88614761D01*
X108357642Y-88662380D01*
X108452880Y-88662380D01*
X108595738Y-88614761D01*
X108690976Y-88519523D01*
X108738595Y-88424285D01*
X108786214Y-88233809D01*
X108786214Y-88090952D01*
X108738595Y-87900476D01*
X108690976Y-87805238D01*
X108595738Y-87710000D01*
X108452880Y-87662380D01*
X108357642Y-87662380D01*
X108214785Y-87710000D01*
X108167166Y-87757619D01*
X107833833Y-87662380D02*
X107214785Y-87662380D01*
X107548119Y-88043333D01*
X107405261Y-88043333D01*
X107310023Y-88090952D01*
X107262404Y-88138571D01*
X107214785Y-88233809D01*
X107214785Y-88471904D01*
X107262404Y-88567142D01*
X107310023Y-88614761D01*
X107405261Y-88662380D01*
X107690976Y-88662380D01*
X107786214Y-88614761D01*
X107833833Y-88567142D01*
%TO.C,R56*%
X131082380Y-121628392D02*
X130606190Y-121295059D01*
X131082380Y-121056964D02*
X130082380Y-121056964D01*
X130082380Y-121437916D01*
X130130000Y-121533154D01*
X130177619Y-121580773D01*
X130272857Y-121628392D01*
X130415714Y-121628392D01*
X130510952Y-121580773D01*
X130558571Y-121533154D01*
X130606190Y-121437916D01*
X130606190Y-121056964D01*
X130082380Y-122533154D02*
X130082380Y-122056964D01*
X130558571Y-122009345D01*
X130510952Y-122056964D01*
X130463333Y-122152202D01*
X130463333Y-122390297D01*
X130510952Y-122485535D01*
X130558571Y-122533154D01*
X130653809Y-122580773D01*
X130891904Y-122580773D01*
X130987142Y-122533154D01*
X131034761Y-122485535D01*
X131082380Y-122390297D01*
X131082380Y-122152202D01*
X131034761Y-122056964D01*
X130987142Y-122009345D01*
X130082380Y-123437916D02*
X130082380Y-123247440D01*
X130130000Y-123152202D01*
X130177619Y-123104583D01*
X130320476Y-123009345D01*
X130510952Y-122961726D01*
X130891904Y-122961726D01*
X130987142Y-123009345D01*
X131034761Y-123056964D01*
X131082380Y-123152202D01*
X131082380Y-123342678D01*
X131034761Y-123437916D01*
X130987142Y-123485535D01*
X130891904Y-123533154D01*
X130653809Y-123533154D01*
X130558571Y-123485535D01*
X130510952Y-123437916D01*
X130463333Y-123342678D01*
X130463333Y-123152202D01*
X130510952Y-123056964D01*
X130558571Y-123009345D01*
X130653809Y-122961726D01*
%TO.C,R68*%
X113650857Y-86232380D02*
X113984190Y-85756190D01*
X114222285Y-86232380D02*
X114222285Y-85232380D01*
X113841333Y-85232380D01*
X113746095Y-85280000D01*
X113698476Y-85327619D01*
X113650857Y-85422857D01*
X113650857Y-85565714D01*
X113698476Y-85660952D01*
X113746095Y-85708571D01*
X113841333Y-85756190D01*
X114222285Y-85756190D01*
X112793714Y-85232380D02*
X112984190Y-85232380D01*
X113079428Y-85280000D01*
X113127047Y-85327619D01*
X113222285Y-85470476D01*
X113269904Y-85660952D01*
X113269904Y-86041904D01*
X113222285Y-86137142D01*
X113174666Y-86184761D01*
X113079428Y-86232380D01*
X112888952Y-86232380D01*
X112793714Y-86184761D01*
X112746095Y-86137142D01*
X112698476Y-86041904D01*
X112698476Y-85803809D01*
X112746095Y-85708571D01*
X112793714Y-85660952D01*
X112888952Y-85613333D01*
X113079428Y-85613333D01*
X113174666Y-85660952D01*
X113222285Y-85708571D01*
X113269904Y-85803809D01*
X112127047Y-85660952D02*
X112222285Y-85613333D01*
X112269904Y-85565714D01*
X112317523Y-85470476D01*
X112317523Y-85422857D01*
X112269904Y-85327619D01*
X112222285Y-85280000D01*
X112127047Y-85232380D01*
X111936571Y-85232380D01*
X111841333Y-85280000D01*
X111793714Y-85327619D01*
X111746095Y-85422857D01*
X111746095Y-85470476D01*
X111793714Y-85565714D01*
X111841333Y-85613333D01*
X111936571Y-85660952D01*
X112127047Y-85660952D01*
X112222285Y-85708571D01*
X112269904Y-85756190D01*
X112317523Y-85851428D01*
X112317523Y-86041904D01*
X112269904Y-86137142D01*
X112222285Y-86184761D01*
X112127047Y-86232380D01*
X111936571Y-86232380D01*
X111841333Y-86184761D01*
X111793714Y-86137142D01*
X111746095Y-86041904D01*
X111746095Y-85851428D01*
X111793714Y-85756190D01*
X111841333Y-85708571D01*
X111936571Y-85660952D01*
%TO.C,R33*%
X131462857Y-125462380D02*
X131796190Y-124986190D01*
X132034285Y-125462380D02*
X132034285Y-124462380D01*
X131653333Y-124462380D01*
X131558095Y-124510000D01*
X131510476Y-124557619D01*
X131462857Y-124652857D01*
X131462857Y-124795714D01*
X131510476Y-124890952D01*
X131558095Y-124938571D01*
X131653333Y-124986190D01*
X132034285Y-124986190D01*
X131129523Y-124462380D02*
X130510476Y-124462380D01*
X130843809Y-124843333D01*
X130700952Y-124843333D01*
X130605714Y-124890952D01*
X130558095Y-124938571D01*
X130510476Y-125033809D01*
X130510476Y-125271904D01*
X130558095Y-125367142D01*
X130605714Y-125414761D01*
X130700952Y-125462380D01*
X130986666Y-125462380D01*
X131081904Y-125414761D01*
X131129523Y-125367142D01*
X130177142Y-124462380D02*
X129558095Y-124462380D01*
X129891428Y-124843333D01*
X129748571Y-124843333D01*
X129653333Y-124890952D01*
X129605714Y-124938571D01*
X129558095Y-125033809D01*
X129558095Y-125271904D01*
X129605714Y-125367142D01*
X129653333Y-125414761D01*
X129748571Y-125462380D01*
X130034285Y-125462380D01*
X130129523Y-125414761D01*
X130177142Y-125367142D01*
%TO.C,C17*%
X132237142Y-98717142D02*
X132284761Y-98669523D01*
X132332380Y-98526666D01*
X132332380Y-98431428D01*
X132284761Y-98288571D01*
X132189523Y-98193333D01*
X132094285Y-98145714D01*
X131903809Y-98098095D01*
X131760952Y-98098095D01*
X131570476Y-98145714D01*
X131475238Y-98193333D01*
X131380000Y-98288571D01*
X131332380Y-98431428D01*
X131332380Y-98526666D01*
X131380000Y-98669523D01*
X131427619Y-98717142D01*
X132332380Y-99669523D02*
X132332380Y-99098095D01*
X132332380Y-99383809D02*
X131332380Y-99383809D01*
X131475238Y-99288571D01*
X131570476Y-99193333D01*
X131618095Y-99098095D01*
X131332380Y-100002857D02*
X131332380Y-100669523D01*
X132332380Y-100240952D01*
%TO.C,Cvddio_4*%
X124667142Y-82626190D02*
X124714761Y-82578571D01*
X124762380Y-82435714D01*
X124762380Y-82340476D01*
X124714761Y-82197619D01*
X124619523Y-82102380D01*
X124524285Y-82054761D01*
X124333809Y-82007142D01*
X124190952Y-82007142D01*
X124000476Y-82054761D01*
X123905238Y-82102380D01*
X123810000Y-82197619D01*
X123762380Y-82340476D01*
X123762380Y-82435714D01*
X123810000Y-82578571D01*
X123857619Y-82626190D01*
X124095714Y-82959523D02*
X124762380Y-83197619D01*
X124095714Y-83435714D01*
X124762380Y-84245238D02*
X123762380Y-84245238D01*
X124714761Y-84245238D02*
X124762380Y-84150000D01*
X124762380Y-83959523D01*
X124714761Y-83864285D01*
X124667142Y-83816666D01*
X124571904Y-83769047D01*
X124286190Y-83769047D01*
X124190952Y-83816666D01*
X124143333Y-83864285D01*
X124095714Y-83959523D01*
X124095714Y-84150000D01*
X124143333Y-84245238D01*
X124762380Y-85150000D02*
X123762380Y-85150000D01*
X124714761Y-85150000D02*
X124762380Y-85054761D01*
X124762380Y-84864285D01*
X124714761Y-84769047D01*
X124667142Y-84721428D01*
X124571904Y-84673809D01*
X124286190Y-84673809D01*
X124190952Y-84721428D01*
X124143333Y-84769047D01*
X124095714Y-84864285D01*
X124095714Y-85054761D01*
X124143333Y-85150000D01*
X124762380Y-85626190D02*
X124095714Y-85626190D01*
X123762380Y-85626190D02*
X123810000Y-85578571D01*
X123857619Y-85626190D01*
X123810000Y-85673809D01*
X123762380Y-85626190D01*
X123857619Y-85626190D01*
X124762380Y-86245238D02*
X124714761Y-86150000D01*
X124667142Y-86102380D01*
X124571904Y-86054761D01*
X124286190Y-86054761D01*
X124190952Y-86102380D01*
X124143333Y-86150000D01*
X124095714Y-86245238D01*
X124095714Y-86388095D01*
X124143333Y-86483333D01*
X124190952Y-86530952D01*
X124286190Y-86578571D01*
X124571904Y-86578571D01*
X124667142Y-86530952D01*
X124714761Y-86483333D01*
X124762380Y-86388095D01*
X124762380Y-86245238D01*
X124857619Y-86769047D02*
X124857619Y-87530952D01*
X124095714Y-88197619D02*
X124762380Y-88197619D01*
X123714761Y-87959523D02*
X124429047Y-87721428D01*
X124429047Y-88340476D01*
%TO.C,C1*%
X108264666Y-81247142D02*
X108312285Y-81294761D01*
X108455142Y-81342380D01*
X108550380Y-81342380D01*
X108693238Y-81294761D01*
X108788476Y-81199523D01*
X108836095Y-81104285D01*
X108883714Y-80913809D01*
X108883714Y-80770952D01*
X108836095Y-80580476D01*
X108788476Y-80485238D01*
X108693238Y-80390000D01*
X108550380Y-80342380D01*
X108455142Y-80342380D01*
X108312285Y-80390000D01*
X108264666Y-80437619D01*
X107312285Y-81342380D02*
X107883714Y-81342380D01*
X107598000Y-81342380D02*
X107598000Y-80342380D01*
X107693238Y-80485238D01*
X107788476Y-80580476D01*
X107883714Y-80628095D01*
%TO.C,R6*%
X108137166Y-82602380D02*
X108470500Y-82126190D01*
X108708595Y-82602380D02*
X108708595Y-81602380D01*
X108327642Y-81602380D01*
X108232404Y-81650000D01*
X108184785Y-81697619D01*
X108137166Y-81792857D01*
X108137166Y-81935714D01*
X108184785Y-82030952D01*
X108232404Y-82078571D01*
X108327642Y-82126190D01*
X108708595Y-82126190D01*
X107280023Y-81602380D02*
X107470500Y-81602380D01*
X107565738Y-81650000D01*
X107613357Y-81697619D01*
X107708595Y-81840476D01*
X107756214Y-82030952D01*
X107756214Y-82411904D01*
X107708595Y-82507142D01*
X107660976Y-82554761D01*
X107565738Y-82602380D01*
X107375261Y-82602380D01*
X107280023Y-82554761D01*
X107232404Y-82507142D01*
X107184785Y-82411904D01*
X107184785Y-82173809D01*
X107232404Y-82078571D01*
X107280023Y-82030952D01*
X107375261Y-81983333D01*
X107565738Y-81983333D01*
X107660976Y-82030952D01*
X107708595Y-82078571D01*
X107756214Y-82173809D01*
%TO.C,R35*%
X106604880Y-110173392D02*
X106128690Y-109840059D01*
X106604880Y-109601964D02*
X105604880Y-109601964D01*
X105604880Y-109982916D01*
X105652500Y-110078154D01*
X105700119Y-110125773D01*
X105795357Y-110173392D01*
X105938214Y-110173392D01*
X106033452Y-110125773D01*
X106081071Y-110078154D01*
X106128690Y-109982916D01*
X106128690Y-109601964D01*
X105604880Y-110506726D02*
X105604880Y-111125773D01*
X105985833Y-110792440D01*
X105985833Y-110935297D01*
X106033452Y-111030535D01*
X106081071Y-111078154D01*
X106176309Y-111125773D01*
X106414404Y-111125773D01*
X106509642Y-111078154D01*
X106557261Y-111030535D01*
X106604880Y-110935297D01*
X106604880Y-110649583D01*
X106557261Y-110554345D01*
X106509642Y-110506726D01*
X105604880Y-112030535D02*
X105604880Y-111554345D01*
X106081071Y-111506726D01*
X106033452Y-111554345D01*
X105985833Y-111649583D01*
X105985833Y-111887678D01*
X106033452Y-111982916D01*
X106081071Y-112030535D01*
X106176309Y-112078154D01*
X106414404Y-112078154D01*
X106509642Y-112030535D01*
X106557261Y-111982916D01*
X106604880Y-111887678D01*
X106604880Y-111649583D01*
X106557261Y-111554345D01*
X106509642Y-111506726D01*
%TO.C,C21*%
X113840857Y-76410892D02*
X113888476Y-76458511D01*
X114031333Y-76506130D01*
X114126571Y-76506130D01*
X114269428Y-76458511D01*
X114364666Y-76363273D01*
X114412285Y-76268035D01*
X114459904Y-76077559D01*
X114459904Y-75934702D01*
X114412285Y-75744226D01*
X114364666Y-75648988D01*
X114269428Y-75553750D01*
X114126571Y-75506130D01*
X114031333Y-75506130D01*
X113888476Y-75553750D01*
X113840857Y-75601369D01*
X113459904Y-75601369D02*
X113412285Y-75553750D01*
X113317047Y-75506130D01*
X113078952Y-75506130D01*
X112983714Y-75553750D01*
X112936095Y-75601369D01*
X112888476Y-75696607D01*
X112888476Y-75791845D01*
X112936095Y-75934702D01*
X113507523Y-76506130D01*
X112888476Y-76506130D01*
X111936095Y-76506130D02*
X112507523Y-76506130D01*
X112221809Y-76506130D02*
X112221809Y-75506130D01*
X112317047Y-75648988D01*
X112412285Y-75744226D01*
X112507523Y-75791845D01*
%TO.C,R74*%
X124182857Y-123082380D02*
X124516190Y-122606190D01*
X124754285Y-123082380D02*
X124754285Y-122082380D01*
X124373333Y-122082380D01*
X124278095Y-122130000D01*
X124230476Y-122177619D01*
X124182857Y-122272857D01*
X124182857Y-122415714D01*
X124230476Y-122510952D01*
X124278095Y-122558571D01*
X124373333Y-122606190D01*
X124754285Y-122606190D01*
X123849523Y-122082380D02*
X123182857Y-122082380D01*
X123611428Y-123082380D01*
X122373333Y-122415714D02*
X122373333Y-123082380D01*
X122611428Y-122034761D02*
X122849523Y-122749047D01*
X122230476Y-122749047D01*
%TO.C,R58*%
X133452380Y-121647142D02*
X132976190Y-121313809D01*
X133452380Y-121075714D02*
X132452380Y-121075714D01*
X132452380Y-121456666D01*
X132500000Y-121551904D01*
X132547619Y-121599523D01*
X132642857Y-121647142D01*
X132785714Y-121647142D01*
X132880952Y-121599523D01*
X132928571Y-121551904D01*
X132976190Y-121456666D01*
X132976190Y-121075714D01*
X132452380Y-122551904D02*
X132452380Y-122075714D01*
X132928571Y-122028095D01*
X132880952Y-122075714D01*
X132833333Y-122170952D01*
X132833333Y-122409047D01*
X132880952Y-122504285D01*
X132928571Y-122551904D01*
X133023809Y-122599523D01*
X133261904Y-122599523D01*
X133357142Y-122551904D01*
X133404761Y-122504285D01*
X133452380Y-122409047D01*
X133452380Y-122170952D01*
X133404761Y-122075714D01*
X133357142Y-122028095D01*
X132880952Y-123170952D02*
X132833333Y-123075714D01*
X132785714Y-123028095D01*
X132690476Y-122980476D01*
X132642857Y-122980476D01*
X132547619Y-123028095D01*
X132500000Y-123075714D01*
X132452380Y-123170952D01*
X132452380Y-123361428D01*
X132500000Y-123456666D01*
X132547619Y-123504285D01*
X132642857Y-123551904D01*
X132690476Y-123551904D01*
X132785714Y-123504285D01*
X132833333Y-123456666D01*
X132880952Y-123361428D01*
X132880952Y-123170952D01*
X132928571Y-123075714D01*
X132976190Y-123028095D01*
X133071428Y-122980476D01*
X133261904Y-122980476D01*
X133357142Y-123028095D01*
X133404761Y-123075714D01*
X133452380Y-123170952D01*
X133452380Y-123361428D01*
X133404761Y-123456666D01*
X133357142Y-123504285D01*
X133261904Y-123551904D01*
X133071428Y-123551904D01*
X132976190Y-123504285D01*
X132928571Y-123456666D01*
X132880952Y-123361428D01*
%TO.C,C25*%
X113807857Y-100365892D02*
X113855476Y-100413511D01*
X113998333Y-100461130D01*
X114093571Y-100461130D01*
X114236428Y-100413511D01*
X114331666Y-100318273D01*
X114379285Y-100223035D01*
X114426904Y-100032559D01*
X114426904Y-99889702D01*
X114379285Y-99699226D01*
X114331666Y-99603988D01*
X114236428Y-99508750D01*
X114093571Y-99461130D01*
X113998333Y-99461130D01*
X113855476Y-99508750D01*
X113807857Y-99556369D01*
X113426904Y-99556369D02*
X113379285Y-99508750D01*
X113284047Y-99461130D01*
X113045952Y-99461130D01*
X112950714Y-99508750D01*
X112903095Y-99556369D01*
X112855476Y-99651607D01*
X112855476Y-99746845D01*
X112903095Y-99889702D01*
X113474523Y-100461130D01*
X112855476Y-100461130D01*
X111950714Y-99461130D02*
X112426904Y-99461130D01*
X112474523Y-99937321D01*
X112426904Y-99889702D01*
X112331666Y-99842083D01*
X112093571Y-99842083D01*
X111998333Y-99889702D01*
X111950714Y-99937321D01*
X111903095Y-100032559D01*
X111903095Y-100270654D01*
X111950714Y-100365892D01*
X111998333Y-100413511D01*
X112093571Y-100461130D01*
X112331666Y-100461130D01*
X112426904Y-100413511D01*
X112474523Y-100365892D01*
D12*
%TO.C,C26*%
X121848752Y-110088750D02*
X120426248Y-110088750D01*
X121848752Y-111908750D02*
X120426248Y-111908750D01*
%TO.C,R26*%
X105268000Y-74432936D02*
X105268000Y-75887064D01*
X103448000Y-74432936D02*
X103448000Y-75887064D01*
%TO.C,Cvdda_2*%
X129310000Y-97493233D02*
X129310000Y-97785767D01*
X130330000Y-97493233D02*
X130330000Y-97785767D01*
%TO.C,R78*%
X120720000Y-122807064D02*
X120720000Y-121352936D01*
X118900000Y-122807064D02*
X118900000Y-121352936D01*
%TO.C,R32*%
X128022936Y-120291250D02*
X129477064Y-120291250D01*
X128022936Y-122111250D02*
X129477064Y-122111250D01*
%TO.C,R65*%
X139267064Y-124530000D02*
X137812936Y-124530000D01*
X139267064Y-122710000D02*
X137812936Y-122710000D01*
%TO.C,Cvdd_4*%
X127460000Y-88893233D02*
X127460000Y-89185767D01*
X126440000Y-88893233D02*
X126440000Y-89185767D01*
%TO.C,C15*%
X112326748Y-89690000D02*
X113749252Y-89690000D01*
X112326748Y-87870000D02*
X113749252Y-87870000D01*
%TO.C,C2*%
X122808748Y-116870000D02*
X124231252Y-116870000D01*
X122808748Y-115050000D02*
X124231252Y-115050000D01*
%TO.C,R67*%
X116040500Y-74290436D02*
X116040500Y-75744564D01*
X117860500Y-74290436D02*
X117860500Y-75744564D01*
%TO.C,R55*%
X107345436Y-112856250D02*
X108799564Y-112856250D01*
X107345436Y-111036250D02*
X108799564Y-111036250D01*
%TO.C,R77*%
X126340000Y-111582936D02*
X126340000Y-113037064D01*
X128160000Y-111582936D02*
X128160000Y-113037064D01*
%TO.C,R75*%
X125727500Y-111524686D02*
X125727500Y-112978814D01*
X123907500Y-111524686D02*
X123907500Y-112978814D01*
%TO.C,C11*%
X108699252Y-89680000D02*
X107276748Y-89680000D01*
X108699252Y-87860000D02*
X107276748Y-87860000D01*
%TO.C,R8*%
X131667064Y-119510000D02*
X130212936Y-119510000D01*
X131667064Y-117690000D02*
X130212936Y-117690000D01*
%TO.C,Cvdd_1*%
X133103733Y-81440000D02*
X133396267Y-81440000D01*
X133103733Y-82460000D02*
X133396267Y-82460000D01*
%TO.C,R72*%
X112437936Y-98578750D02*
X113892064Y-98578750D01*
X112437936Y-100398750D02*
X113892064Y-100398750D01*
%TO.C,R15*%
X108757064Y-102830000D02*
X107302936Y-102830000D01*
X108757064Y-101010000D02*
X107302936Y-101010000D01*
%TO.C,C4*%
X130268748Y-117120000D02*
X131691252Y-117120000D01*
X130268748Y-115300000D02*
X131691252Y-115300000D01*
D13*
%TO.C,FB2*%
X130650000Y-103160000D02*
X130950000Y-103160000D01*
D12*
%TO.C,Cvdd_3*%
X141240000Y-87385767D02*
X141240000Y-87093233D01*
X140220000Y-87385767D02*
X140220000Y-87093233D01*
%TO.C,R13*%
X108777064Y-107820000D02*
X107322936Y-107820000D01*
X108777064Y-106000000D02*
X107322936Y-106000000D01*
%TO.C,C8*%
X129461252Y-122661250D02*
X128038748Y-122661250D01*
X129461252Y-124481250D02*
X128038748Y-124481250D01*
%TO.C,R66*%
X115990000Y-106357064D02*
X115990000Y-104902936D01*
X117810000Y-106357064D02*
X117810000Y-104902936D01*
%TO.C,R1*%
X108815064Y-82330000D02*
X107360936Y-82330000D01*
X108815064Y-80510000D02*
X107360936Y-80510000D01*
%TO.C,C6*%
X107348748Y-100480000D02*
X108771252Y-100480000D01*
X107348748Y-98660000D02*
X108771252Y-98660000D01*
%TO.C,Cvdd_2*%
X132536267Y-96319500D02*
X132243733Y-96319500D01*
X132536267Y-97339500D02*
X132243733Y-97339500D01*
%TO.C,C12*%
X108831752Y-73216250D02*
X107409248Y-73216250D01*
X108831752Y-75036250D02*
X107409248Y-75036250D01*
%TO.C,C18*%
X128920000Y-102876267D02*
X128920000Y-102583733D01*
X129940000Y-102876267D02*
X129940000Y-102583733D01*
%TO.C,R21*%
X117858000Y-80730814D02*
X117858000Y-79276686D01*
X116038000Y-80730814D02*
X116038000Y-79276686D01*
%TO.C,C5*%
X107358748Y-105390000D02*
X108781252Y-105390000D01*
X107358748Y-103570000D02*
X108781252Y-103570000D01*
%TO.C,Cvddio_3*%
X132903733Y-84009500D02*
X133196267Y-84009500D01*
X132903733Y-82989500D02*
X133196267Y-82989500D01*
%TO.C,C14*%
X108763752Y-95760000D02*
X107341248Y-95760000D01*
X108763752Y-93940000D02*
X107341248Y-93940000D01*
%TO.C,R3*%
X103438000Y-81007064D02*
X103438000Y-79552936D01*
X105258000Y-81007064D02*
X105258000Y-79552936D01*
%TO.C,R73*%
X120430436Y-114278750D02*
X121884564Y-114278750D01*
X120430436Y-112458750D02*
X121884564Y-112458750D01*
%TO.C,R76*%
X131657064Y-114520000D02*
X130202936Y-114520000D01*
X131657064Y-112700000D02*
X130202936Y-112700000D01*
%TO.C,C22*%
X112466248Y-98060000D02*
X113888752Y-98060000D01*
X112466248Y-96240000D02*
X113888752Y-96240000D01*
%TO.C,C27*%
X121791252Y-107550000D02*
X120368748Y-107550000D01*
X121791252Y-109370000D02*
X120368748Y-109370000D01*
%TO.C,R57*%
X126230000Y-128927064D02*
X126230000Y-127472936D01*
X128050000Y-128927064D02*
X128050000Y-127472936D01*
%TO.C,C23*%
X137828748Y-120300000D02*
X139251252Y-120300000D01*
X137828748Y-122120000D02*
X139251252Y-122120000D01*
%TO.C,R2*%
X118930000Y-117807064D02*
X118930000Y-116352936D01*
X120750000Y-117807064D02*
X120750000Y-116352936D01*
%TO.C,R71*%
X117777500Y-101297064D02*
X117777500Y-99842936D01*
X115957500Y-101297064D02*
X115957500Y-99842936D01*
%TO.C,R53*%
X107260936Y-90230000D02*
X108715064Y-90230000D01*
X107260936Y-92050000D02*
X108715064Y-92050000D01*
%TO.C,R59*%
X117658000Y-90807064D02*
X117658000Y-89352936D01*
X115838000Y-90807064D02*
X115838000Y-89352936D01*
%TO.C,R23*%
X112488436Y-80440000D02*
X113942564Y-80440000D01*
X112488436Y-82260000D02*
X113942564Y-82260000D01*
%TO.C,C24*%
X113871252Y-103490000D02*
X112448748Y-103490000D01*
X113871252Y-105310000D02*
X112448748Y-105310000D01*
%TO.C,R16*%
X117638000Y-85767064D02*
X117638000Y-84312936D01*
X115818000Y-85767064D02*
X115818000Y-84312936D01*
%TO.C,R5*%
X128180000Y-118037064D02*
X128180000Y-116582936D01*
X126360000Y-118037064D02*
X126360000Y-116582936D01*
%TO.C,R41*%
X149632936Y-140220000D02*
X151087064Y-140220000D01*
X149632936Y-142040000D02*
X151087064Y-142040000D01*
%TO.C,C10*%
X130148748Y-128370000D02*
X131571252Y-128370000D01*
X130148748Y-130190000D02*
X131571252Y-130190000D01*
%TO.C,C16*%
X132800000Y-102876267D02*
X132800000Y-102583733D01*
X133820000Y-102876267D02*
X133820000Y-102583733D01*
%TO.C,R29*%
X105238000Y-91177064D02*
X105238000Y-89722936D01*
X103418000Y-91177064D02*
X103418000Y-89722936D01*
%TO.C,R62*%
X113725064Y-92080000D02*
X112270936Y-92080000D01*
X113725064Y-90260000D02*
X112270936Y-90260000D01*
%TO.C,C9*%
X113916752Y-79890000D02*
X112494248Y-79890000D01*
X113916752Y-78070000D02*
X112494248Y-78070000D01*
%TO.C,C13*%
X108783752Y-108596250D02*
X107361248Y-108596250D01*
X108783752Y-110416250D02*
X107361248Y-110416250D01*
%TO.C,Cvdda_1*%
X130330000Y-94335767D02*
X130330000Y-94043233D01*
X129310000Y-94335767D02*
X129310000Y-94043233D01*
D13*
%TO.C,FB1*%
X131820000Y-103190000D02*
X132120000Y-103190000D01*
D12*
%TO.C,R25*%
X103420000Y-106527064D02*
X103420000Y-105072936D01*
X105240000Y-106527064D02*
X105240000Y-105072936D01*
%TO.C,R54*%
X107347936Y-96290000D02*
X108802064Y-96290000D01*
X107347936Y-98110000D02*
X108802064Y-98110000D01*
%TO.C,C20*%
X112508748Y-110790000D02*
X113931252Y-110790000D01*
X112508748Y-112610000D02*
X113931252Y-112610000D01*
%TO.C,Cvddio_2*%
X132996267Y-94769500D02*
X132703733Y-94769500D01*
X132996267Y-95789500D02*
X132703733Y-95789500D01*
%TO.C,R63*%
X113864564Y-93860000D02*
X112410436Y-93860000D01*
X113864564Y-95680000D02*
X112410436Y-95680000D01*
%TO.C,R36*%
X107413436Y-77496250D02*
X108867564Y-77496250D01*
X107413436Y-75676250D02*
X108867564Y-75676250D01*
%TO.C,R7*%
X103360500Y-86097064D02*
X103360500Y-84642936D01*
X105180500Y-86097064D02*
X105180500Y-84642936D01*
%TO.C,C30*%
X130208748Y-110340000D02*
X131631252Y-110340000D01*
X130208748Y-112160000D02*
X131631252Y-112160000D01*
%TO.C,R64*%
X113957064Y-110270000D02*
X112502936Y-110270000D01*
X113957064Y-108450000D02*
X112502936Y-108450000D01*
%TO.C,R28*%
X105260000Y-95022936D02*
X105260000Y-96477064D01*
X103440000Y-95022936D02*
X103440000Y-96477064D01*
%TO.C,R19*%
X105270000Y-100012936D02*
X105270000Y-101467064D01*
X103450000Y-100012936D02*
X103450000Y-101467064D01*
%TO.C,C7*%
X113719252Y-85430000D02*
X112296748Y-85430000D01*
X113719252Y-87250000D02*
X112296748Y-87250000D01*
%TO.C,R60*%
X113945064Y-75663750D02*
X112490936Y-75663750D01*
X113945064Y-77483750D02*
X112490936Y-77483750D01*
%TO.C,R61*%
X115980000Y-111387064D02*
X115980000Y-109932936D01*
X117800000Y-111387064D02*
X117800000Y-109932936D01*
%TO.C,Cvddio_1*%
X139700000Y-87885767D02*
X139700000Y-87593233D01*
X138680000Y-87885767D02*
X138680000Y-87593233D01*
%TO.C,C29*%
X123500000Y-99548748D02*
X123500000Y-100971252D01*
X121680000Y-99548748D02*
X121680000Y-100971252D01*
%TO.C,C19*%
X125655000Y-96208748D02*
X125655000Y-96731252D01*
X127125000Y-96208748D02*
X127125000Y-96731252D01*
%TO.C,R4*%
X124247064Y-117460000D02*
X122792936Y-117460000D01*
X124247064Y-119280000D02*
X122792936Y-119280000D01*
%TO.C,C28*%
X124311252Y-124250000D02*
X122888748Y-124250000D01*
X124311252Y-122430000D02*
X122888748Y-122430000D01*
D13*
%TO.C,LDO1*%
X121720000Y-104725000D02*
X121720000Y-105275000D01*
X124720000Y-105275000D02*
X124720000Y-104725000D01*
X121720000Y-105275000D02*
X124720000Y-105275000D01*
X124720000Y-104725000D02*
X121720000Y-104725000D01*
X124720000Y-106875000D02*
X124720000Y-105625000D01*
D12*
%TO.C,R70*%
X112442936Y-105850000D02*
X113897064Y-105850000D01*
X112442936Y-107670000D02*
X113897064Y-107670000D01*
%TO.C,R69*%
X117757500Y-96267064D02*
X117757500Y-94812936D01*
X115937500Y-96267064D02*
X115937500Y-94812936D01*
%TO.C,C3*%
X107289248Y-85450000D02*
X108711752Y-85450000D01*
X107289248Y-87270000D02*
X108711752Y-87270000D01*
%TO.C,R56*%
X131540000Y-121544186D02*
X131540000Y-122998314D01*
X133360000Y-121544186D02*
X133360000Y-122998314D01*
%TO.C,R68*%
X112280936Y-83050000D02*
X113735064Y-83050000D01*
X112280936Y-84870000D02*
X113735064Y-84870000D01*
%TO.C,R33*%
X131547064Y-125920000D02*
X130092936Y-125920000D01*
X131547064Y-127740000D02*
X130092936Y-127740000D01*
%TO.C,C17*%
X132800000Y-99213733D02*
X132800000Y-99506267D01*
X133820000Y-99213733D02*
X133820000Y-99506267D01*
%TO.C,Cvddio_4*%
X124850000Y-88333233D02*
X124850000Y-88625767D01*
X125870000Y-88333233D02*
X125870000Y-88625767D01*
%TO.C,C1*%
X107386748Y-79950000D02*
X108809252Y-79950000D01*
X107386748Y-78130000D02*
X108809252Y-78130000D01*
%TO.C,R6*%
X108697564Y-83060000D02*
X107243436Y-83060000D01*
X108697564Y-84880000D02*
X107243436Y-84880000D01*
%TO.C,R35*%
X105242500Y-111543314D02*
X105242500Y-110089186D01*
X103422500Y-111543314D02*
X103422500Y-110089186D01*
%TO.C,C21*%
X112486748Y-73293750D02*
X113909252Y-73293750D01*
X112486748Y-75113750D02*
X113909252Y-75113750D01*
%TO.C,R74*%
X122812936Y-121720000D02*
X124267064Y-121720000D01*
X122812936Y-119900000D02*
X124267064Y-119900000D01*
%TO.C,R58*%
X135730000Y-121562936D02*
X135730000Y-123017064D01*
X133910000Y-121562936D02*
X133910000Y-123017064D01*
%TO.C,C25*%
X113876252Y-100948750D02*
X112453748Y-100948750D01*
X113876252Y-102768750D02*
X112453748Y-102768750D01*
%TD*%
M02*
