%TF.GenerationSoftware,KiCad,Pcbnew,(6.0.7)*%
%TF.CreationDate,2023-05-13T08:52:07+05:30*%
%TF.ProjectId,DSP_board,4453505f-626f-4617-9264-2e6b69636164,rev?*%
%TF.SameCoordinates,Original*%
%TF.FileFunction,Drillmap*%
%TF.FilePolarity,Positive*%
%FSLAX45Y45*%
G04 Gerber Fmt 4.5, Leading zero omitted, Abs format (unit mm)*
G04 Created by KiCad (PCBNEW (6.0.7)) date 2023-05-13 08:52:07*
%MOMM*%
%LPD*%
G01*
G04 APERTURE LIST*
%ADD10C,0.100000*%
%ADD11C,0.200000*%
G04 APERTURE END LIST*
D10*
X8606000Y-6388000D02*
X19285000Y-6388000D01*
X19285000Y-6388000D02*
X19285000Y-14506000D01*
X19285000Y-14506000D02*
X8606000Y-14506000D01*
X8606000Y-14506000D02*
X8606000Y-6388000D01*
D11*
X8858619Y-14821476D02*
X8858619Y-14621476D01*
X8906238Y-14621476D01*
X8934810Y-14631000D01*
X8953857Y-14650048D01*
X8963381Y-14669095D01*
X8972905Y-14707190D01*
X8972905Y-14735762D01*
X8963381Y-14773857D01*
X8953857Y-14792905D01*
X8934810Y-14811952D01*
X8906238Y-14821476D01*
X8858619Y-14821476D01*
X9058619Y-14821476D02*
X9058619Y-14688143D01*
X9058619Y-14726238D02*
X9068143Y-14707190D01*
X9077667Y-14697667D01*
X9096714Y-14688143D01*
X9115762Y-14688143D01*
X9182429Y-14821476D02*
X9182429Y-14688143D01*
X9182429Y-14621476D02*
X9172905Y-14631000D01*
X9182429Y-14640524D01*
X9191952Y-14631000D01*
X9182429Y-14621476D01*
X9182429Y-14640524D01*
X9306238Y-14821476D02*
X9287190Y-14811952D01*
X9277667Y-14792905D01*
X9277667Y-14621476D01*
X9411000Y-14821476D02*
X9391952Y-14811952D01*
X9382429Y-14792905D01*
X9382429Y-14621476D01*
X9639571Y-14821476D02*
X9639571Y-14621476D01*
X9706238Y-14764333D01*
X9772905Y-14621476D01*
X9772905Y-14821476D01*
X9953857Y-14821476D02*
X9953857Y-14716714D01*
X9944333Y-14697667D01*
X9925286Y-14688143D01*
X9887190Y-14688143D01*
X9868143Y-14697667D01*
X9953857Y-14811952D02*
X9934810Y-14821476D01*
X9887190Y-14821476D01*
X9868143Y-14811952D01*
X9858619Y-14792905D01*
X9858619Y-14773857D01*
X9868143Y-14754809D01*
X9887190Y-14745286D01*
X9934810Y-14745286D01*
X9953857Y-14735762D01*
X10049095Y-14688143D02*
X10049095Y-14888143D01*
X10049095Y-14697667D02*
X10068143Y-14688143D01*
X10106238Y-14688143D01*
X10125286Y-14697667D01*
X10134810Y-14707190D01*
X10144333Y-14726238D01*
X10144333Y-14783381D01*
X10134810Y-14802428D01*
X10125286Y-14811952D01*
X10106238Y-14821476D01*
X10068143Y-14821476D01*
X10049095Y-14811952D01*
X10230048Y-14802428D02*
X10239571Y-14811952D01*
X10230048Y-14821476D01*
X10220524Y-14811952D01*
X10230048Y-14802428D01*
X10230048Y-14821476D01*
X10230048Y-14697667D02*
X10239571Y-14707190D01*
X10230048Y-14716714D01*
X10220524Y-14707190D01*
X10230048Y-14697667D01*
X10230048Y-14716714D01*
M02*
