%TF.GenerationSoftware,KiCad,Pcbnew,(6.0.7)*%
%TF.CreationDate,2023-05-13T08:51:53+05:30*%
%TF.ProjectId,DSP_board,4453505f-626f-4617-9264-2e6b69636164,rev?*%
%TF.SameCoordinates,Original*%
%TF.FileFunction,Copper,L1,Top*%
%TF.FilePolarity,Positive*%
%FSLAX46Y46*%
G04 Gerber Fmt 4.6, Leading zero omitted, Abs format (unit mm)*
G04 Created by KiCad (PCBNEW (6.0.7)) date 2023-05-13 08:51:53*
%MOMM*%
%LPD*%
G01*
G04 APERTURE LIST*
G04 Aperture macros list*
%AMRoundRect*
0 Rectangle with rounded corners*
0 $1 Rounding radius*
0 $2 $3 $4 $5 $6 $7 $8 $9 X,Y pos of 4 corners*
0 Add a 4 corners polygon primitive as box body*
4,1,4,$2,$3,$4,$5,$6,$7,$8,$9,$2,$3,0*
0 Add four circle primitives for the rounded corners*
1,1,$1+$1,$2,$3*
1,1,$1+$1,$4,$5*
1,1,$1+$1,$6,$7*
1,1,$1+$1,$8,$9*
0 Add four rect primitives between the rounded corners*
20,1,$1+$1,$2,$3,$4,$5,0*
20,1,$1+$1,$4,$5,$6,$7,0*
20,1,$1+$1,$6,$7,$8,$9,0*
20,1,$1+$1,$8,$9,$2,$3,0*%
G04 Aperture macros list end*
%TA.AperFunction,SMDPad,CuDef*%
%ADD10RoundRect,0.250000X0.400000X0.625000X-0.400000X0.625000X-0.400000X-0.625000X0.400000X-0.625000X0*%
%TD*%
%TA.AperFunction,SMDPad,CuDef*%
%ADD11RoundRect,0.250000X0.625000X-0.400000X0.625000X0.400000X-0.625000X0.400000X-0.625000X-0.400000X0*%
%TD*%
%TA.AperFunction,ComponentPad*%
%ADD12R,1.700000X1.700000*%
%TD*%
%TA.AperFunction,ComponentPad*%
%ADD13O,1.700000X1.700000*%
%TD*%
%TA.AperFunction,SMDPad,CuDef*%
%ADD14R,1.475000X0.300000*%
%TD*%
%TA.AperFunction,SMDPad,CuDef*%
%ADD15R,0.300000X1.475000*%
%TD*%
%TA.AperFunction,SMDPad,CuDef*%
%ADD16RoundRect,0.250000X-0.625000X0.400000X-0.625000X-0.400000X0.625000X-0.400000X0.625000X0.400000X0*%
%TD*%
%TA.AperFunction,SMDPad,CuDef*%
%ADD17R,1.525000X0.650000*%
%TD*%
%TA.AperFunction,ComponentPad*%
%ADD18C,1.700000*%
%TD*%
%TA.AperFunction,SMDPad,CuDef*%
%ADD19R,1.825000X0.700000*%
%TD*%
%TA.AperFunction,SMDPad,CuDef*%
%ADD20RoundRect,0.250000X-0.400000X-0.625000X0.400000X-0.625000X0.400000X0.625000X-0.400000X0.625000X0*%
%TD*%
%TA.AperFunction,SMDPad,CuDef*%
%ADD21R,0.600000X1.700000*%
%TD*%
%TA.AperFunction,SMDPad,CuDef*%
%ADD22R,1.200000X1.800000*%
%TD*%
%TA.AperFunction,ViaPad*%
%ADD23C,0.300000*%
%TD*%
%TA.AperFunction,ViaPad*%
%ADD24C,0.800000*%
%TD*%
%TA.AperFunction,Conductor*%
%ADD25C,0.250000*%
%TD*%
G04 APERTURE END LIST*
D10*
%TO.P,R79,1*%
%TO.N,Net-(IC5-Pad5)*%
X124210000Y-81030000D03*
%TO.P,R79,2*%
%TO.N,ctrl_3v3*%
X121110000Y-81030000D03*
%TD*%
D11*
%TO.P,R20,1*%
%TO.N,/controller_sheet/pwm_daba2*%
X174290000Y-68490000D03*
%TO.P,R20,2*%
%TO.N,ctrl_gnd*%
X174290000Y-65390000D03*
%TD*%
D12*
%TO.P,JVSI1,1,Pin_1*%
%TO.N,Igrid3*%
X100120000Y-140610000D03*
D13*
%TO.P,JVSI1,2,Pin_2*%
%TO.N,Vgrid3*%
X100120000Y-143150000D03*
%TO.P,JVSI1,3,Pin_3*%
%TO.N,Igrid2*%
X102660000Y-140610000D03*
%TO.P,JVSI1,4,Pin_4*%
%TO.N,Vgrid2*%
X102660000Y-143150000D03*
%TO.P,JVSI1,5,Pin_5*%
%TO.N,Igrid1*%
X105200000Y-140610000D03*
%TO.P,JVSI1,6,Pin_6*%
%TO.N,Vgrid1*%
X105200000Y-143150000D03*
%TO.P,JVSI1,7,Pin_7*%
%TO.N,OCD_grid1*%
X107740000Y-140610000D03*
%TO.P,JVSI1,8,Pin_8*%
%TO.N,OCD_grd2*%
X107740000Y-143150000D03*
%TO.P,JVSI1,9,Pin_9*%
%TO.N,OCD_grid3*%
X110280000Y-140610000D03*
%TO.P,JVSI1,10,Pin_10*%
%TO.N,ctrl_gnd*%
X110280000Y-143150000D03*
%TO.P,JVSI1,11,Pin_11*%
%TO.N,vsi_ready*%
X112820000Y-140610000D03*
%TO.P,JVSI1,12,Pin_12*%
%TO.N,vsi_fault*%
X112820000Y-143150000D03*
%TO.P,JVSI1,13,Pin_13*%
%TO.N,VSI32*%
X115360000Y-140610000D03*
%TO.P,JVSI1,14,Pin_14*%
%TO.N,VSI31*%
X115360000Y-143150000D03*
%TO.P,JVSI1,15,Pin_15*%
%TO.N,VSI22*%
X117900000Y-140610000D03*
%TO.P,JVSI1,16,Pin_16*%
%TO.N,VSI21*%
X117900000Y-143150000D03*
%TO.P,JVSI1,17,Pin_17*%
%TO.N,VSI12*%
X120440000Y-140610000D03*
%TO.P,JVSI1,18,Pin_18*%
%TO.N,VSI11*%
X120440000Y-143150000D03*
%TO.P,JVSI1,19,Pin_19*%
%TO.N,SCL*%
X122980000Y-140610000D03*
%TO.P,JVSI1,20,Pin_20*%
%TO.N,SDA*%
X122980000Y-143150000D03*
%TD*%
D12*
%TO.P,J1,1,Pin_1*%
%TO.N,Net-(IC5-Pad41)*%
X147130000Y-95130000D03*
D13*
%TO.P,J1,2,Pin_2*%
%TO.N,Net-(J1-Pad2)*%
X147130000Y-97670000D03*
%TD*%
D11*
%TO.P,R12,1*%
%TO.N,/controller_sheet/pwm_dabb1*%
X184450000Y-68550000D03*
%TO.P,R12,2*%
%TO.N,ctrl_gnd*%
X184450000Y-65450000D03*
%TD*%
D12*
%TO.P,J3,1,Pin_1*%
%TO.N,Net-(IC5-Pad49)*%
X144305000Y-91440000D03*
D13*
%TO.P,J3,2,Pin_2*%
%TO.N,Net-(J3-Pad2)*%
X146845000Y-91440000D03*
%TD*%
D14*
%TO.P,IC5,1,GPIO30*%
%TO.N,unconnected-(IC5-Pad1)*%
X126232000Y-84609500D03*
%TO.P,IC5,2,GPIO31*%
%TO.N,unconnected-(IC5-Pad2)*%
X126232000Y-85109500D03*
%TO.P,IC5,3,GPIO29*%
%TO.N,SCITX*%
X126232000Y-85609500D03*
%TO.P,IC5,4,GPIO28*%
%TO.N,SCiRX*%
X126232000Y-86109500D03*
%TO.P,IC5,5,XRSN*%
%TO.N,Net-(IC5-Pad5)*%
X126232000Y-86609500D03*
%TO.P,IC5,6,GPIO46*%
%TO.N,unconnected-(IC5-Pad6)*%
X126232000Y-87109500D03*
%TO.P,IC5,7,VDDIO_1*%
%TO.N,VDDIO*%
X126232000Y-87609500D03*
%TO.P,IC5,8,VDD_1*%
%TO.N,VDD*%
X126232000Y-88109500D03*
%TO.P,IC5,9,VSS_1*%
%TO.N,ctrl_gnd*%
X126232000Y-88609500D03*
%TO.P,IC5,10,A6*%
%TO.N,Igrid2_sense*%
X126232000Y-89109500D03*
%TO.P,IC5,11,C6*%
%TO.N,Vgrid2_sense*%
X126232000Y-89609500D03*
%TO.P,IC5,12,A3C5*%
%TO.N,Igrid3_sense*%
X126232000Y-90109500D03*
%TO.P,IC5,13,A2C9*%
%TO.N,Vgrid3_sense*%
X126232000Y-90609500D03*
%TO.P,IC5,14,A15C7*%
%TO.N,Igrid1_sense*%
X126232000Y-91109500D03*
%TO.P,IC5,15,A14C4*%
%TO.N,Vgrid1_sense*%
X126232000Y-91609500D03*
%TO.P,IC5,16,A11C0*%
%TO.N,I_leackage*%
X126232000Y-92109500D03*
%TO.P,IC5,17,A5C2*%
%TO.N,Vdc_link*%
X126232000Y-92609500D03*
%TO.P,IC5,18,A1*%
%TO.N,batt_curr_sense*%
X126232000Y-93109500D03*
%TO.P,IC5,19,A0C15*%
%TO.N,batt_V_sense*%
X126232000Y-93609500D03*
%TO.P,IC5,20,VREFHI*%
%TO.N,Net-(C19-Pad1)*%
X126232000Y-94109500D03*
D15*
%TO.P,IC5,21,VREFLO*%
%TO.N,ctrl_gnd*%
X128220000Y-96097500D03*
%TO.P,IC5,22,A12C1*%
%TO.N,offset_v*%
X128720000Y-96097500D03*
%TO.P,IC5,23,A7C3*%
%TO.N,ADC1*%
X129220000Y-96097500D03*
%TO.P,IC5,24,A8C11*%
%TO.N,ADC2*%
X129720000Y-96097500D03*
%TO.P,IC5,25,VSSA*%
%TO.N,ctrl_gnd*%
X130220000Y-96097500D03*
%TO.P,IC5,26,VDDA*%
%TO.N,VDDA*%
X130720000Y-96097500D03*
%TO.P,IC5,27,A4C14*%
%TO.N,ADC3*%
X131220000Y-96097500D03*
%TO.P,IC5,28,A9C8*%
%TO.N,ADC4*%
X131720000Y-96097500D03*
%TO.P,IC5,29,A10C10*%
%TO.N,ADC5*%
X132220000Y-96097500D03*
%TO.P,IC5,30,VSS_2*%
%TO.N,ctrl_gnd*%
X132720000Y-96097500D03*
%TO.P,IC5,31,VDD_2*%
%TO.N,VDD*%
X133220000Y-96097500D03*
%TO.P,IC5,32,VDDIO_2*%
%TO.N,VDDIO*%
X133720000Y-96097500D03*
%TO.P,IC5,33,FLT2*%
%TO.N,unconnected-(IC5-Pad33)*%
X134220000Y-96097500D03*
%TO.P,IC5,34,FLT1*%
%TO.N,unconnected-(IC5-Pad34)*%
X134720000Y-96097500D03*
%TO.P,IC5,35,GPIO13*%
%TO.N,OCD_grid1*%
X135220000Y-96097500D03*
%TO.P,IC5,36,GPIO12*%
%TO.N,/controller_sheet/pwm_dabb2*%
X135720000Y-96097500D03*
%TO.P,IC5,37,GPIO11*%
%TO.N,OCD_grd2*%
X136220000Y-96097500D03*
%TO.P,IC5,38,GPIO33*%
%TO.N,OCD_grid3*%
X136720000Y-96097500D03*
%TO.P,IC5,39,GPIO16*%
%TO.N,batt_fault*%
X137220000Y-96097500D03*
%TO.P,IC5,40,GPIO17*%
%TO.N,batt_ready*%
X137720000Y-96097500D03*
D14*
%TO.P,IC5,41,GPIO24*%
%TO.N,Net-(IC5-Pad41)*%
X139708000Y-94109500D03*
%TO.P,IC5,42,GPIO25*%
%TO.N,unconnected-(IC5-Pad42)*%
X139708000Y-93609500D03*
%TO.P,IC5,43,GPIO26*%
%TO.N,SDA*%
X139708000Y-93109500D03*
%TO.P,IC5,44,GPIO27*%
%TO.N,SCL*%
X139708000Y-92609500D03*
%TO.P,IC5,45,TCK*%
%TO.N,TCK*%
X139708000Y-92109500D03*
%TO.P,IC5,46,GPIO37/TDO*%
%TO.N,TDO*%
X139708000Y-91609500D03*
%TO.P,IC5,47,TMS*%
%TO.N,TMS*%
X139708000Y-91109500D03*
%TO.P,IC5,48,GPIO35/TDI*%
%TO.N,TDI*%
X139708000Y-90609500D03*
%TO.P,IC5,49,GPIO32*%
%TO.N,Net-(IC5-Pad49)*%
X139708000Y-90109500D03*
%TO.P,IC5,50,GPIO18X2*%
%TO.N,unconnected-(IC5-Pad50)*%
X139708000Y-89609500D03*
%TO.P,IC5,51,GPIO19X1*%
%TO.N,unconnected-(IC5-Pad51)*%
X139708000Y-89109500D03*
%TO.P,IC5,52,VDDIO_3*%
%TO.N,VDDIO*%
X139708000Y-88609500D03*
%TO.P,IC5,53,VDD_3*%
%TO.N,VDD*%
X139708000Y-88109500D03*
%TO.P,IC5,54,GPIO43*%
%TO.N,unconnected-(IC5-Pad54)*%
X139708000Y-87609500D03*
%TO.P,IC5,55,VSS_3*%
%TO.N,ctrl_gnd*%
X139708000Y-87109500D03*
%TO.P,IC5,56,GPIO39*%
%TO.N,/controller_sheet/en_vsi*%
X139708000Y-86609500D03*
%TO.P,IC5,57,GPIO42*%
%TO.N,/controller_sheet/en_dab*%
X139708000Y-86109500D03*
%TO.P,IC5,58,GPIO8*%
%TO.N,/controller_sheet/pwm_daba2*%
X139708000Y-85609500D03*
%TO.P,IC5,59,GPIO4*%
%TO.N,/controller_sheet/pwmVSI3*%
X139708000Y-85109500D03*
%TO.P,IC5,60,GPIO3*%
%TO.N,unconnected-(IC5-Pad60)*%
X139708000Y-84609500D03*
D15*
%TO.P,IC5,61,GPIO2*%
%TO.N,/controller_sheet/pwmVSI2*%
X137720000Y-82621500D03*
%TO.P,IC5,62,GPIO1*%
%TO.N,unconnected-(IC5-Pad62)*%
X137220000Y-82621500D03*
%TO.P,IC5,63,GPIO0*%
%TO.N,/controller_sheet/pwmVSI1*%
X136720000Y-82621500D03*
%TO.P,IC5,64,GPIO40*%
%TO.N,unconnected-(IC5-Pad64)*%
X136220000Y-82621500D03*
%TO.P,IC5,65,GPIO23*%
%TO.N,unconnected-(IC5-Pad65)*%
X135720000Y-82621500D03*
%TO.P,IC5,66,GPIO41*%
%TO.N,unconnected-(IC5-Pad66)*%
X135220000Y-82621500D03*
%TO.P,IC5,67,GPIO22*%
%TO.N,unconnected-(IC5-Pad67)*%
X134720000Y-82621500D03*
%TO.P,IC5,68,GPIO7*%
%TO.N,unconnected-(IC5-Pad68)*%
X134220000Y-82621500D03*
%TO.P,IC5,69,GPIO44*%
%TO.N,unconnected-(IC5-Pad69)*%
X133720000Y-82621500D03*
%TO.P,IC5,70,VSS_4*%
%TO.N,ctrl_gnd*%
X133220000Y-82621500D03*
%TO.P,IC5,71,VDD_4*%
%TO.N,VDD*%
X132720000Y-82621500D03*
%TO.P,IC5,72,VDDIO_4*%
%TO.N,VDDIO*%
X132220000Y-82621500D03*
%TO.P,IC5,73,GPIO45*%
%TO.N,unconnected-(IC5-Pad73)*%
X131720000Y-82621500D03*
%TO.P,IC5,74,GPIO5*%
%TO.N,vsi_ready*%
X131220000Y-82621500D03*
%TO.P,IC5,75,GPIO9*%
%TO.N,vsi_fault*%
X130720000Y-82621500D03*
%TO.P,IC5,76,GPIO10*%
%TO.N,/controller_sheet/pwm_dabb1*%
X130220000Y-82621500D03*
%TO.P,IC5,77,GPIO34*%
%TO.N,OCD_leakage*%
X129720000Y-82621500D03*
%TO.P,IC5,78,GPIO15*%
%TO.N,dc_fault*%
X129220000Y-82621500D03*
%TO.P,IC5,79,GPIO14*%
%TO.N,dc_ready*%
X128720000Y-82621500D03*
%TO.P,IC5,80,GPIO6*%
%TO.N,/controller_sheet/pwm_daba1*%
X128220000Y-82621500D03*
%TD*%
D12*
%TO.P,J9,1,Pin_1*%
%TO.N,Analog_in1*%
X88005000Y-133720000D03*
D13*
%TO.P,J9,2,Pin_2*%
%TO.N,Analog_in2*%
X88005000Y-136260000D03*
%TO.P,J9,3,Pin_3*%
%TO.N,Analog_in3*%
X88005000Y-138800000D03*
%TO.P,J9,4,Pin_4*%
%TO.N,Analog_in4*%
X88005000Y-141340000D03*
%TO.P,J9,5,Pin_5*%
%TO.N,Analog_in5*%
X88005000Y-143880000D03*
%TD*%
D16*
%TO.P,R37,1*%
%TO.N,Net-(J1-Pad2)*%
X147290000Y-100430000D03*
%TO.P,R37,2*%
%TO.N,ctrl_3v3*%
X147290000Y-103530000D03*
%TD*%
D17*
%TO.P,IC_dc_link_leakage1,1,1OUT*%
%TO.N,Igrid1_sense*%
X107798000Y-99350000D03*
%TO.P,IC_dc_link_leakage1,2,1IN-*%
%TO.N,Net-(C14-Pad2)*%
X107798000Y-100620000D03*
%TO.P,IC_dc_link_leakage1,3,1IN+*%
%TO.N,Net-(C6-Pad1)*%
X107798000Y-101890000D03*
%TO.P,IC_dc_link_leakage1,4,VCC*%
%TO.N,ctrl_15*%
X107798000Y-103160000D03*
%TO.P,IC_dc_link_leakage1,5,2IN+*%
%TO.N,Net-(C5-Pad1)*%
X107798000Y-104430000D03*
%TO.P,IC_dc_link_leakage1,6,2IN-*%
%TO.N,Net-(C13-Pad2)*%
X107798000Y-105700000D03*
%TO.P,IC_dc_link_leakage1,7,2OUT*%
%TO.N,Vgrid1_sense*%
X107798000Y-106970000D03*
%TO.P,IC_dc_link_leakage1,8,3OUT*%
%TO.N,Vdc_link*%
X113222000Y-106970000D03*
%TO.P,IC_dc_link_leakage1,9,3IN-*%
%TO.N,Net-(C20-Pad1)*%
X113222000Y-105700000D03*
%TO.P,IC_dc_link_leakage1,10,3IN+*%
%TO.N,Net-(C24-Pad1)*%
X113222000Y-104430000D03*
%TO.P,IC_dc_link_leakage1,11,GND*%
%TO.N,ctrl_-15*%
X113222000Y-103160000D03*
%TO.P,IC_dc_link_leakage1,12,4IN+*%
%TO.N,Net-(C25-Pad1)*%
X113222000Y-101890000D03*
%TO.P,IC_dc_link_leakage1,13,4IN-*%
%TO.N,Net-(C22-Pad2)*%
X113222000Y-100620000D03*
%TO.P,IC_dc_link_leakage1,14,4OUT*%
%TO.N,I_leackage*%
X113222000Y-99350000D03*
%TD*%
D12*
%TO.P,J2,1,Pin_1*%
%TO.N,Net-(J2-Pad1)*%
X143380000Y-97705000D03*
D13*
%TO.P,J2,2,Pin_2*%
%TO.N,Net-(IC5-Pad41)*%
X143380000Y-95165000D03*
%TD*%
D18*
%TO.P,B1,1*%
%TO.N,unconnected-(B1-Pad1)*%
X151465000Y-118800000D03*
%TO.P,B1,2,IOREF*%
%TO.N,unconnected-(B1-Pad2)*%
X154005000Y-118800000D03*
%TO.P,B1,3,RST*%
%TO.N,unconnected-(B1-Pad3)*%
X156545000Y-118800000D03*
%TO.P,B1,4,3V3*%
%TO.N,FPGA_3v3*%
X159085000Y-118800000D03*
%TO.P,B1,5,5V0*%
%TO.N,unconnected-(B1-Pad5)*%
X161625000Y-118800000D03*
%TO.P,B1,6,GND*%
%TO.N,ctrl_gnd*%
X164165000Y-118800000D03*
%TO.P,B1,7,GND*%
X166705000Y-118800000D03*
%TO.P,B1,8,VIN*%
%TO.N,ctrl_15*%
X169245000Y-118800000D03*
%TO.P,B1,10,V_P*%
%TO.N,unconnected-(B1-Pad10)*%
X161625000Y-116260000D03*
%TO.P,B1,11,V_N*%
%TO.N,unconnected-(B1-Pad11)*%
X164165000Y-116260000D03*
%TO.P,B1,12,XGND*%
%TO.N,unconnected-(B1-Pad12)*%
X166705000Y-116260000D03*
%TO.P,B1,13,XVREF*%
%TO.N,unconnected-(B1-Pad13)*%
X169245000Y-116260000D03*
%TO.P,B1,14,A0*%
%TO.N,OCD_grid1*%
X174325000Y-118800000D03*
%TO.P,B1,15,A1*%
%TO.N,OCD_grd2*%
X176865000Y-118800000D03*
%TO.P,B1,16,A2*%
%TO.N,OCD_grid3*%
X179405000Y-118800000D03*
%TO.P,B1,17,A3*%
%TO.N,unconnected-(B1-Pad17)*%
X181945000Y-118800000D03*
%TO.P,B1,18,A4*%
%TO.N,unconnected-(B1-Pad18)*%
X184485000Y-118800000D03*
%TO.P,B1,19,A5*%
%TO.N,unconnected-(B1-Pad19)*%
X187025000Y-118800000D03*
%TO.P,B1,20,A6*%
%TO.N,unconnected-(B1-Pad20)*%
X174325000Y-116260000D03*
%TO.P,B1,21,A7*%
%TO.N,unconnected-(B1-Pad21)*%
X176865000Y-116260000D03*
%TO.P,B1,22,A8*%
%TO.N,unconnected-(B1-Pad22)*%
X179405000Y-116260000D03*
%TO.P,B1,23,A9*%
%TO.N,unconnected-(B1-Pad23)*%
X181945000Y-116260000D03*
%TO.P,B1,24,A10*%
%TO.N,unconnected-(B1-Pad24)*%
X184485000Y-116260000D03*
%TO.P,B1,25,A11*%
%TO.N,unconnected-(B1-Pad25)*%
X187025000Y-116260000D03*
%TO.P,B1,26,IO41*%
%TO.N,batt_ready*%
X147435000Y-73060000D03*
%TO.P,B1,27,IO40*%
%TO.N,batt_fault*%
X149975000Y-73060000D03*
%TO.P,B1,28,IO39*%
%TO.N,DAB2_PWM22*%
X152515000Y-73060000D03*
%TO.P,B1,29,IO38*%
%TO.N,DAB2_PWM21*%
X155055000Y-73060000D03*
%TO.P,B1,30,IO37*%
%TO.N,DAB2_PWM12*%
X157595000Y-73060000D03*
%TO.P,B1,31,IO36*%
%TO.N,DAB2_PWM11*%
X160135000Y-73060000D03*
%TO.P,B1,32,IO35*%
%TO.N,DAB1PWM22*%
X162675000Y-73060000D03*
%TO.P,B1,33,IO34*%
%TO.N,DAB1PWM21*%
X165215000Y-73060000D03*
%TO.P,B1,34,IO33*%
%TO.N,DAB1PWM12*%
X169245000Y-73060000D03*
%TO.P,B1,35,IO32*%
%TO.N,DAB1PWM11*%
X171785000Y-73060000D03*
%TO.P,B1,36,IO31*%
%TO.N,VSI32*%
X174325000Y-73060000D03*
%TO.P,B1,37,IO30*%
%TO.N,VSI31*%
X176865000Y-73060000D03*
%TO.P,B1,38,IO29*%
%TO.N,VSI22*%
X179405000Y-73060000D03*
%TO.P,B1,39,IO28*%
%TO.N,VSI21*%
X181945000Y-73060000D03*
%TO.P,B1,40,IO27*%
%TO.N,VSI12*%
X184485000Y-73060000D03*
%TO.P,B1,41,IO28*%
%TO.N,VSI11*%
X187025000Y-73080000D03*
%TO.P,B1,42,SCL*%
%TO.N,SCL*%
X142355000Y-70520000D03*
%TO.P,B1,43,SDA*%
%TO.N,SDA*%
X144895000Y-70520000D03*
%TO.P,B1,44,A*%
%TO.N,unconnected-(B1-Pad44)*%
X147435000Y-70520000D03*
%TO.P,B1,45,G*%
%TO.N,unconnected-(B1-Pad45)*%
X149975000Y-70520000D03*
%TO.P,B1,46,IO13*%
%TO.N,vsi_ready*%
X152515000Y-70520000D03*
%TO.P,B1,47,IO12*%
%TO.N,vsi_fault*%
X155055000Y-70520000D03*
%TO.P,B1,48,IO11*%
%TO.N,OCD_leakage*%
X157595000Y-70520000D03*
%TO.P,B1,49,IO10*%
%TO.N,dc_fault*%
X160135000Y-70520000D03*
%TO.P,B1,50,IO9*%
%TO.N,dc_ready*%
X162675000Y-70520000D03*
%TO.P,B1,51,IO8*%
%TO.N,/controller_sheet/en_dab*%
X165215000Y-70520000D03*
%TO.P,B1,52,IO7*%
%TO.N,/controller_sheet/en_vsi*%
X169245000Y-70520000D03*
%TO.P,B1,53,IO6*%
%TO.N,/controller_sheet/pwm_dabb2*%
X171785000Y-70520000D03*
%TO.P,B1,54,IO5*%
%TO.N,/controller_sheet/pwm_daba2*%
X174325000Y-70520000D03*
%TO.P,B1,55,IO4*%
%TO.N,/controller_sheet/pwmVSI3*%
X176865000Y-70520000D03*
%TO.P,B1,56,IO3*%
%TO.N,/controller_sheet/pwmVSI2*%
X179405000Y-70520000D03*
%TO.P,B1,57,IO2*%
%TO.N,/controller_sheet/pwmVSI1*%
X181945000Y-70520000D03*
%TO.P,B1,58,IO1*%
%TO.N,/controller_sheet/pwm_dabb1*%
X184485000Y-70520000D03*
%TO.P,B1,59,IO0*%
%TO.N,/controller_sheet/pwm_daba1*%
X187025000Y-70540000D03*
%TO.P,B1,60,JA1*%
%TO.N,unconnected-(B1-Pad60)*%
X99275000Y-62580000D03*
%TO.P,B1,61,JA2*%
%TO.N,unconnected-(B1-Pad61)*%
X101815000Y-62580000D03*
%TO.P,B1,62,JA3*%
%TO.N,unconnected-(B1-Pad62)*%
X104355000Y-62580000D03*
%TO.P,B1,63,JA4*%
%TO.N,unconnected-(B1-Pad63)*%
X106895000Y-62580000D03*
%TO.P,B1,64,JA5*%
%TO.N,unconnected-(B1-Pad64)*%
X109435000Y-62580000D03*
%TO.P,B1,65,JA6*%
%TO.N,unconnected-(B1-Pad65)*%
X111975000Y-62580000D03*
%TO.P,B1,66,JA7*%
%TO.N,unconnected-(B1-Pad66)*%
X99275000Y-60040000D03*
%TO.P,B1,67,JA8*%
%TO.N,unconnected-(B1-Pad67)*%
X101815000Y-60040000D03*
%TO.P,B1,68,JA9*%
%TO.N,unconnected-(B1-Pad68)*%
X104355000Y-60040000D03*
%TO.P,B1,69,JA10*%
%TO.N,unconnected-(B1-Pad69)*%
X106895000Y-60040000D03*
%TO.P,B1,70,JA11*%
%TO.N,unconnected-(B1-Pad70)*%
X109435000Y-60040000D03*
%TO.P,B1,71,JA12*%
%TO.N,unconnected-(B1-Pad71)*%
X111975000Y-60040000D03*
%TO.P,B1,72,JB1*%
%TO.N,unconnected-(B1-Pad72)*%
X122075000Y-62580000D03*
%TO.P,B1,73,JB2*%
%TO.N,unconnected-(B1-Pad73)*%
X124615000Y-62580000D03*
%TO.P,B1,74,JB3*%
%TO.N,unconnected-(B1-Pad74)*%
X127155000Y-62580000D03*
%TO.P,B1,75,JB4*%
%TO.N,unconnected-(B1-Pad75)*%
X129695000Y-62580000D03*
%TO.P,B1,76,JB5*%
%TO.N,unconnected-(B1-Pad76)*%
X132235000Y-62580000D03*
%TO.P,B1,77,JB6*%
%TO.N,unconnected-(B1-Pad77)*%
X134775000Y-62580000D03*
%TO.P,B1,78,JB7*%
%TO.N,unconnected-(B1-Pad78)*%
X122075000Y-60040000D03*
%TO.P,B1,79,JB8*%
%TO.N,unconnected-(B1-Pad79)*%
X124615000Y-60040000D03*
%TO.P,B1,80,JB9*%
%TO.N,unconnected-(B1-Pad80)*%
X127155000Y-60040000D03*
%TO.P,B1,81,JB10*%
%TO.N,unconnected-(B1-Pad81)*%
X129695000Y-60040000D03*
%TO.P,B1,82,JB11*%
%TO.N,unconnected-(B1-Pad82)*%
X132235000Y-60040000D03*
%TO.P,B1,83,JB12*%
%TO.N,unconnected-(B1-Pad83)*%
X134775000Y-60040000D03*
%TO.P,B1,84,JC1*%
%TO.N,unconnected-(B1-Pad84)*%
X144875000Y-62580000D03*
%TO.P,B1,85,JC2*%
%TO.N,unconnected-(B1-Pad85)*%
X147415000Y-62580000D03*
%TO.P,B1,86,JC3*%
%TO.N,unconnected-(B1-Pad86)*%
X149955000Y-62580000D03*
%TO.P,B1,87,JC4*%
%TO.N,unconnected-(B1-Pad87)*%
X152495000Y-62580000D03*
%TO.P,B1,88,JC5*%
%TO.N,unconnected-(B1-Pad88)*%
X155035000Y-62580000D03*
%TO.P,B1,89,JC6*%
%TO.N,unconnected-(B1-Pad89)*%
X157575000Y-62580000D03*
%TO.P,B1,90,JC7*%
%TO.N,unconnected-(B1-Pad90)*%
X144875000Y-60040000D03*
%TO.P,B1,91,JC8*%
%TO.N,unconnected-(B1-Pad91)*%
X147415000Y-60040000D03*
%TO.P,B1,92,JC10*%
%TO.N,unconnected-(B1-Pad92)*%
X149955000Y-60040000D03*
%TO.P,B1,93,JC10*%
%TO.N,unconnected-(B1-Pad93)*%
X152495000Y-60040000D03*
%TO.P,B1,94,JC11*%
%TO.N,unconnected-(B1-Pad94)*%
X155035000Y-60040000D03*
%TO.P,B1,95,JC12*%
%TO.N,unconnected-(B1-Pad95)*%
X157575000Y-60040000D03*
%TO.P,B1,96,JD1*%
%TO.N,unconnected-(B1-Pad96)*%
X167675000Y-62580000D03*
%TO.P,B1,97,JD2*%
%TO.N,unconnected-(B1-Pad97)*%
X170215000Y-62580000D03*
%TO.P,B1,98,JD3*%
%TO.N,unconnected-(B1-Pad98)*%
X172755000Y-62580000D03*
%TO.P,B1,99,JD4*%
%TO.N,unconnected-(B1-Pad99)*%
X175295000Y-62580000D03*
%TO.P,B1,100,JD5*%
%TO.N,unconnected-(B1-Pad100)*%
X177835000Y-62580000D03*
%TO.P,B1,101,JD6*%
%TO.N,unconnected-(B1-Pad101)*%
X180375000Y-62580000D03*
%TO.P,B1,102,JD7*%
%TO.N,unconnected-(B1-Pad102)*%
X167675000Y-60040000D03*
%TO.P,B1,103,JD8*%
%TO.N,unconnected-(B1-Pad103)*%
X170215000Y-60040000D03*
%TO.P,B1,104,JD9*%
%TO.N,unconnected-(B1-Pad104)*%
X172755000Y-60040000D03*
%TO.P,B1,105,JD10*%
%TO.N,unconnected-(B1-Pad105)*%
X175295000Y-60040000D03*
%TO.P,B1,106,JD11*%
%TO.N,unconnected-(B1-Pad106)*%
X177835000Y-60040000D03*
%TO.P,B1,107,JD12*%
%TO.N,unconnected-(B1-Pad107)*%
X180375000Y-60040000D03*
%TD*%
D17*
%TO.P,IC_batt_2,1,1OUT*%
%TO.N,ADC3*%
X130908000Y-122090000D03*
%TO.P,IC_batt_2,2,1IN-*%
X130908000Y-123360000D03*
%TO.P,IC_batt_2,3,1IN+*%
%TO.N,Net-(C8-Pad1)*%
X130908000Y-124630000D03*
%TO.P,IC_batt_2,4,VCC*%
%TO.N,ctrl_15*%
X130908000Y-125900000D03*
%TO.P,IC_batt_2,5,2IN+*%
%TO.N,Net-(C10-Pad1)*%
X130908000Y-127170000D03*
%TO.P,IC_batt_2,6,2IN-*%
%TO.N,ADC4*%
X130908000Y-128440000D03*
%TO.P,IC_batt_2,7,2OUT*%
X130908000Y-129710000D03*
%TO.P,IC_batt_2,8,3OUT*%
%TO.N,unconnected-(IC_batt_2-Pad8)*%
X136332000Y-129710000D03*
%TO.P,IC_batt_2,9,3IN-*%
%TO.N,unconnected-(IC_batt_2-Pad9)*%
X136332000Y-128440000D03*
%TO.P,IC_batt_2,10,3IN+*%
%TO.N,unconnected-(IC_batt_2-Pad10)*%
X136332000Y-127170000D03*
%TO.P,IC_batt_2,11,GND*%
%TO.N,ctrl_-15*%
X136332000Y-125900000D03*
%TO.P,IC_batt_2,12,4IN+*%
%TO.N,Net-(C23-Pad1)*%
X136332000Y-124630000D03*
%TO.P,IC_batt_2,13,4IN-*%
%TO.N,ADC5*%
X136332000Y-123360000D03*
%TO.P,IC_batt_2,14,4OUT*%
X136332000Y-122090000D03*
%TD*%
D12*
%TO.P,J8,1,Pin_1*%
%TO.N,V_dc_link*%
X126905000Y-140670000D03*
D13*
%TO.P,J8,2,Pin_2*%
%TO.N,curr_leakeage_i*%
X126905000Y-143210000D03*
%TD*%
D16*
%TO.P,R46,1*%
%TO.N,DAB2_PWM12*%
X157600000Y-75300000D03*
%TO.P,R46,2*%
%TO.N,ctrl_gnd*%
X157600000Y-78400000D03*
%TD*%
%TO.P,R30,1*%
%TO.N,VSI11*%
X186940000Y-75150000D03*
%TO.P,R30,2*%
%TO.N,ctrl_gnd*%
X186940000Y-78250000D03*
%TD*%
%TO.P,R48,1*%
%TO.N,DAB2_PWM22*%
X152480000Y-75230000D03*
%TO.P,R48,2*%
%TO.N,ctrl_gnd*%
X152480000Y-78330000D03*
%TD*%
%TO.P,R52,1*%
%TO.N,DAB1PWM22*%
X162680000Y-75260000D03*
%TO.P,R52,2*%
%TO.N,ctrl_gnd*%
X162680000Y-78360000D03*
%TD*%
%TO.P,R45,1*%
%TO.N,DAB2_PWM11*%
X160160000Y-75290000D03*
%TO.P,R45,2*%
%TO.N,ctrl_gnd*%
X160160000Y-78390000D03*
%TD*%
%TO.P,R31,1*%
%TO.N,VSI12*%
X184460000Y-75160000D03*
%TO.P,R31,2*%
%TO.N,ctrl_gnd*%
X184460000Y-78260000D03*
%TD*%
%TO.P,R42,1*%
%TO.N,VSI22*%
X179540000Y-75160000D03*
%TO.P,R42,2*%
%TO.N,ctrl_gnd*%
X179540000Y-78260000D03*
%TD*%
%TO.P,R49,1*%
%TO.N,DAB1PWM11*%
X171670000Y-75120000D03*
%TO.P,R49,2*%
%TO.N,ctrl_gnd*%
X171670000Y-78220000D03*
%TD*%
D11*
%TO.P,R17,1*%
%TO.N,/controller_sheet/pwmVSI2*%
X179430000Y-68510000D03*
%TO.P,R17,2*%
%TO.N,ctrl_gnd*%
X179430000Y-65410000D03*
%TD*%
D12*
%TO.P,J4,1,Pin_1*%
%TO.N,Net-(J4-Pad1)*%
X146855000Y-87690000D03*
D13*
%TO.P,J4,2,Pin_2*%
%TO.N,Net-(IC5-Pad49)*%
X144315000Y-87690000D03*
%TD*%
D16*
%TO.P,R34,1*%
%TO.N,VSI21*%
X181950000Y-75180000D03*
%TO.P,R34,2*%
%TO.N,ctrl_gnd*%
X181950000Y-78280000D03*
%TD*%
D11*
%TO.P,R11,1*%
%TO.N,/controller_sheet/pwm_daba1*%
X187070000Y-68570000D03*
%TO.P,R11,2*%
%TO.N,ctrl_gnd*%
X187070000Y-65470000D03*
%TD*%
D16*
%TO.P,R27,1*%
%TO.N,ctrl_gnd*%
X165240000Y-65270000D03*
%TO.P,R27,2*%
%TO.N,/controller_sheet/en_dab*%
X165240000Y-68370000D03*
%TD*%
D11*
%TO.P,R18,1*%
%TO.N,/controller_sheet/pwmVSI3*%
X176950000Y-68490000D03*
%TO.P,R18,2*%
%TO.N,ctrl_gnd*%
X176950000Y-65390000D03*
%TD*%
%TO.P,R22,1*%
%TO.N,/controller_sheet/pwm_dabb2*%
X171850000Y-68480000D03*
%TO.P,R22,2*%
%TO.N,ctrl_gnd*%
X171850000Y-65380000D03*
%TD*%
D12*
%TO.P,J6,1,Pin_1*%
%TO.N,Net-(J5-Pad1)*%
X143350000Y-140600000D03*
D13*
%TO.P,J6,2,Pin_2*%
%TO.N,ctrl_3v3*%
X143350000Y-143140000D03*
%TD*%
D16*
%TO.P,R10,1*%
%TO.N,SCL*%
X142350000Y-72720000D03*
%TO.P,R10,2*%
%TO.N,ctrl_3v3*%
X142350000Y-75820000D03*
%TD*%
D19*
%TO.P,IC1,1,VCC_1*%
%TO.N,ctrl_3v3*%
X123052000Y-96315000D03*
%TO.P,IC1,2,D01*%
%TO.N,batt_V_sense*%
X123052000Y-95045000D03*
%TO.P,IC1,3,D02*%
%TO.N,batt_curr_sense*%
X123052000Y-93775000D03*
%TO.P,IC1,4,D03*%
%TO.N,Vdc_link*%
X123052000Y-92505000D03*
%TO.P,IC1,5,D04*%
%TO.N,unconnected-(IC1-Pad5)*%
X123052000Y-91235000D03*
%TO.P,IC1,6,D05*%
%TO.N,unconnected-(IC1-Pad6)*%
X123052000Y-89965000D03*
%TO.P,IC1,7,D06*%
%TO.N,unconnected-(IC1-Pad7)*%
X123052000Y-88695000D03*
%TO.P,IC1,8,D07*%
%TO.N,unconnected-(IC1-Pad8)*%
X123052000Y-87425000D03*
%TO.P,IC1,9,D08*%
%TO.N,unconnected-(IC1-Pad9)*%
X123052000Y-86155000D03*
%TO.P,IC1,10,GND_1*%
%TO.N,ctrl_gnd*%
X123052000Y-84885000D03*
%TO.P,IC1,11,GND_2*%
X115928000Y-84885000D03*
%TO.P,IC1,12,D09*%
%TO.N,Igrid2_sense*%
X115928000Y-86155000D03*
%TO.P,IC1,13,D10*%
%TO.N,Vgrid2_sense*%
X115928000Y-87425000D03*
%TO.P,IC1,14,D11*%
%TO.N,Igrid3_sense*%
X115928000Y-88695000D03*
%TO.P,IC1,15,D12*%
%TO.N,Vgrid3_sense*%
X115928000Y-89965000D03*
%TO.P,IC1,16,D13*%
%TO.N,Igrid1_sense*%
X115928000Y-91235000D03*
%TO.P,IC1,17,D14*%
%TO.N,Vgrid1_sense*%
X115928000Y-92505000D03*
%TO.P,IC1,18,D15*%
%TO.N,I_leackage*%
X115928000Y-93775000D03*
%TO.P,IC1,19,D16*%
%TO.N,offset_v*%
X115928000Y-95045000D03*
%TO.P,IC1,20,VCC_2*%
%TO.N,ctrl_3v3*%
X115928000Y-96315000D03*
%TD*%
D12*
%TO.P,J_power1,1,Pin_1*%
%TO.N,ctrl_15*%
X134445000Y-143135000D03*
D13*
%TO.P,J_power1,2,Pin_2*%
%TO.N,ctrl_-15*%
X134445000Y-140595000D03*
%TO.P,J_power1,3,Pin_3*%
%TO.N,ctrl_3v3*%
X136985000Y-143135000D03*
%TO.P,J_power1,4,Pin_4*%
%TO.N,ctrl_gnd*%
X136985000Y-140595000D03*
%TO.P,J_power1,5,Pin_5*%
%TO.N,24_gnd*%
X139525000Y-143135000D03*
%TO.P,J_power1,6,Pin_6*%
%TO.N,V_12*%
X139525000Y-140595000D03*
%TD*%
D20*
%TO.P,R40,1*%
%TO.N,Net-(J4-Pad1)*%
X149690000Y-87640000D03*
%TO.P,R40,2*%
%TO.N,ctrl_gnd*%
X152790000Y-87640000D03*
%TD*%
D16*
%TO.P,R51,1*%
%TO.N,DAB1PWM21*%
X165180000Y-75190000D03*
%TO.P,R51,2*%
%TO.N,ctrl_gnd*%
X165180000Y-78290000D03*
%TD*%
%TO.P,R50,1*%
%TO.N,DAB1PWM12*%
X169080000Y-75110000D03*
%TO.P,R50,2*%
%TO.N,ctrl_gnd*%
X169080000Y-78210000D03*
%TD*%
D11*
%TO.P,R24,1*%
%TO.N,/controller_sheet/en_vsi*%
X169280000Y-68310000D03*
%TO.P,R24,2*%
%TO.N,ctrl_gnd*%
X169280000Y-65210000D03*
%TD*%
D17*
%TO.P,IC_grid23,1,1OUT*%
%TO.N,Igrid3_sense*%
X108106000Y-78950000D03*
%TO.P,IC_grid23,2,1IN-*%
%TO.N,Net-(C12-Pad2)*%
X108106000Y-80220000D03*
%TO.P,IC_grid23,3,1IN+*%
%TO.N,Net-(C1-Pad1)*%
X108106000Y-81490000D03*
%TO.P,IC_grid23,4,VCC*%
%TO.N,ctrl_15*%
X108106000Y-82760000D03*
%TO.P,IC_grid23,5,2IN+*%
%TO.N,Net-(C3-Pad1)*%
X108106000Y-84030000D03*
%TO.P,IC_grid23,6,2IN-*%
%TO.N,Net-(C11-Pad2)*%
X108106000Y-85300000D03*
%TO.P,IC_grid23,7,2OUT*%
%TO.N,Vgrid3_sense*%
X108106000Y-86570000D03*
%TO.P,IC_grid23,8,3OUT*%
%TO.N,Vgrid2_sense*%
X113530000Y-86570000D03*
%TO.P,IC_grid23,9,3IN-*%
%TO.N,Net-(C15-Pad1)*%
X113530000Y-85300000D03*
%TO.P,IC_grid23,10,3IN+*%
%TO.N,Net-(C7-Pad1)*%
X113530000Y-84030000D03*
%TO.P,IC_grid23,11,GND*%
%TO.N,ctrl_-15*%
X113530000Y-82760000D03*
%TO.P,IC_grid23,12,4IN+*%
%TO.N,Net-(C9-Pad1)*%
X113530000Y-81490000D03*
%TO.P,IC_grid23,13,4IN-*%
%TO.N,Net-(C21-Pad2)*%
X113530000Y-80220000D03*
%TO.P,IC_grid23,14,4OUT*%
%TO.N,Igrid2_sense*%
X113530000Y-78950000D03*
%TD*%
D16*
%TO.P,R38,1*%
%TO.N,Net-(J2-Pad1)*%
X143410000Y-100420000D03*
%TO.P,R38,2*%
%TO.N,ctrl_gnd*%
X143410000Y-103520000D03*
%TD*%
%TO.P,R44,1*%
%TO.N,VSI32*%
X174220000Y-75090000D03*
%TO.P,R44,2*%
%TO.N,ctrl_gnd*%
X174220000Y-78190000D03*
%TD*%
D17*
%TO.P,IC_batt_1,1,1OUT*%
%TO.N,batt_V_sense*%
X123338000Y-110970000D03*
%TO.P,IC_batt_1,2,1IN-*%
X123338000Y-112240000D03*
%TO.P,IC_batt_1,3,1IN+*%
%TO.N,Net-(C26-Pad1)*%
X123338000Y-113510000D03*
%TO.P,IC_batt_1,4,VCC*%
%TO.N,ctrl_15*%
X123338000Y-114780000D03*
%TO.P,IC_batt_1,5,2IN+*%
%TO.N,Net-(C2-Pad1)*%
X123338000Y-116050000D03*
%TO.P,IC_batt_1,6,2IN-*%
%TO.N,Net-(C28-Pad2)*%
X123338000Y-117320000D03*
%TO.P,IC_batt_1,7,2OUT*%
%TO.N,batt_curr_sense*%
X123338000Y-118590000D03*
%TO.P,IC_batt_1,8,3OUT*%
%TO.N,ADC1*%
X128762000Y-118590000D03*
%TO.P,IC_batt_1,9,3IN-*%
X128762000Y-117320000D03*
%TO.P,IC_batt_1,10,3IN+*%
%TO.N,Net-(C4-Pad1)*%
X128762000Y-116050000D03*
%TO.P,IC_batt_1,11,GND*%
%TO.N,ctrl_-15*%
X128762000Y-114780000D03*
%TO.P,IC_batt_1,12,4IN+*%
%TO.N,Net-(C30-Pad1)*%
X128762000Y-113510000D03*
%TO.P,IC_batt_1,13,4IN-*%
%TO.N,ADC2*%
X128762000Y-112240000D03*
%TO.P,IC_batt_1,14,4OUT*%
X128762000Y-110970000D03*
%TD*%
D20*
%TO.P,R39,1*%
%TO.N,Net-(J3-Pad2)*%
X149780000Y-91590000D03*
%TO.P,R39,2*%
%TO.N,ctrl_3v3*%
X152880000Y-91590000D03*
%TD*%
D21*
%TO.P,J5,1,1*%
%TO.N,Net-(J5-Pad1)*%
X148760000Y-137855000D03*
%TO.P,J5,2,2*%
%TO.N,TCK*%
X149760000Y-137855000D03*
%TO.P,J5,3,3*%
%TO.N,TDO*%
X150760000Y-137855000D03*
%TO.P,J5,4,4*%
%TO.N,TMS*%
X151760000Y-137855000D03*
%TO.P,J5,5,5*%
%TO.N,TDI*%
X152760000Y-137855000D03*
%TO.P,J5,6,6*%
%TO.N,unconnected-(J5-Pad6)*%
X153760000Y-137855000D03*
%TO.P,J5,7,7*%
%TO.N,SCITX*%
X154760000Y-137855000D03*
%TO.P,J5,8,8*%
%TO.N,SCiRX*%
X155760000Y-137855000D03*
%TO.P,J5,9,9*%
%TO.N,ctrl_gnd*%
X156760000Y-137855000D03*
%TO.P,J5,10,10*%
%TO.N,unconnected-(J5-Pad10)*%
X157760000Y-137855000D03*
D22*
%TO.P,J5,11,11*%
%TO.N,unconnected-(J5-Pad11)*%
X146960000Y-143105000D03*
%TO.P,J5,12,12*%
%TO.N,unconnected-(J5-Pad12)*%
X159560000Y-143105000D03*
%TD*%
D12*
%TO.P,J10,1,Pin_1*%
%TO.N,batt_v*%
X130665000Y-140620000D03*
D13*
%TO.P,J10,2,Pin_2*%
%TO.N,batt_curr_0*%
X130665000Y-143160000D03*
%TD*%
D16*
%TO.P,R43,1*%
%TO.N,VSI31*%
X176840000Y-75190000D03*
%TO.P,R43,2*%
%TO.N,ctrl_gnd*%
X176840000Y-78290000D03*
%TD*%
%TO.P,R47,1*%
%TO.N,DAB2_PWM21*%
X155050000Y-75310000D03*
%TO.P,R47,2*%
%TO.N,ctrl_gnd*%
X155050000Y-78410000D03*
%TD*%
%TO.P,R9,1*%
%TO.N,SDA*%
X144840000Y-72730000D03*
%TO.P,R9,2*%
%TO.N,ctrl_3v3*%
X144840000Y-75830000D03*
%TD*%
D11*
%TO.P,R14,1*%
%TO.N,/controller_sheet/pwmVSI1*%
X181860000Y-68510000D03*
%TO.P,R14,2*%
%TO.N,ctrl_gnd*%
X181860000Y-65410000D03*
%TD*%
D23*
%TO.N,ctrl_3v3*%
X125420000Y-99300000D03*
%TO.N,OCD_grid3*%
X110320000Y-132220000D03*
%TO.N,OCD_grd2*%
X109000000Y-130030000D03*
%TO.N,OCD_grid1*%
X107730000Y-131110000D03*
%TO.N,OCD_grid3*%
X136740000Y-97290000D03*
%TO.N,OCD_grd2*%
X136240000Y-97580000D03*
%TO.N,OCD_grid1*%
X135524500Y-99220000D03*
D24*
%TO.N,ctrl_3v3*%
X121190000Y-81030000D03*
D23*
%TO.N,ctrl_gnd*%
X124710552Y-88335174D03*
X132117135Y-95010498D03*
X122830000Y-84840000D03*
D24*
X126460000Y-97550000D03*
D23*
X133790000Y-83740000D03*
D24*
X143410000Y-103520000D03*
X133310000Y-101858750D03*
D23*
X138390000Y-86100000D03*
D24*
%TO.N,ctrl_-15*%
X102480000Y-88480000D03*
X104170000Y-135130000D03*
%TO.N,ctrl_3v3*%
X147340000Y-103530000D03*
D23*
X130140000Y-103550000D03*
D24*
X126120000Y-128090000D03*
X123250000Y-96320000D03*
X117949268Y-95986904D03*
D23*
X133296250Y-103592500D03*
D24*
X126080000Y-108930000D03*
D23*
%TO.N,/controller_sheet/en_dab*%
X145720000Y-80950000D03*
%TO.N,Vgrid1*%
X104520000Y-107240000D03*
D24*
%TO.N,Vgrid3*%
X104250000Y-86900000D03*
D23*
%TO.N,Vgrid2*%
X117250000Y-86810000D03*
D24*
%TO.N,Igrid3*%
X104420000Y-78790000D03*
%TO.N,Igrid2*%
X116910000Y-78510000D03*
D23*
%TO.N,Igrid1*%
X104300000Y-102280000D03*
D24*
%TO.N,batt_curr_0*%
X119820000Y-115600000D03*
%TO.N,batt_v*%
X127310000Y-118960000D03*
X117480000Y-119110000D03*
D23*
%TO.N,curr_leakeage_i*%
X117030000Y-99020000D03*
D24*
%TO.N,V_dc_link*%
X116900000Y-107180000D03*
D23*
%TO.N,/controller_sheet/en_vsi*%
X146620000Y-81950000D03*
%TO.N,Net-(C3-Pad1)*%
X104432327Y-83820000D03*
X108308000Y-84030000D03*
%TO.N,Net-(C9-Pad1)*%
X113528000Y-81500000D03*
%TO.N,Net-(C10-Pad1)*%
X130670000Y-127160000D03*
%TO.N,Net-(C8-Pad1)*%
X131020000Y-124650000D03*
%TO.N,/controller_sheet/pwmVSI3*%
X138520000Y-84390000D03*
%TO.N,/controller_sheet/pwmVSI2*%
X137719502Y-81120000D03*
%TO.N,/controller_sheet/pwmVSI1*%
X136710000Y-81010000D03*
%TO.N,batt_curr_sense*%
X118720000Y-114430000D03*
X123720000Y-118600000D03*
%TO.N,/controller_sheet/pwm_daba1*%
X128190000Y-80730000D03*
%TO.N,Igrid3_sense*%
X124589875Y-90113884D03*
X115623169Y-89261014D03*
X108188000Y-78940000D03*
%TO.N,Igrid2_sense*%
X124535500Y-89120000D03*
X113068000Y-78850000D03*
X118130000Y-86340000D03*
%TO.N,Igrid1_sense*%
X118130000Y-91400000D03*
X127410000Y-91120000D03*
X108064500Y-99340000D03*
%TO.N,Net-(C13-Pad2)*%
X107480000Y-105730000D03*
%TO.N,Vgrid1_sense*%
X127640000Y-91650000D03*
X118140000Y-92510000D03*
X107954500Y-107000000D03*
%TO.N,Vgrid2_sense*%
X124390000Y-89610000D03*
X113488000Y-86650000D03*
X115530000Y-87470000D03*
%TO.N,Vgrid3_sense*%
X124725500Y-90620000D03*
X116130000Y-90010000D03*
X108238000Y-86480000D03*
%TO.N,I_leackage*%
X127360000Y-92150000D03*
X112900000Y-99360000D03*
X115442638Y-93662012D03*
%TO.N,Vdc_link*%
X113694500Y-107020000D03*
X122630000Y-92560000D03*
D24*
%TO.N,Net-(C19-Pad1)*%
X126420000Y-95440000D03*
D23*
%TO.N,/controller_sheet/pwm_daba2*%
X140990000Y-85150000D03*
%TO.N,/controller_sheet/pwm_dabb2*%
X136080000Y-94800000D03*
%TO.N,/controller_sheet/pwm_dabb1*%
X130210000Y-80690000D03*
%TO.N,VDD*%
X132700000Y-81680000D03*
X140450000Y-88109500D03*
X127357812Y-88368858D03*
X133245500Y-97100000D03*
%TO.N,VDDA*%
X130800000Y-98340000D03*
X130820000Y-102602500D03*
X129927439Y-94535082D03*
%TO.N,VDDIO*%
X127780000Y-87600000D03*
X132030000Y-102582500D03*
X132200000Y-83680000D03*
X133719502Y-95519500D03*
X138330000Y-88950000D03*
X124670500Y-86790000D03*
%TO.N,SCITX*%
X136250000Y-98494500D03*
X131704500Y-89980000D03*
%TO.N,SCiRX*%
X134710000Y-98030000D03*
X133570000Y-92580000D03*
%TO.N,TDO*%
X138080000Y-91660000D03*
X139720000Y-95390000D03*
%TO.N,TMS*%
X151760000Y-137700000D03*
%TO.N,Net-(J5-Pad1)*%
X148720000Y-137680000D03*
%TO.N,Net-(C23-Pad1)*%
X136240000Y-124660000D03*
%TO.N,SCL*%
X140790000Y-92480000D03*
X140580000Y-111450000D03*
%TO.N,SDA*%
X141440000Y-111560000D03*
X140770000Y-93080000D03*
%TO.N,vsi_ready*%
X131230000Y-85580000D03*
%TO.N,vsi_fault*%
X130745500Y-81320000D03*
%TO.N,Net-(C4-Pad1)*%
X128780000Y-116110000D03*
%TO.N,offset_v*%
X109622500Y-99477500D03*
X122790000Y-101850000D03*
D24*
X125082500Y-115987500D03*
D23*
X116750000Y-95040000D03*
X111420000Y-83930000D03*
D24*
X124170000Y-103750000D03*
D23*
%TO.N,batt_fault*%
X137110500Y-93480500D03*
%TO.N,batt_ready*%
X137650000Y-94490000D03*
%TO.N,ADC5*%
X136022038Y-122114152D03*
X132350000Y-97750000D03*
%TO.N,ADC4*%
X130950000Y-128410000D03*
X131789023Y-97654000D03*
%TO.N,ADC3*%
X131370000Y-122080000D03*
X131294500Y-97940000D03*
%TO.N,Analog_in1*%
X124608000Y-110610000D03*
D24*
X120180000Y-126700000D03*
D23*
%TO.N,Analog_in2*%
X126695500Y-110750000D03*
D24*
X120180000Y-129240000D03*
%TO.N,Analog_in3*%
X132810000Y-120710000D03*
%TO.N,Analog_in4*%
X127530000Y-129940000D03*
%TO.N,Analog_in5*%
X135000000Y-120710000D03*
D23*
%TO.N,Net-(C28-Pad2)*%
X123210000Y-117270000D03*
%TO.N,Net-(C1-Pad1)*%
X108218000Y-81530000D03*
%TO.N,Net-(C2-Pad1)*%
X123110000Y-115990000D03*
%TO.N,Net-(C5-Pad1)*%
X107440000Y-104430000D03*
%TO.N,Net-(C6-Pad1)*%
X107670000Y-101920000D03*
%TO.N,Net-(C7-Pad1)*%
X113598000Y-84000000D03*
%TO.N,Net-(C11-Pad2)*%
X107998000Y-85250000D03*
%TO.N,Net-(C12-Pad2)*%
X108278000Y-80210000D03*
%TO.N,Net-(C14-Pad2)*%
X107590000Y-100720000D03*
%TO.N,Net-(C15-Pad1)*%
X113258000Y-85200000D03*
%TO.N,Net-(C20-Pad1)*%
X113220000Y-105610000D03*
%TO.N,Net-(C21-Pad2)*%
X113748000Y-80140000D03*
%TO.N,Net-(C22-Pad2)*%
X113240000Y-100700000D03*
%TO.N,Net-(C24-Pad1)*%
X113250000Y-104400000D03*
%TO.N,Net-(C25-Pad1)*%
X113250000Y-101970000D03*
D24*
%TO.N,Net-(C26-Pad1)*%
X122854375Y-113515625D03*
D23*
%TO.N,Net-(C30-Pad1)*%
X128600000Y-113510000D03*
%TD*%
D25*
%TO.N,ctrl_3v3*%
X125420000Y-98490000D02*
X125420000Y-99300000D01*
X123250000Y-96320000D02*
X125420000Y-98490000D01*
%TO.N,dc_ready*%
X162675000Y-70520000D02*
X162675000Y-68275000D01*
X162675000Y-68275000D02*
X159210000Y-64810000D01*
%TO.N,dc_fault*%
X160135000Y-70520000D02*
X160135000Y-66685000D01*
%TO.N,OCD_leakage*%
X157595000Y-67165000D02*
X157595000Y-70520000D01*
X156140000Y-65710000D02*
X157595000Y-67165000D01*
X137612792Y-65710000D02*
X156140000Y-65710000D01*
X129720000Y-82621500D02*
X129720000Y-73602792D01*
X129720000Y-73602792D02*
X137612792Y-65710000D01*
%TO.N,dc_fault*%
X160135000Y-66685000D02*
X158710000Y-65260000D01*
%TO.N,dc_ready*%
X137240000Y-64810000D02*
X159210000Y-64810000D01*
%TO.N,dc_fault*%
X158710000Y-65260000D02*
X137426396Y-65260000D01*
%TO.N,dc_ready*%
X128630000Y-73420000D02*
X137240000Y-64810000D01*
%TO.N,dc_fault*%
X137426396Y-65260000D02*
X129220000Y-73466396D01*
%TO.N,dc_ready*%
X128630000Y-78570000D02*
X128630000Y-73420000D01*
%TO.N,dc_fault*%
X129220000Y-73466396D02*
X129220000Y-82621500D01*
%TO.N,dc_ready*%
X128720000Y-82621500D02*
X128720000Y-78660000D01*
X128720000Y-78660000D02*
X128630000Y-78570000D01*
%TO.N,vsi_fault*%
X154370000Y-66210000D02*
X137749188Y-66210000D01*
X155055000Y-66895000D02*
X154370000Y-66210000D01*
%TO.N,vsi_ready*%
X152515000Y-70520000D02*
X152515000Y-68135000D01*
%TO.N,vsi_fault*%
X155055000Y-70520000D02*
X155055000Y-66895000D01*
%TO.N,Net-(IC5-Pad5)*%
X125010000Y-86429464D02*
X125010000Y-81830000D01*
X125190036Y-86609500D02*
X125010000Y-86429464D01*
X125010000Y-81830000D02*
X124210000Y-81030000D01*
X126232000Y-86609500D02*
X125190036Y-86609500D01*
%TO.N,ctrl_gnd*%
X115928000Y-84885000D02*
X123052000Y-84885000D01*
X130220000Y-96097500D02*
X130220000Y-95060000D01*
X138390000Y-86829000D02*
X138390000Y-86100000D01*
X133301000Y-83740000D02*
X133220000Y-83659000D01*
X128220000Y-95060000D02*
X128245000Y-95035000D01*
X133220000Y-83659000D02*
X133220000Y-82621500D01*
X132695000Y-95035000D02*
X132745000Y-95085000D01*
X133790000Y-83740000D02*
X133301000Y-83740000D01*
X165240000Y-65270000D02*
X186870000Y-65270000D01*
X130195000Y-95035000D02*
X130220000Y-95060000D01*
X156760000Y-126960000D02*
X164165000Y-119555000D01*
X167880000Y-115773299D02*
X167880000Y-117625000D01*
X188443860Y-66843860D02*
X188443860Y-76746140D01*
X167880000Y-117625000D02*
X166705000Y-118800000D01*
X187070000Y-65470000D02*
X188443860Y-66843860D01*
X130220000Y-95060000D02*
X130245000Y-95035000D01*
X152480000Y-78330000D02*
X167390000Y-78330000D01*
X166790000Y-78930000D02*
X166790000Y-114683299D01*
X128220000Y-96860000D02*
X127500000Y-97580000D01*
X132745000Y-95085000D02*
X132745000Y-95320000D01*
X186860000Y-78330000D02*
X186940000Y-78250000D01*
X167390000Y-78330000D02*
X166790000Y-78930000D01*
X128220000Y-96097500D02*
X128220000Y-95060000D01*
X142870000Y-104060000D02*
X143410000Y-103520000D01*
X186870000Y-65270000D02*
X187070000Y-65470000D01*
X167390000Y-78330000D02*
X186860000Y-78330000D01*
X138670500Y-87109500D02*
X138390000Y-86829000D01*
X166790000Y-114683299D02*
X167880000Y-115773299D01*
X128245000Y-95035000D02*
X130195000Y-95035000D01*
X188443860Y-76746140D02*
X186940000Y-78250000D01*
X126490000Y-97580000D02*
X126460000Y-97550000D01*
X152790000Y-87640000D02*
X151590000Y-86440000D01*
X141500500Y-87109500D02*
X139708000Y-87109500D01*
X156760000Y-137855000D02*
X156760000Y-126960000D01*
X139708000Y-87109500D02*
X138670500Y-87109500D01*
X151590000Y-86440000D02*
X142170000Y-86440000D01*
X126232000Y-88609500D02*
X124984878Y-88609500D01*
X127500000Y-97580000D02*
X126490000Y-97580000D01*
X124984878Y-88609500D02*
X124710552Y-88335174D01*
X142170000Y-86440000D02*
X141500500Y-87109500D01*
X164165000Y-119555000D02*
X164165000Y-118800000D01*
X128220000Y-96097500D02*
X128220000Y-96860000D01*
X130245000Y-95035000D02*
X132695000Y-95035000D01*
%TO.N,ctrl_-15*%
X111889964Y-82760000D02*
X110390000Y-84259964D01*
X134445000Y-131345000D02*
X134100000Y-131000000D01*
X110390000Y-84259964D02*
X110390000Y-87140000D01*
X113222000Y-103160000D02*
X112754500Y-103160000D01*
X128762000Y-114780000D02*
X129199500Y-114780000D01*
X134445000Y-140595000D02*
X134445000Y-131345000D01*
X134930000Y-125900000D02*
X136332000Y-125900000D01*
X113530000Y-82760000D02*
X111889964Y-82760000D01*
X102480000Y-88480000D02*
X102970000Y-87990000D01*
X134100000Y-126730000D02*
X134930000Y-125900000D01*
X110390000Y-87140000D02*
X110390000Y-87370000D01*
X134100000Y-131110000D02*
X134100000Y-131000000D01*
X112100000Y-103814500D02*
X112100000Y-128490000D01*
X129199500Y-114780000D02*
X134100000Y-119680500D01*
X134100000Y-131000000D02*
X134100000Y-126730000D01*
X109540000Y-87990000D02*
X110390000Y-87140000D01*
X102970000Y-87990000D02*
X109540000Y-87990000D01*
X105460000Y-135130000D02*
X112100000Y-128490000D01*
X134100000Y-119680500D02*
X134100000Y-126730000D01*
X104170000Y-135130000D02*
X105460000Y-135130000D01*
X112754500Y-103160000D02*
X112100000Y-103814500D01*
%TO.N,ctrl_15*%
X122250500Y-119240000D02*
X122250500Y-115430000D01*
X130908000Y-125900000D02*
X130470500Y-125900000D01*
X107798000Y-103160000D02*
X97280000Y-103160000D01*
X134445000Y-143135000D02*
X135700000Y-141880000D01*
X99890000Y-144650000D02*
X96400000Y-141160000D01*
X122410000Y-119399500D02*
X122250500Y-119240000D01*
X96400000Y-141160000D02*
X96400000Y-104040000D01*
X126060250Y-130310250D02*
X124850250Y-130310250D01*
X132590000Y-141280000D02*
X134445000Y-143135000D01*
X169245000Y-128455000D02*
X169245000Y-118800000D01*
X132610000Y-140350000D02*
X132610000Y-141220000D01*
X130470500Y-125900000D02*
X126060250Y-130310250D01*
X102200000Y-82760000D02*
X108106000Y-82760000D01*
X134115000Y-143135000D02*
X132600000Y-144650000D01*
X132590000Y-141240000D02*
X132590000Y-141280000D01*
X96400000Y-88560000D02*
X102200000Y-82760000D01*
X124850250Y-132590250D02*
X132610000Y-140350000D01*
X122250500Y-115430000D02*
X122900500Y-114780000D01*
X155820000Y-141880000D02*
X169245000Y-128455000D01*
X123540250Y-130310250D02*
X122410000Y-129180000D01*
X124850250Y-130310250D02*
X123540250Y-130310250D01*
X97280000Y-103160000D02*
X96400000Y-104040000D01*
X132600000Y-144650000D02*
X99890000Y-144650000D01*
X134445000Y-143135000D02*
X134115000Y-143135000D01*
X122410000Y-129180000D02*
X122410000Y-119399500D01*
X135700000Y-141880000D02*
X155820000Y-141880000D01*
X124850250Y-130310250D02*
X124850250Y-132590250D01*
X122900500Y-114780000D02*
X123338000Y-114780000D01*
X132610000Y-141220000D02*
X132590000Y-141240000D01*
X101710000Y-83250000D02*
X102200000Y-82760000D01*
X96400000Y-104040000D02*
X96400000Y-88560000D01*
%TO.N,ctrl_3v3*%
X126120000Y-128090000D02*
X126080000Y-128050000D01*
X147290000Y-103530000D02*
X147340000Y-103530000D01*
X152880000Y-101790000D02*
X152880000Y-91590000D01*
X117621172Y-96315000D02*
X115928000Y-96315000D01*
X153765000Y-90705000D02*
X152880000Y-91590000D01*
X147340000Y-103530000D02*
X151140000Y-103530000D01*
X144830000Y-75820000D02*
X144840000Y-75830000D01*
X136985000Y-143135000D02*
X138310000Y-144460000D01*
X117949268Y-95986904D02*
X117621172Y-96315000D01*
X142030000Y-144460000D02*
X143350000Y-143140000D01*
X138310000Y-144460000D02*
X142030000Y-144460000D01*
X144840000Y-75830000D02*
X153765000Y-84755000D01*
X151140000Y-103530000D02*
X152880000Y-101790000D01*
X142350000Y-75820000D02*
X144830000Y-75820000D01*
X126080000Y-128050000D02*
X126080000Y-108930000D01*
X153765000Y-84755000D02*
X153765000Y-90705000D01*
%TO.N,/controller_sheet/en_dab*%
X145720000Y-82293604D02*
X142473604Y-85540000D01*
X165240000Y-70495000D02*
X165215000Y-70520000D01*
X141797208Y-85540000D02*
X141227708Y-86109500D01*
X141227708Y-86109500D02*
X139708000Y-86109500D01*
X142473604Y-85540000D02*
X141797208Y-85540000D01*
X165240000Y-68370000D02*
X165240000Y-70495000D01*
X145720000Y-80950000D02*
X145720000Y-82293604D01*
%TO.N,batt_curr_0*%
X129490000Y-140960000D02*
X124040000Y-135510000D01*
X115760000Y-115600000D02*
X119820000Y-115600000D01*
X124040000Y-135510000D02*
X119100000Y-135510000D01*
X114810000Y-131280000D02*
X114810000Y-130640000D01*
X119100000Y-135510000D02*
X114810000Y-131220000D01*
X114770000Y-116590000D02*
X115760000Y-115600000D01*
X129490000Y-141985000D02*
X129490000Y-140960000D01*
X114810000Y-130640000D02*
X114810000Y-116630000D01*
X114810000Y-116630000D02*
X114770000Y-116590000D01*
X130665000Y-143160000D02*
X129490000Y-141985000D01*
X114810000Y-131220000D02*
X114810000Y-130640000D01*
%TO.N,batt_v*%
X118600000Y-132980000D02*
X115630000Y-130010000D01*
X120638558Y-132980000D02*
X120280000Y-132980000D01*
X115630000Y-120940000D02*
X117440000Y-119130000D01*
X130665000Y-140620000D02*
X123025000Y-132980000D01*
X123025000Y-132980000D02*
X120280000Y-132980000D01*
X115630000Y-130010000D02*
X115630000Y-120940000D01*
X120280000Y-132980000D02*
X118600000Y-132980000D01*
X117440000Y-119130000D02*
X117500000Y-119130000D01*
%TO.N,curr_leakeage_i*%
X113870000Y-108380000D02*
X117110000Y-105140000D01*
X124545047Y-140351490D02*
X123140000Y-138946443D01*
X123140000Y-138946443D02*
X119910047Y-138946443D01*
X113870000Y-132906396D02*
X113870000Y-108380000D01*
X119910047Y-138946443D02*
X113870000Y-132906396D01*
X124545047Y-140850047D02*
X124545047Y-140351490D01*
X126905000Y-143210000D02*
X124545047Y-140850047D01*
X117110000Y-99100000D02*
X117030000Y-99020000D01*
X117110000Y-105140000D02*
X117110000Y-99100000D01*
%TO.N,V_dc_link*%
X114320000Y-109760000D02*
X116900000Y-107180000D01*
X114320000Y-132720000D02*
X114320000Y-109760000D01*
X124731443Y-138496443D02*
X120096443Y-138496443D01*
X126905000Y-140670000D02*
X124731443Y-138496443D01*
X120096443Y-138496443D02*
X114320000Y-132720000D01*
%TO.N,/controller_sheet/en_vsi*%
X141364104Y-86609500D02*
X141983604Y-85990000D01*
X142660000Y-85990000D02*
X146620000Y-82030000D01*
X139708000Y-86609500D02*
X141364104Y-86609500D01*
X146620000Y-82030000D02*
X146620000Y-81950000D01*
X169280000Y-68310000D02*
X169280000Y-70485000D01*
X141983604Y-85990000D02*
X142660000Y-85990000D01*
X169280000Y-70485000D02*
X169245000Y-70520000D01*
%TO.N,Net-(C3-Pad1)*%
X104642327Y-84030000D02*
X108106000Y-84030000D01*
X104432327Y-83820000D02*
X104642327Y-84030000D01*
%TO.N,/controller_sheet/pwmVSI3*%
X138670500Y-85109500D02*
X139708000Y-85109500D01*
X138520000Y-84959000D02*
X138670500Y-85109500D01*
X176950000Y-68490000D02*
X176950000Y-70435000D01*
X138520000Y-84390000D02*
X138520000Y-84959000D01*
X176950000Y-70435000D02*
X176865000Y-70520000D01*
%TO.N,/controller_sheet/pwmVSI2*%
X179430000Y-70495000D02*
X179405000Y-70520000D01*
X137720000Y-82621500D02*
X137720000Y-81120498D01*
X179430000Y-68510000D02*
X179430000Y-70495000D01*
X137720000Y-81120498D02*
X137719502Y-81120000D01*
%TO.N,/controller_sheet/pwmVSI1*%
X181860000Y-70435000D02*
X181945000Y-70520000D01*
X181860000Y-68510000D02*
X181860000Y-70435000D01*
X136720000Y-82621500D02*
X136720000Y-81020000D01*
X136720000Y-81020000D02*
X136710000Y-81010000D01*
%TO.N,batt_curr_sense*%
X123052000Y-93775000D02*
X122489500Y-93775000D01*
X123052000Y-93775000D02*
X123614500Y-93775000D01*
X122489500Y-93775000D02*
X118720000Y-97544500D01*
X124280000Y-93109500D02*
X126232000Y-93109500D01*
X118720000Y-97544500D02*
X118720000Y-114409500D01*
X123614500Y-93775000D02*
X124280000Y-93109500D01*
%TO.N,/controller_sheet/pwm_daba1*%
X128220000Y-82621500D02*
X128220000Y-80760000D01*
X187070000Y-70495000D02*
X187025000Y-70540000D01*
X187070000Y-68570000D02*
X187070000Y-70495000D01*
X128220000Y-80760000D02*
X128190000Y-80730000D01*
%TO.N,batt_V_sense*%
X121814500Y-107385500D02*
X123338000Y-108909000D01*
X123338000Y-110970000D02*
X123338000Y-112240000D01*
X121814500Y-95720000D02*
X121814500Y-107385500D01*
X123052000Y-95045000D02*
X122489500Y-95045000D01*
X125050000Y-93609500D02*
X126232000Y-93609500D01*
X123614500Y-95045000D02*
X125050000Y-93609500D01*
X123338000Y-108909000D02*
X123338000Y-110970000D01*
X122489500Y-95045000D02*
X121814500Y-95720000D01*
X123052000Y-95045000D02*
X123614500Y-95045000D01*
%TO.N,Igrid3_sense*%
X126232000Y-90109500D02*
X124594259Y-90109500D01*
X108106000Y-78950000D02*
X108543500Y-78950000D01*
X124594259Y-90109500D02*
X124589875Y-90113884D01*
X115928000Y-88956183D02*
X115623169Y-89261014D01*
X115928000Y-88695000D02*
X115928000Y-88956183D01*
%TO.N,Igrid2_sense*%
X115928000Y-86155000D02*
X117945000Y-86155000D01*
X114690500Y-79643000D02*
X114690500Y-85560000D01*
X113068000Y-78850000D02*
X113897500Y-78850000D01*
X124535500Y-89120000D02*
X124546000Y-89109500D01*
X114690500Y-85560000D02*
X115285500Y-86155000D01*
X115285500Y-86155000D02*
X115928000Y-86155000D01*
X113897500Y-78850000D02*
X114690500Y-79643000D01*
X117945000Y-86155000D02*
X118130000Y-86340000D01*
X124546000Y-89109500D02*
X126232000Y-89109500D01*
%TO.N,Igrid1_sense*%
X111375000Y-91235000D02*
X115928000Y-91235000D01*
X127399500Y-91109500D02*
X127410000Y-91120000D01*
X118130000Y-91400000D02*
X117965000Y-91235000D01*
X108064500Y-94545500D02*
X111375000Y-91235000D01*
X108064500Y-99340000D02*
X108064500Y-94545500D01*
X126232000Y-91109500D02*
X127399500Y-91109500D01*
X117965000Y-91235000D02*
X115928000Y-91235000D01*
%TO.N,Net-(IC5-Pad41)*%
X139708000Y-94109500D02*
X140660500Y-94109500D01*
X143440000Y-95045000D02*
X143390000Y-95095000D01*
X141716000Y-95165000D02*
X143380000Y-95165000D01*
X140660500Y-94109500D02*
X141716000Y-95165000D01*
%TO.N,Vgrid1_sense*%
X108235500Y-107000000D02*
X111320000Y-103915500D01*
X127599500Y-91609500D02*
X127640000Y-91650000D01*
X107954500Y-107000000D02*
X108235500Y-107000000D01*
X111320000Y-95314104D02*
X114129104Y-92505000D01*
X111320000Y-103915500D02*
X111320000Y-95314104D01*
X118135000Y-92505000D02*
X118140000Y-92510000D01*
X115928000Y-92505000D02*
X118135000Y-92505000D01*
X114129104Y-92505000D02*
X115928000Y-92505000D01*
X126232000Y-91609500D02*
X127599500Y-91609500D01*
%TO.N,Vgrid2_sense*%
X126226500Y-89615000D02*
X124390000Y-89615000D01*
X126207000Y-89584500D02*
X126232000Y-89609500D01*
X126232000Y-89609500D02*
X126226500Y-89615000D01*
X114385000Y-87425000D02*
X115928000Y-87425000D01*
X113530000Y-86570000D02*
X114385000Y-87425000D01*
%TO.N,Vgrid3_sense*%
X124736000Y-90609500D02*
X126232000Y-90609500D01*
X124725500Y-90620000D02*
X124736000Y-90609500D01*
%TO.N,I_leackage*%
X113222000Y-99350000D02*
X113222000Y-95348000D01*
X127319500Y-92109500D02*
X127360000Y-92150000D01*
X126232000Y-92109500D02*
X127319500Y-92109500D01*
X115928000Y-93775000D02*
X114795000Y-93775000D01*
X114795000Y-93775000D02*
X113222000Y-95348000D01*
%TO.N,Vdc_link*%
X116070000Y-98920000D02*
X122430000Y-92560000D01*
X116070000Y-104559500D02*
X116070000Y-98920000D01*
X123156500Y-92609500D02*
X123052000Y-92505000D01*
X113222000Y-106970000D02*
X113659500Y-106970000D01*
X126232000Y-92609500D02*
X123156500Y-92609500D01*
X113659500Y-106970000D02*
X116070000Y-104559500D01*
X122430000Y-92560000D02*
X122630000Y-92560000D01*
%TO.N,Net-(IC5-Pad49)*%
X141895500Y-90109500D02*
X144315000Y-87690000D01*
X143171000Y-91440000D02*
X141840500Y-90109500D01*
X144305000Y-91440000D02*
X143171000Y-91440000D01*
X139708000Y-90109500D02*
X141840500Y-90109500D01*
X141840500Y-90109500D02*
X141895500Y-90109500D01*
%TO.N,Net-(C19-Pad1)*%
X126232000Y-95252000D02*
X126420000Y-95440000D01*
X126232000Y-94109500D02*
X126232000Y-95252000D01*
%TO.N,Net-(J1-Pad2)*%
X147140000Y-97585000D02*
X147140000Y-100280000D01*
X147140000Y-100280000D02*
X147290000Y-100430000D01*
%TO.N,/controller_sheet/pwm_daba2*%
X140990000Y-85228604D02*
X140990000Y-85150000D01*
X174290000Y-70485000D02*
X174325000Y-70520000D01*
X140634104Y-85584500D02*
X140990000Y-85228604D01*
X174290000Y-68490000D02*
X174290000Y-70485000D01*
X139708000Y-85609500D02*
X139733000Y-85584500D01*
X139733000Y-85584500D02*
X140634104Y-85584500D01*
%TO.N,/controller_sheet/pwm_dabb2*%
X171850000Y-68480000D02*
X171850000Y-70455000D01*
X135720000Y-96097500D02*
X135720000Y-95160000D01*
X135720000Y-95160000D02*
X136080000Y-94800000D01*
X171850000Y-70455000D02*
X171785000Y-70520000D01*
%TO.N,/controller_sheet/pwm_dabb1*%
X184450000Y-70485000D02*
X184485000Y-70520000D01*
X184450000Y-68550000D02*
X184450000Y-70485000D01*
X130220000Y-80700000D02*
X130220000Y-82621500D01*
X130210000Y-80690000D02*
X130220000Y-80700000D01*
%TO.N,VDD*%
X133220000Y-97074500D02*
X133245500Y-97100000D01*
X132720000Y-82621500D02*
X132720000Y-84000000D01*
X132720000Y-84000000D02*
X136829500Y-88109500D01*
X127357812Y-88368858D02*
X127392462Y-88368858D01*
X132720000Y-81700000D02*
X132700000Y-81680000D01*
X127392462Y-88368858D02*
X133220000Y-94196396D01*
X132720000Y-82621500D02*
X132720000Y-81700000D01*
X136829500Y-88109500D02*
X139708000Y-88109500D01*
X126232000Y-88109500D02*
X127098454Y-88109500D01*
X127098454Y-88109500D02*
X127357812Y-88368858D01*
X133220000Y-96097500D02*
X133220000Y-97074500D01*
X133220000Y-94196396D02*
X133220000Y-96097500D01*
%TO.N,VDDA*%
X130720000Y-97160250D02*
X130720000Y-96097500D01*
X130820000Y-102602500D02*
X130820000Y-97260250D01*
X130820000Y-97260250D02*
X130720000Y-97160250D01*
%TO.N,VDDIO*%
X132220000Y-83660000D02*
X132200000Y-83680000D01*
X127269500Y-87609500D02*
X127770500Y-87609500D01*
X133720000Y-99688750D02*
X133720000Y-96097500D01*
X126232000Y-87609500D02*
X127269500Y-87609500D01*
X132030000Y-102582500D02*
X132030000Y-101370000D01*
X139708000Y-88609500D02*
X138670500Y-88609500D01*
X133720000Y-99688750D02*
X133711250Y-99688750D01*
X138670500Y-88609500D02*
X133720000Y-93560000D01*
X125194500Y-87609500D02*
X124670500Y-87085500D01*
X133720000Y-94060000D02*
X133720000Y-94469500D01*
X127269500Y-87609500D02*
X133720000Y-94060000D01*
X127770500Y-87609500D02*
X127780000Y-87600000D01*
X126232000Y-87609500D02*
X125194500Y-87609500D01*
X133711250Y-99688750D02*
X132030000Y-101370000D01*
X132220000Y-82621500D02*
X132220000Y-83660000D01*
X133720000Y-94469500D02*
X133720000Y-96097500D01*
X124670500Y-87085500D02*
X124670500Y-86790000D01*
X133720000Y-93560000D02*
X133720000Y-94469500D01*
%TO.N,Net-(J2-Pad1)*%
X143390000Y-100400000D02*
X143390000Y-97635000D01*
X143410000Y-100420000D02*
X143390000Y-100400000D01*
%TO.N,Net-(J3-Pad2)*%
X146845000Y-91440000D02*
X149630000Y-91440000D01*
%TO.N,Net-(J4-Pad1)*%
X146855000Y-87690000D02*
X149640000Y-87690000D01*
%TO.N,SCITX*%
X131671046Y-89980000D02*
X127300546Y-85609500D01*
X138460000Y-113150000D02*
X138460000Y-129910000D01*
X154115000Y-139300000D02*
X154760000Y-138655000D01*
X138460000Y-129910000D02*
X147850000Y-139300000D01*
X154760000Y-138655000D02*
X154760000Y-137855000D01*
X127300546Y-85609500D02*
X126232000Y-85609500D01*
X136250000Y-98494500D02*
X136250000Y-110940000D01*
X131704500Y-89980000D02*
X131671046Y-89980000D01*
X136250000Y-110940000D02*
X138460000Y-113150000D01*
X147850000Y-139300000D02*
X154115000Y-139300000D01*
%TO.N,SCiRX*%
X134710000Y-98030000D02*
X134710000Y-110340000D01*
X154665000Y-139750000D02*
X155760000Y-138655000D01*
X137419500Y-129969500D02*
X147200000Y-139750000D01*
X130560000Y-89570000D02*
X133570000Y-92580000D01*
X137419500Y-113049500D02*
X137419500Y-129969500D01*
X127158104Y-86138104D02*
X130560000Y-89540000D01*
X147200000Y-139750000D02*
X154665000Y-139750000D01*
X155760000Y-138655000D02*
X155760000Y-137855000D01*
X134710000Y-110340000D02*
X137419500Y-113049500D01*
X130560000Y-89540000D02*
X130560000Y-89570000D01*
X126257000Y-86134500D02*
X127158104Y-86134500D01*
X127158104Y-86134500D02*
X127158104Y-86138104D01*
%TO.N,TCK*%
X144100000Y-132045000D02*
X144100000Y-117580000D01*
X138570000Y-92210000D02*
X138670500Y-92109500D01*
X147970000Y-134750000D02*
X149760000Y-136540000D01*
X138570000Y-112050000D02*
X138570000Y-92210000D01*
X144100000Y-117580000D02*
X138570000Y-112050000D01*
X149760000Y-136540000D02*
X149760000Y-137855000D01*
X138670500Y-92109500D02*
X139708000Y-92109500D01*
X146805000Y-134750000D02*
X147970000Y-134750000D01*
X144100000Y-132045000D02*
X146805000Y-134750000D01*
%TO.N,TDO*%
X145100000Y-131880000D02*
X145100000Y-117943604D01*
X138130500Y-91609500D02*
X138080000Y-91660000D01*
X147520000Y-134300000D02*
X148170000Y-134300000D01*
X148170000Y-134300000D02*
X150760000Y-136890000D01*
X150760000Y-136890000D02*
X150760000Y-137855000D01*
X139720000Y-112563604D02*
X139720000Y-95390000D01*
X139708000Y-91609500D02*
X138130500Y-91609500D01*
X145100000Y-117943604D02*
X139720000Y-112563604D01*
X145100000Y-131880000D02*
X147520000Y-134300000D01*
%TO.N,TMS*%
X151760000Y-137700000D02*
X151760000Y-137855000D01*
X151760000Y-137120000D02*
X151760000Y-137700000D01*
X145180000Y-95303299D02*
X142996700Y-93119999D01*
X148270000Y-133630000D02*
X151760000Y-137120000D01*
X147810000Y-133630000D02*
X148270000Y-133630000D01*
X146100000Y-131920000D02*
X146100000Y-118096396D01*
X146100000Y-131920000D02*
X147810000Y-133630000D01*
X142996700Y-93119999D02*
X142755999Y-93119999D01*
X140745500Y-91109500D02*
X139708000Y-91109500D01*
X146100000Y-118096396D02*
X145180000Y-117176396D01*
X142755999Y-93119999D02*
X140745500Y-91109500D01*
X145180000Y-117176396D02*
X145180000Y-95303299D01*
%TO.N,TDI*%
X141349500Y-91015944D02*
X143003555Y-92669999D01*
X139708000Y-90609500D02*
X141349500Y-90609500D01*
X152760000Y-137855000D02*
X152760000Y-137120000D01*
X143003555Y-92669999D02*
X143409999Y-92669999D01*
X141349500Y-90609500D02*
X141349500Y-91015944D01*
X152760000Y-137120000D02*
X147100000Y-131460000D01*
X143409999Y-92669999D02*
X145630000Y-94890000D01*
X147100000Y-131460000D02*
X147100000Y-130670000D01*
X147100000Y-118460000D02*
X147100000Y-130670000D01*
X145630000Y-94890000D02*
X145630000Y-116990000D01*
X145630000Y-116990000D02*
X147100000Y-118460000D01*
%TO.N,DAB1PWM22*%
X162675000Y-73060000D02*
X162675000Y-75255000D01*
X162675000Y-75255000D02*
X162680000Y-75260000D01*
%TO.N,DAB1PWM21*%
X165215000Y-75155000D02*
X165180000Y-75190000D01*
X165215000Y-73060000D02*
X165215000Y-75155000D01*
%TO.N,DAB1PWM12*%
X169245000Y-74945000D02*
X169080000Y-75110000D01*
X169245000Y-73060000D02*
X169245000Y-74945000D01*
%TO.N,DAB1PWM11*%
X171785000Y-75005000D02*
X171670000Y-75120000D01*
X171785000Y-73060000D02*
X171785000Y-75005000D01*
%TO.N,DAB2_PWM22*%
X152515000Y-73060000D02*
X152515000Y-75195000D01*
X152515000Y-75195000D02*
X152480000Y-75230000D01*
%TO.N,DAB2_PWM21*%
X155055000Y-75305000D02*
X155050000Y-75310000D01*
X155055000Y-73060000D02*
X155055000Y-75305000D01*
%TO.N,DAB2_PWM12*%
X157595000Y-73060000D02*
X157595000Y-75295000D01*
X157595000Y-75295000D02*
X157600000Y-75300000D01*
%TO.N,DAB2_PWM11*%
X160135000Y-75265000D02*
X160160000Y-75290000D01*
X160135000Y-73060000D02*
X160135000Y-75265000D01*
%TO.N,VSI31*%
X176840000Y-73085000D02*
X176865000Y-73060000D01*
X176840000Y-75190000D02*
X176840000Y-73085000D01*
%TO.N,VSI32*%
X174325000Y-73060000D02*
X174325000Y-74985000D01*
X174325000Y-74985000D02*
X174220000Y-75090000D01*
%TO.N,VSI11*%
X186940000Y-73165000D02*
X187025000Y-73080000D01*
X186940000Y-75150000D02*
X186940000Y-73165000D01*
%TO.N,VSI12*%
X184460000Y-73085000D02*
X184485000Y-73060000D01*
X184460000Y-75160000D02*
X184460000Y-73085000D01*
%TO.N,VSI21*%
X181950000Y-73065000D02*
X181945000Y-73060000D01*
X181950000Y-75180000D02*
X181950000Y-73065000D01*
%TO.N,VSI22*%
X179540000Y-73195000D02*
X179405000Y-73060000D01*
X179540000Y-75160000D02*
X179540000Y-73195000D01*
%TO.N,SCL*%
X142355000Y-72715000D02*
X142350000Y-72720000D01*
X139708000Y-92609500D02*
X139732500Y-92585000D01*
X142355000Y-70520000D02*
X142355000Y-72715000D01*
X139732500Y-92585000D02*
X140685000Y-92585000D01*
X140685000Y-92585000D02*
X140790000Y-92480000D01*
%TO.N,SDA*%
X144895000Y-70520000D02*
X144895000Y-72675000D01*
X140740500Y-93109500D02*
X140770000Y-93080000D01*
X139708000Y-93109500D02*
X140740500Y-93109500D01*
X144895000Y-72675000D02*
X144840000Y-72730000D01*
%TO.N,OCD_grid1*%
X135524500Y-97294500D02*
X135220000Y-96990000D01*
X135524500Y-99220000D02*
X135524500Y-97294500D01*
X135220000Y-96990000D02*
X135220000Y-96097500D01*
%TO.N,OCD_grd2*%
X136220000Y-96097500D02*
X136220000Y-97550000D01*
X136220000Y-97550000D02*
X136260000Y-97590000D01*
%TO.N,OCD_grid3*%
X136720000Y-97280000D02*
X136730000Y-97290000D01*
X136720000Y-96097500D02*
X136720000Y-97280000D01*
%TO.N,vsi_ready*%
X137695584Y-66900000D02*
X131220000Y-73375584D01*
X131220000Y-82621500D02*
X131220000Y-85570000D01*
X131220000Y-73375584D02*
X131220000Y-82621500D01*
X152515000Y-68135000D02*
X151280000Y-66900000D01*
X131220000Y-85570000D02*
X131230000Y-85580000D01*
X151280000Y-66900000D02*
X137695584Y-66900000D01*
%TO.N,vsi_fault*%
X130720000Y-81280000D02*
X130720000Y-82621500D01*
X137749188Y-66210000D02*
X130720000Y-73239188D01*
X130720000Y-73239188D02*
X130720000Y-81280000D01*
%TO.N,offset_v*%
X128720000Y-98070000D02*
X128720000Y-96097500D01*
X125082500Y-115987500D02*
X125082500Y-104572500D01*
X125082500Y-104572500D02*
X124210000Y-103700000D01*
X122790000Y-101850000D02*
X124940000Y-101850000D01*
X124940000Y-101850000D02*
X128720000Y-98070000D01*
%TO.N,batt_fault*%
X137110500Y-94650536D02*
X137110500Y-93480500D01*
X137220000Y-96097500D02*
X137220000Y-94760036D01*
X137220000Y-94760036D02*
X137110500Y-94650536D01*
%TO.N,batt_ready*%
X137650000Y-94490000D02*
X137720000Y-94560000D01*
X137720000Y-94560000D02*
X137720000Y-96097500D01*
%TO.N,ADC5*%
X132220000Y-97384941D02*
X132350000Y-97514941D01*
X132220000Y-96097500D02*
X132220000Y-97384941D01*
X132350000Y-97514941D02*
X132350000Y-97750000D01*
X136332000Y-122090000D02*
X136332000Y-123360000D01*
%TO.N,ADC4*%
X130908000Y-128440000D02*
X130908000Y-129710000D01*
X131720000Y-96097500D02*
X131720000Y-97584977D01*
X131720000Y-97584977D02*
X131789023Y-97654000D01*
%TO.N,ADC3*%
X130908000Y-122090000D02*
X130908000Y-123360000D01*
X131220000Y-97023854D02*
X131270000Y-97073854D01*
X131270000Y-97073854D02*
X131270000Y-97915500D01*
X131220000Y-96097500D02*
X131220000Y-97023854D01*
X131270000Y-97915500D02*
X131294500Y-97940000D01*
%TO.N,ADC2*%
X128762000Y-110970000D02*
X128762000Y-112240000D01*
X128762000Y-104227964D02*
X128762000Y-110970000D01*
X129720000Y-103269964D02*
X128762000Y-104227964D01*
X129720000Y-96097500D02*
X129720000Y-103269964D01*
%TO.N,ADC1*%
X129220000Y-96097500D02*
X129220000Y-98206396D01*
X127170000Y-117010000D02*
X127480000Y-117320000D01*
X129220000Y-98206396D02*
X127170000Y-100256396D01*
X127480000Y-117320000D02*
X128762000Y-117320000D01*
X127170000Y-100256396D02*
X127170000Y-117010000D01*
X128762000Y-117320000D02*
X128762000Y-118590000D01*
%TD*%
M02*
