%TF.GenerationSoftware,KiCad,Pcbnew,(6.0.7)*%
%TF.CreationDate,2023-05-12T14:40:03+05:30*%
%TF.ProjectId,DSP_board,4453505f-626f-4617-9264-2e6b69636164,rev?*%
%TF.SameCoordinates,Original*%
%TF.FileFunction,Soldermask,Top*%
%TF.FilePolarity,Negative*%
%FSLAX46Y46*%
G04 Gerber Fmt 4.6, Leading zero omitted, Abs format (unit mm)*
G04 Created by KiCad (PCBNEW (6.0.7)) date 2023-05-12 14:40:03*
%MOMM*%
%LPD*%
G01*
G04 APERTURE LIST*
G04 Aperture macros list*
%AMRoundRect*
0 Rectangle with rounded corners*
0 $1 Rounding radius*
0 $2 $3 $4 $5 $6 $7 $8 $9 X,Y pos of 4 corners*
0 Add a 4 corners polygon primitive as box body*
4,1,4,$2,$3,$4,$5,$6,$7,$8,$9,$2,$3,0*
0 Add four circle primitives for the rounded corners*
1,1,$1+$1,$2,$3*
1,1,$1+$1,$4,$5*
1,1,$1+$1,$6,$7*
1,1,$1+$1,$8,$9*
0 Add four rect primitives between the rounded corners*
20,1,$1+$1,$2,$3,$4,$5,0*
20,1,$1+$1,$4,$5,$6,$7,0*
20,1,$1+$1,$6,$7,$8,$9,0*
20,1,$1+$1,$8,$9,$2,$3,0*%
G04 Aperture macros list end*
%ADD10RoundRect,0.250000X0.625000X-0.400000X0.625000X0.400000X-0.625000X0.400000X-0.625000X-0.400000X0*%
%ADD11R,1.700000X1.700000*%
%ADD12O,1.700000X1.700000*%
%ADD13R,1.475000X0.300000*%
%ADD14R,0.300000X1.475000*%
%ADD15RoundRect,0.250000X-0.625000X0.400000X-0.625000X-0.400000X0.625000X-0.400000X0.625000X0.400000X0*%
%ADD16R,1.525000X0.650000*%
%ADD17C,1.700000*%
%ADD18R,1.825000X0.700000*%
%ADD19RoundRect,0.250000X-0.400000X-0.625000X0.400000X-0.625000X0.400000X0.625000X-0.400000X0.625000X0*%
%ADD20R,0.600000X1.700000*%
%ADD21R,1.200000X1.800000*%
G04 APERTURE END LIST*
D10*
%TO.C,R20*%
X174290000Y-68490000D03*
X174290000Y-65390000D03*
%TD*%
D11*
%TO.C,JVSI1*%
X100120000Y-140610000D03*
D12*
X100120000Y-143150000D03*
X102660000Y-140610000D03*
X102660000Y-143150000D03*
X105200000Y-140610000D03*
X105200000Y-143150000D03*
X107740000Y-140610000D03*
X107740000Y-143150000D03*
X110280000Y-140610000D03*
X110280000Y-143150000D03*
X112820000Y-140610000D03*
X112820000Y-143150000D03*
X115360000Y-140610000D03*
X115360000Y-143150000D03*
X117900000Y-140610000D03*
X117900000Y-143150000D03*
X120440000Y-140610000D03*
X120440000Y-143150000D03*
X122980000Y-140610000D03*
X122980000Y-143150000D03*
%TD*%
D11*
%TO.C,J1*%
X147130000Y-95130000D03*
D12*
X147130000Y-97670000D03*
%TD*%
D10*
%TO.C,R12*%
X184450000Y-68550000D03*
X184450000Y-65450000D03*
%TD*%
D11*
%TO.C,J3*%
X144305000Y-91440000D03*
D12*
X146845000Y-91440000D03*
%TD*%
D13*
%TO.C,IC5*%
X126232000Y-84609500D03*
X126232000Y-85109500D03*
X126232000Y-85609500D03*
X126232000Y-86109500D03*
X126232000Y-86609500D03*
X126232000Y-87109500D03*
X126232000Y-87609500D03*
X126232000Y-88109500D03*
X126232000Y-88609500D03*
X126232000Y-89109500D03*
X126232000Y-89609500D03*
X126232000Y-90109500D03*
X126232000Y-90609500D03*
X126232000Y-91109500D03*
X126232000Y-91609500D03*
X126232000Y-92109500D03*
X126232000Y-92609500D03*
X126232000Y-93109500D03*
X126232000Y-93609500D03*
X126232000Y-94109500D03*
D14*
X128220000Y-96097500D03*
X128720000Y-96097500D03*
X129220000Y-96097500D03*
X129720000Y-96097500D03*
X130220000Y-96097500D03*
X130720000Y-96097500D03*
X131220000Y-96097500D03*
X131720000Y-96097500D03*
X132220000Y-96097500D03*
X132720000Y-96097500D03*
X133220000Y-96097500D03*
X133720000Y-96097500D03*
X134220000Y-96097500D03*
X134720000Y-96097500D03*
X135220000Y-96097500D03*
X135720000Y-96097500D03*
X136220000Y-96097500D03*
X136720000Y-96097500D03*
X137220000Y-96097500D03*
X137720000Y-96097500D03*
D13*
X139708000Y-94109500D03*
X139708000Y-93609500D03*
X139708000Y-93109500D03*
X139708000Y-92609500D03*
X139708000Y-92109500D03*
X139708000Y-91609500D03*
X139708000Y-91109500D03*
X139708000Y-90609500D03*
X139708000Y-90109500D03*
X139708000Y-89609500D03*
X139708000Y-89109500D03*
X139708000Y-88609500D03*
X139708000Y-88109500D03*
X139708000Y-87609500D03*
X139708000Y-87109500D03*
X139708000Y-86609500D03*
X139708000Y-86109500D03*
X139708000Y-85609500D03*
X139708000Y-85109500D03*
X139708000Y-84609500D03*
D14*
X137720000Y-82621500D03*
X137220000Y-82621500D03*
X136720000Y-82621500D03*
X136220000Y-82621500D03*
X135720000Y-82621500D03*
X135220000Y-82621500D03*
X134720000Y-82621500D03*
X134220000Y-82621500D03*
X133720000Y-82621500D03*
X133220000Y-82621500D03*
X132720000Y-82621500D03*
X132220000Y-82621500D03*
X131720000Y-82621500D03*
X131220000Y-82621500D03*
X130720000Y-82621500D03*
X130220000Y-82621500D03*
X129720000Y-82621500D03*
X129220000Y-82621500D03*
X128720000Y-82621500D03*
X128220000Y-82621500D03*
%TD*%
D11*
%TO.C,J9*%
X120180000Y-126700000D03*
D12*
X120180000Y-129240000D03*
X120180000Y-131780000D03*
X120180000Y-134320000D03*
X120180000Y-136860000D03*
%TD*%
D15*
%TO.C,R37*%
X147290000Y-100430000D03*
X147290000Y-103530000D03*
%TD*%
D16*
%TO.C,IC_dc_link_leakage1*%
X107798000Y-99350000D03*
X107798000Y-100620000D03*
X107798000Y-101890000D03*
X107798000Y-103160000D03*
X107798000Y-104430000D03*
X107798000Y-105700000D03*
X107798000Y-106970000D03*
X113222000Y-106970000D03*
X113222000Y-105700000D03*
X113222000Y-104430000D03*
X113222000Y-103160000D03*
X113222000Y-101890000D03*
X113222000Y-100620000D03*
X113222000Y-99350000D03*
%TD*%
D11*
%TO.C,J2*%
X143380000Y-97705000D03*
D12*
X143380000Y-95165000D03*
%TD*%
D17*
%TO.C,B1*%
X151465000Y-118800000D03*
X154005000Y-118800000D03*
X156545000Y-118800000D03*
X159085000Y-118800000D03*
X161625000Y-118800000D03*
X164165000Y-118800000D03*
X166705000Y-118800000D03*
X169245000Y-118800000D03*
X161625000Y-116260000D03*
X164165000Y-116260000D03*
X166705000Y-116260000D03*
X169245000Y-116260000D03*
X174325000Y-118800000D03*
X176865000Y-118800000D03*
X179405000Y-118800000D03*
X181945000Y-118800000D03*
X184485000Y-118800000D03*
X187025000Y-118800000D03*
X174325000Y-116260000D03*
X176865000Y-116260000D03*
X179405000Y-116260000D03*
X181945000Y-116260000D03*
X184485000Y-116260000D03*
X187025000Y-116260000D03*
X147435000Y-73060000D03*
X149975000Y-73060000D03*
X152515000Y-73060000D03*
X155055000Y-73060000D03*
X157595000Y-73060000D03*
X160135000Y-73060000D03*
X162675000Y-73060000D03*
X165215000Y-73060000D03*
X169245000Y-73060000D03*
X171785000Y-73060000D03*
X174325000Y-73060000D03*
X176865000Y-73060000D03*
X179405000Y-73060000D03*
X181945000Y-73060000D03*
X184485000Y-73060000D03*
X187025000Y-73080000D03*
X142355000Y-70520000D03*
X144895000Y-70520000D03*
X147435000Y-70520000D03*
X149975000Y-70520000D03*
X152515000Y-70520000D03*
X155055000Y-70520000D03*
X157595000Y-70520000D03*
X160135000Y-70520000D03*
X162675000Y-70520000D03*
X165215000Y-70520000D03*
X169245000Y-70520000D03*
X171785000Y-70520000D03*
X174325000Y-70520000D03*
X176865000Y-70520000D03*
X179405000Y-70520000D03*
X181945000Y-70520000D03*
X184485000Y-70520000D03*
X187025000Y-70540000D03*
X99275000Y-62580000D03*
X101815000Y-62580000D03*
X104355000Y-62580000D03*
X106895000Y-62580000D03*
X109435000Y-62580000D03*
X111975000Y-62580000D03*
X99275000Y-60040000D03*
X101815000Y-60040000D03*
X104355000Y-60040000D03*
X106895000Y-60040000D03*
X109435000Y-60040000D03*
X111975000Y-60040000D03*
X122075000Y-62580000D03*
X124615000Y-62580000D03*
X127155000Y-62580000D03*
X129695000Y-62580000D03*
X132235000Y-62580000D03*
X134775000Y-62580000D03*
X122075000Y-60040000D03*
X124615000Y-60040000D03*
X127155000Y-60040000D03*
X129695000Y-60040000D03*
X132235000Y-60040000D03*
X134775000Y-60040000D03*
X144875000Y-62580000D03*
X147415000Y-62580000D03*
X149955000Y-62580000D03*
X152495000Y-62580000D03*
X155035000Y-62580000D03*
X157575000Y-62580000D03*
X144875000Y-60040000D03*
X147415000Y-60040000D03*
X149955000Y-60040000D03*
X152495000Y-60040000D03*
X155035000Y-60040000D03*
X157575000Y-60040000D03*
X167675000Y-62580000D03*
X170215000Y-62580000D03*
X172755000Y-62580000D03*
X175295000Y-62580000D03*
X177835000Y-62580000D03*
X180375000Y-62580000D03*
X167675000Y-60040000D03*
X170215000Y-60040000D03*
X172755000Y-60040000D03*
X175295000Y-60040000D03*
X177835000Y-60040000D03*
X180375000Y-60040000D03*
%TD*%
D16*
%TO.C,IC_batt_2*%
X130908000Y-122090000D03*
X130908000Y-123360000D03*
X130908000Y-124630000D03*
X130908000Y-125900000D03*
X130908000Y-127170000D03*
X130908000Y-128440000D03*
X130908000Y-129710000D03*
X136332000Y-129710000D03*
X136332000Y-128440000D03*
X136332000Y-127170000D03*
X136332000Y-125900000D03*
X136332000Y-124630000D03*
X136332000Y-123360000D03*
X136332000Y-122090000D03*
%TD*%
D11*
%TO.C,J8*%
X126905000Y-140670000D03*
D12*
X126905000Y-143210000D03*
%TD*%
D15*
%TO.C,R46*%
X157600000Y-75300000D03*
X157600000Y-78400000D03*
%TD*%
%TO.C,R30*%
X186940000Y-75150000D03*
X186940000Y-78250000D03*
%TD*%
%TO.C,R48*%
X152480000Y-75230000D03*
X152480000Y-78330000D03*
%TD*%
%TO.C,R52*%
X162680000Y-75260000D03*
X162680000Y-78360000D03*
%TD*%
%TO.C,R45*%
X160160000Y-75290000D03*
X160160000Y-78390000D03*
%TD*%
%TO.C,R31*%
X184460000Y-75160000D03*
X184460000Y-78260000D03*
%TD*%
%TO.C,R42*%
X179540000Y-75160000D03*
X179540000Y-78260000D03*
%TD*%
%TO.C,R49*%
X171670000Y-75120000D03*
X171670000Y-78220000D03*
%TD*%
D10*
%TO.C,R17*%
X179430000Y-68510000D03*
X179430000Y-65410000D03*
%TD*%
D11*
%TO.C,J4*%
X146855000Y-87690000D03*
D12*
X144315000Y-87690000D03*
%TD*%
D15*
%TO.C,R34*%
X181950000Y-75180000D03*
X181950000Y-78280000D03*
%TD*%
D10*
%TO.C,R11*%
X187070000Y-68570000D03*
X187070000Y-65470000D03*
%TD*%
D15*
%TO.C,R27*%
X165240000Y-65270000D03*
X165240000Y-68370000D03*
%TD*%
D10*
%TO.C,R18*%
X176950000Y-68490000D03*
X176950000Y-65390000D03*
%TD*%
%TO.C,R22*%
X171850000Y-68480000D03*
X171850000Y-65380000D03*
%TD*%
D11*
%TO.C,J6*%
X143350000Y-140600000D03*
D12*
X143350000Y-143140000D03*
%TD*%
D15*
%TO.C,R10*%
X142350000Y-72720000D03*
X142350000Y-75820000D03*
%TD*%
D18*
%TO.C,IC1*%
X123052000Y-96315000D03*
X123052000Y-95045000D03*
X123052000Y-93775000D03*
X123052000Y-92505000D03*
X123052000Y-91235000D03*
X123052000Y-89965000D03*
X123052000Y-88695000D03*
X123052000Y-87425000D03*
X123052000Y-86155000D03*
X123052000Y-84885000D03*
X115928000Y-84885000D03*
X115928000Y-86155000D03*
X115928000Y-87425000D03*
X115928000Y-88695000D03*
X115928000Y-89965000D03*
X115928000Y-91235000D03*
X115928000Y-92505000D03*
X115928000Y-93775000D03*
X115928000Y-95045000D03*
X115928000Y-96315000D03*
%TD*%
D11*
%TO.C,J_power1*%
X134445000Y-143135000D03*
D12*
X134445000Y-140595000D03*
X136985000Y-143135000D03*
X136985000Y-140595000D03*
X139525000Y-143135000D03*
X139525000Y-140595000D03*
%TD*%
D19*
%TO.C,R40*%
X149690000Y-87640000D03*
X152790000Y-87640000D03*
%TD*%
D15*
%TO.C,R51*%
X165180000Y-75190000D03*
X165180000Y-78290000D03*
%TD*%
%TO.C,R50*%
X169080000Y-75110000D03*
X169080000Y-78210000D03*
%TD*%
D10*
%TO.C,R24*%
X169280000Y-68310000D03*
X169280000Y-65210000D03*
%TD*%
D16*
%TO.C,IC_grid23*%
X108106000Y-78950000D03*
X108106000Y-80220000D03*
X108106000Y-81490000D03*
X108106000Y-82760000D03*
X108106000Y-84030000D03*
X108106000Y-85300000D03*
X108106000Y-86570000D03*
X113530000Y-86570000D03*
X113530000Y-85300000D03*
X113530000Y-84030000D03*
X113530000Y-82760000D03*
X113530000Y-81490000D03*
X113530000Y-80220000D03*
X113530000Y-78950000D03*
%TD*%
D15*
%TO.C,R38*%
X143410000Y-100420000D03*
X143410000Y-103520000D03*
%TD*%
%TO.C,R44*%
X174220000Y-75090000D03*
X174220000Y-78190000D03*
%TD*%
D16*
%TO.C,IC_batt_1*%
X123338000Y-110970000D03*
X123338000Y-112240000D03*
X123338000Y-113510000D03*
X123338000Y-114780000D03*
X123338000Y-116050000D03*
X123338000Y-117320000D03*
X123338000Y-118590000D03*
X128762000Y-118590000D03*
X128762000Y-117320000D03*
X128762000Y-116050000D03*
X128762000Y-114780000D03*
X128762000Y-113510000D03*
X128762000Y-112240000D03*
X128762000Y-110970000D03*
%TD*%
D19*
%TO.C,R39*%
X149780000Y-91590000D03*
X152880000Y-91590000D03*
%TD*%
D20*
%TO.C,J5*%
X148760000Y-137855000D03*
X149760000Y-137855000D03*
X150760000Y-137855000D03*
X151760000Y-137855000D03*
X152760000Y-137855000D03*
X153760000Y-137855000D03*
X154760000Y-137855000D03*
X155760000Y-137855000D03*
X156760000Y-137855000D03*
X157760000Y-137855000D03*
D21*
X146960000Y-143105000D03*
X159560000Y-143105000D03*
%TD*%
D11*
%TO.C,J10*%
X130665000Y-140620000D03*
D12*
X130665000Y-143160000D03*
%TD*%
D15*
%TO.C,R43*%
X176840000Y-75190000D03*
X176840000Y-78290000D03*
%TD*%
%TO.C,R47*%
X155050000Y-75310000D03*
X155050000Y-78410000D03*
%TD*%
%TO.C,R9*%
X144840000Y-72730000D03*
X144840000Y-75830000D03*
%TD*%
D10*
%TO.C,R14*%
X181860000Y-68510000D03*
X181860000Y-65410000D03*
%TD*%
M02*
