%TF.GenerationSoftware,KiCad,Pcbnew,(6.0.7)*%
%TF.CreationDate,2023-05-12T14:40:02+05:30*%
%TF.ProjectId,DSP_board,4453505f-626f-4617-9264-2e6b69636164,rev?*%
%TF.SameCoordinates,Original*%
%TF.FileFunction,Copper,L2,Inr*%
%TF.FilePolarity,Positive*%
%FSLAX46Y46*%
G04 Gerber Fmt 4.6, Leading zero omitted, Abs format (unit mm)*
G04 Created by KiCad (PCBNEW (6.0.7)) date 2023-05-12 14:40:02*
%MOMM*%
%LPD*%
G01*
G04 APERTURE LIST*
%TA.AperFunction,ComponentPad*%
%ADD10R,1.700000X1.700000*%
%TD*%
%TA.AperFunction,ComponentPad*%
%ADD11O,1.700000X1.700000*%
%TD*%
%TA.AperFunction,ComponentPad*%
%ADD12C,1.700000*%
%TD*%
%TA.AperFunction,ViaPad*%
%ADD13C,0.300000*%
%TD*%
%TA.AperFunction,ViaPad*%
%ADD14C,0.800000*%
%TD*%
%TA.AperFunction,Conductor*%
%ADD15C,0.250000*%
%TD*%
G04 APERTURE END LIST*
D10*
%TO.N,Igrid3*%
%TO.C,JVSI1*%
X100120000Y-140610000D03*
D11*
%TO.N,Vgrid3*%
X100120000Y-143150000D03*
%TO.N,Igrid2*%
X102660000Y-140610000D03*
%TO.N,Vgrid2*%
X102660000Y-143150000D03*
%TO.N,Igrid1*%
X105200000Y-140610000D03*
%TO.N,Vgrid1*%
X105200000Y-143150000D03*
%TO.N,OCD_grid1*%
X107740000Y-140610000D03*
%TO.N,OCD_grd2*%
X107740000Y-143150000D03*
%TO.N,OCD_grid3*%
X110280000Y-140610000D03*
%TO.N,ctrl_gnd*%
X110280000Y-143150000D03*
%TO.N,vsi_ready*%
X112820000Y-140610000D03*
%TO.N,vsi_fault*%
X112820000Y-143150000D03*
%TO.N,VSI32*%
X115360000Y-140610000D03*
%TO.N,VSI31*%
X115360000Y-143150000D03*
%TO.N,VSI22*%
X117900000Y-140610000D03*
%TO.N,VSI21*%
X117900000Y-143150000D03*
%TO.N,VSI12*%
X120440000Y-140610000D03*
%TO.N,VSI11*%
X120440000Y-143150000D03*
%TO.N,SCL*%
X122980000Y-140610000D03*
%TO.N,SDA*%
X122980000Y-143150000D03*
%TD*%
D10*
%TO.N,Net-(IC5-Pad41)*%
%TO.C,J1*%
X147130000Y-95130000D03*
D11*
%TO.N,Net-(J1-Pad2)*%
X147130000Y-97670000D03*
%TD*%
D10*
%TO.N,Net-(IC5-Pad49)*%
%TO.C,J3*%
X144305000Y-91440000D03*
D11*
%TO.N,Net-(J3-Pad2)*%
X146845000Y-91440000D03*
%TD*%
D10*
%TO.N,Analog_in1*%
%TO.C,J9*%
X120180000Y-126700000D03*
D11*
%TO.N,Analog_in2*%
X120180000Y-129240000D03*
%TO.N,Analog_in3*%
X120180000Y-131780000D03*
%TO.N,Analog_in4*%
X120180000Y-134320000D03*
%TO.N,Analog_in5*%
X120180000Y-136860000D03*
%TD*%
D10*
%TO.N,Net-(J2-Pad1)*%
%TO.C,J2*%
X143380000Y-97705000D03*
D11*
%TO.N,Net-(IC5-Pad41)*%
X143380000Y-95165000D03*
%TD*%
D12*
%TO.N,unconnected-(B1-Pad1)*%
%TO.C,B1*%
X151465000Y-118800000D03*
%TO.N,unconnected-(B1-Pad2)*%
X154005000Y-118800000D03*
%TO.N,unconnected-(B1-Pad3)*%
X156545000Y-118800000D03*
%TO.N,FPGA_3v3*%
X159085000Y-118800000D03*
%TO.N,unconnected-(B1-Pad5)*%
X161625000Y-118800000D03*
%TO.N,ctrl_gnd*%
X164165000Y-118800000D03*
X166705000Y-118800000D03*
%TO.N,ctrl_15*%
X169245000Y-118800000D03*
%TO.N,unconnected-(B1-Pad10)*%
X161625000Y-116260000D03*
%TO.N,unconnected-(B1-Pad11)*%
X164165000Y-116260000D03*
%TO.N,unconnected-(B1-Pad12)*%
X166705000Y-116260000D03*
%TO.N,unconnected-(B1-Pad13)*%
X169245000Y-116260000D03*
%TO.N,dc_ready*%
X174325000Y-118800000D03*
%TO.N,dc_fault*%
X176865000Y-118800000D03*
%TO.N,OCD_leakage*%
X179405000Y-118800000D03*
%TO.N,unconnected-(B1-Pad17)*%
X181945000Y-118800000D03*
%TO.N,unconnected-(B1-Pad18)*%
X184485000Y-118800000D03*
%TO.N,unconnected-(B1-Pad19)*%
X187025000Y-118800000D03*
%TO.N,unconnected-(B1-Pad20)*%
X174325000Y-116260000D03*
%TO.N,unconnected-(B1-Pad21)*%
X176865000Y-116260000D03*
%TO.N,unconnected-(B1-Pad22)*%
X179405000Y-116260000D03*
%TO.N,unconnected-(B1-Pad23)*%
X181945000Y-116260000D03*
%TO.N,unconnected-(B1-Pad24)*%
X184485000Y-116260000D03*
%TO.N,unconnected-(B1-Pad25)*%
X187025000Y-116260000D03*
%TO.N,batt_ready*%
X147435000Y-73060000D03*
%TO.N,batt_fault*%
X149975000Y-73060000D03*
%TO.N,DAB2_PWM22*%
X152515000Y-73060000D03*
%TO.N,DAB2_PWM21*%
X155055000Y-73060000D03*
%TO.N,DAB2_PWM12*%
X157595000Y-73060000D03*
%TO.N,DAB2_PWM11*%
X160135000Y-73060000D03*
%TO.N,DAB1PWM22*%
X162675000Y-73060000D03*
%TO.N,DAB1PWM21*%
X165215000Y-73060000D03*
%TO.N,DAB1PWM12*%
X169245000Y-73060000D03*
%TO.N,DAB1PWM11*%
X171785000Y-73060000D03*
%TO.N,VSI32*%
X174325000Y-73060000D03*
%TO.N,VSI31*%
X176865000Y-73060000D03*
%TO.N,VSI22*%
X179405000Y-73060000D03*
%TO.N,VSI21*%
X181945000Y-73060000D03*
%TO.N,VSI12*%
X184485000Y-73060000D03*
%TO.N,VSI11*%
X187025000Y-73080000D03*
%TO.N,SCL*%
X142355000Y-70520000D03*
%TO.N,SDA*%
X144895000Y-70520000D03*
%TO.N,unconnected-(B1-Pad44)*%
X147435000Y-70520000D03*
%TO.N,unconnected-(B1-Pad45)*%
X149975000Y-70520000D03*
%TO.N,vsi_ready*%
X152515000Y-70520000D03*
%TO.N,vsi_fault*%
X155055000Y-70520000D03*
%TO.N,OCD_grid3*%
X157595000Y-70520000D03*
%TO.N,OCD_grd2*%
X160135000Y-70520000D03*
%TO.N,OCD_grid1*%
X162675000Y-70520000D03*
%TO.N,/controller_sheet/en_dab*%
X165215000Y-70520000D03*
%TO.N,/controller_sheet/en_vsi*%
X169245000Y-70520000D03*
%TO.N,/controller_sheet/pwm_dabb2*%
X171785000Y-70520000D03*
%TO.N,/controller_sheet/pwm_daba2*%
X174325000Y-70520000D03*
%TO.N,/controller_sheet/pwmVSI3*%
X176865000Y-70520000D03*
%TO.N,/controller_sheet/pwmVSI2*%
X179405000Y-70520000D03*
%TO.N,/controller_sheet/pwmVSI1*%
X181945000Y-70520000D03*
%TO.N,/controller_sheet/pwm_dabb1*%
X184485000Y-70520000D03*
%TO.N,/controller_sheet/pwm_daba1*%
X187025000Y-70540000D03*
%TO.N,unconnected-(B1-Pad60)*%
X99275000Y-62580000D03*
%TO.N,unconnected-(B1-Pad61)*%
X101815000Y-62580000D03*
%TO.N,unconnected-(B1-Pad62)*%
X104355000Y-62580000D03*
%TO.N,unconnected-(B1-Pad63)*%
X106895000Y-62580000D03*
%TO.N,unconnected-(B1-Pad64)*%
X109435000Y-62580000D03*
%TO.N,unconnected-(B1-Pad65)*%
X111975000Y-62580000D03*
%TO.N,unconnected-(B1-Pad66)*%
X99275000Y-60040000D03*
%TO.N,unconnected-(B1-Pad67)*%
X101815000Y-60040000D03*
%TO.N,unconnected-(B1-Pad68)*%
X104355000Y-60040000D03*
%TO.N,unconnected-(B1-Pad69)*%
X106895000Y-60040000D03*
%TO.N,unconnected-(B1-Pad70)*%
X109435000Y-60040000D03*
%TO.N,unconnected-(B1-Pad71)*%
X111975000Y-60040000D03*
%TO.N,unconnected-(B1-Pad72)*%
X122075000Y-62580000D03*
%TO.N,unconnected-(B1-Pad73)*%
X124615000Y-62580000D03*
%TO.N,unconnected-(B1-Pad74)*%
X127155000Y-62580000D03*
%TO.N,unconnected-(B1-Pad75)*%
X129695000Y-62580000D03*
%TO.N,unconnected-(B1-Pad76)*%
X132235000Y-62580000D03*
%TO.N,unconnected-(B1-Pad77)*%
X134775000Y-62580000D03*
%TO.N,unconnected-(B1-Pad78)*%
X122075000Y-60040000D03*
%TO.N,unconnected-(B1-Pad79)*%
X124615000Y-60040000D03*
%TO.N,unconnected-(B1-Pad80)*%
X127155000Y-60040000D03*
%TO.N,unconnected-(B1-Pad81)*%
X129695000Y-60040000D03*
%TO.N,unconnected-(B1-Pad82)*%
X132235000Y-60040000D03*
%TO.N,unconnected-(B1-Pad83)*%
X134775000Y-60040000D03*
%TO.N,unconnected-(B1-Pad84)*%
X144875000Y-62580000D03*
%TO.N,unconnected-(B1-Pad85)*%
X147415000Y-62580000D03*
%TO.N,unconnected-(B1-Pad86)*%
X149955000Y-62580000D03*
%TO.N,unconnected-(B1-Pad87)*%
X152495000Y-62580000D03*
%TO.N,unconnected-(B1-Pad88)*%
X155035000Y-62580000D03*
%TO.N,unconnected-(B1-Pad89)*%
X157575000Y-62580000D03*
%TO.N,unconnected-(B1-Pad90)*%
X144875000Y-60040000D03*
%TO.N,unconnected-(B1-Pad91)*%
X147415000Y-60040000D03*
%TO.N,unconnected-(B1-Pad92)*%
X149955000Y-60040000D03*
%TO.N,unconnected-(B1-Pad93)*%
X152495000Y-60040000D03*
%TO.N,unconnected-(B1-Pad94)*%
X155035000Y-60040000D03*
%TO.N,unconnected-(B1-Pad95)*%
X157575000Y-60040000D03*
%TO.N,unconnected-(B1-Pad96)*%
X167675000Y-62580000D03*
%TO.N,unconnected-(B1-Pad97)*%
X170215000Y-62580000D03*
%TO.N,unconnected-(B1-Pad98)*%
X172755000Y-62580000D03*
%TO.N,unconnected-(B1-Pad99)*%
X175295000Y-62580000D03*
%TO.N,unconnected-(B1-Pad100)*%
X177835000Y-62580000D03*
%TO.N,unconnected-(B1-Pad101)*%
X180375000Y-62580000D03*
%TO.N,unconnected-(B1-Pad102)*%
X167675000Y-60040000D03*
%TO.N,unconnected-(B1-Pad103)*%
X170215000Y-60040000D03*
%TO.N,unconnected-(B1-Pad104)*%
X172755000Y-60040000D03*
%TO.N,unconnected-(B1-Pad105)*%
X175295000Y-60040000D03*
%TO.N,unconnected-(B1-Pad106)*%
X177835000Y-60040000D03*
%TO.N,unconnected-(B1-Pad107)*%
X180375000Y-60040000D03*
%TD*%
D10*
%TO.N,V_dc_link*%
%TO.C,J8*%
X126905000Y-140670000D03*
D11*
%TO.N,curr_leakeage_i*%
X126905000Y-143210000D03*
%TD*%
D10*
%TO.N,Net-(J4-Pad1)*%
%TO.C,J4*%
X146855000Y-87690000D03*
D11*
%TO.N,Net-(IC5-Pad49)*%
X144315000Y-87690000D03*
%TD*%
D10*
%TO.N,Net-(J5-Pad1)*%
%TO.C,J6*%
X143350000Y-140600000D03*
D11*
%TO.N,ctrl_3v3*%
X143350000Y-143140000D03*
%TD*%
D10*
%TO.N,ctrl_15*%
%TO.C,J_power1*%
X134445000Y-143135000D03*
D11*
%TO.N,ctrl_-15*%
X134445000Y-140595000D03*
%TO.N,ctrl_3v3*%
X136985000Y-143135000D03*
%TO.N,ctrl_gnd*%
X136985000Y-140595000D03*
%TO.N,24_gnd*%
X139525000Y-143135000D03*
%TO.N,V_12*%
X139525000Y-140595000D03*
%TD*%
D10*
%TO.N,batt_v*%
%TO.C,J10*%
X130665000Y-140620000D03*
D11*
%TO.N,batt_curr_0*%
X130665000Y-143160000D03*
%TD*%
D13*
%TO.N,SDA*%
X141440000Y-111560000D03*
%TO.N,SCL*%
X140580000Y-111450000D03*
%TO.N,ctrl_gnd*%
X124710552Y-88335174D03*
X132117135Y-95010498D03*
X122830000Y-84840000D03*
D14*
X126460000Y-97550000D03*
D13*
X133790000Y-83740000D03*
D14*
X143410000Y-103520000D03*
X133310000Y-101858750D03*
D13*
X138390000Y-86100000D03*
D14*
%TO.N,ctrl_-15*%
X102480000Y-88480000D03*
X104170000Y-135130000D03*
%TO.N,ctrl_3v3*%
X147340000Y-103530000D03*
D13*
X130140000Y-103550000D03*
D14*
X126120000Y-128090000D03*
X123250000Y-96320000D03*
X117949268Y-95986904D03*
D13*
X133296250Y-103592500D03*
D14*
X126080000Y-108930000D03*
D13*
X125430000Y-99990000D03*
%TO.N,/controller_sheet/en_dab*%
X145720000Y-80950000D03*
%TO.N,Vgrid1*%
X104520000Y-107240000D03*
D14*
%TO.N,Vgrid3*%
X104250000Y-86900000D03*
D13*
%TO.N,Vgrid2*%
X117250000Y-86810000D03*
D14*
%TO.N,Igrid3*%
X104420000Y-78790000D03*
%TO.N,Igrid2*%
X116910000Y-78510000D03*
D13*
%TO.N,Igrid1*%
X104300000Y-102280000D03*
D14*
%TO.N,batt_curr_0*%
X119820000Y-115600000D03*
%TO.N,batt_v*%
X127310000Y-118960000D03*
X117480000Y-119110000D03*
D13*
%TO.N,curr_leakeage_i*%
X117030000Y-99020000D03*
D14*
%TO.N,V_dc_link*%
X116900000Y-107180000D03*
D13*
%TO.N,/controller_sheet/en_vsi*%
X146620000Y-81950000D03*
%TO.N,Net-(C3-Pad1)*%
X104432327Y-83820000D03*
X108308000Y-84030000D03*
%TO.N,Net-(C9-Pad1)*%
X113528000Y-81500000D03*
%TO.N,Net-(C10-Pad1)*%
X130670000Y-127160000D03*
%TO.N,Net-(C8-Pad1)*%
X131020000Y-124650000D03*
%TO.N,/controller_sheet/pwmVSI3*%
X138520000Y-84390000D03*
%TO.N,/controller_sheet/pwmVSI2*%
X137719502Y-81120000D03*
%TO.N,/controller_sheet/pwmVSI1*%
X136710000Y-81010000D03*
%TO.N,batt_curr_sense*%
X118720000Y-114430000D03*
X123720000Y-118600000D03*
%TO.N,/controller_sheet/pwm_daba1*%
X128190000Y-80730000D03*
%TO.N,Igrid3_sense*%
X124589875Y-90113884D03*
X115623169Y-89261014D03*
X108188000Y-78940000D03*
%TO.N,Igrid2_sense*%
X124535500Y-89120000D03*
X113068000Y-78850000D03*
X118130000Y-86340000D03*
%TO.N,Igrid1_sense*%
X118130000Y-91400000D03*
X127410000Y-91120000D03*
X108064500Y-99340000D03*
%TO.N,Net-(C13-Pad2)*%
X107480000Y-105730000D03*
%TO.N,Vgrid1_sense*%
X127640000Y-91650000D03*
X118140000Y-92510000D03*
X107954500Y-107000000D03*
%TO.N,Vgrid2_sense*%
X124390000Y-89610000D03*
X113488000Y-86650000D03*
X115530000Y-87470000D03*
%TO.N,Vgrid3_sense*%
X124725500Y-90620000D03*
X116130000Y-90010000D03*
X108238000Y-86480000D03*
%TO.N,I_leackage*%
X127360000Y-92150000D03*
X112900000Y-99360000D03*
X115442638Y-93662012D03*
%TO.N,Vdc_link*%
X113694500Y-107020000D03*
X122630000Y-92560000D03*
D14*
%TO.N,Net-(C19-Pad1)*%
X126420000Y-95440000D03*
D13*
%TO.N,/controller_sheet/pwm_daba2*%
X140990000Y-85150000D03*
%TO.N,/controller_sheet/pwm_dabb2*%
X136080000Y-94800000D03*
%TO.N,/controller_sheet/pwm_dabb1*%
X130210000Y-80690000D03*
%TO.N,VDD*%
X132700000Y-81680000D03*
X140450000Y-88109500D03*
X127357812Y-88368858D03*
X133245500Y-97100000D03*
%TO.N,VDDA*%
X130800000Y-98340000D03*
X130820000Y-102602500D03*
X129927439Y-94535082D03*
%TO.N,VDDIO*%
X127780000Y-87600000D03*
X132030000Y-102582500D03*
X132200000Y-83680000D03*
X133719502Y-95519500D03*
X138330000Y-88950000D03*
X124670500Y-86790000D03*
%TO.N,SCITX*%
X136250000Y-98494500D03*
X131704500Y-89980000D03*
%TO.N,SCiRX*%
X134710000Y-98030000D03*
X133570000Y-92580000D03*
%TO.N,TDO*%
X138080000Y-91660000D03*
X139720000Y-95390000D03*
%TO.N,TMS*%
X151760000Y-137700000D03*
%TO.N,Net-(J5-Pad1)*%
X148720000Y-137680000D03*
%TO.N,Net-(C23-Pad1)*%
X136240000Y-124660000D03*
%TO.N,SCL*%
X140790000Y-92480000D03*
%TO.N,SDA*%
X140770000Y-93080000D03*
%TO.N,dc_ready*%
X135524500Y-99220000D03*
%TO.N,dc_fault*%
X136260000Y-97590000D03*
%TO.N,OCD_leakage*%
X136730000Y-97290000D03*
%TO.N,vsi_ready*%
X131230000Y-85580000D03*
%TO.N,vsi_fault*%
X130745500Y-81320000D03*
%TO.N,OCD_grid3*%
X129720498Y-81320000D03*
%TO.N,Net-(C4-Pad1)*%
X128780000Y-116110000D03*
%TO.N,offset_v*%
X109622500Y-99477500D03*
X122790000Y-101850000D03*
D14*
X125082500Y-115987500D03*
D13*
X116750000Y-95040000D03*
X111420000Y-83930000D03*
D14*
X124170000Y-103750000D03*
D13*
%TO.N,OCD_grid1*%
X128720498Y-81210000D03*
%TO.N,OCD_grd2*%
X129220000Y-80720000D03*
%TO.N,batt_fault*%
X137110500Y-93480500D03*
%TO.N,batt_ready*%
X137650000Y-94490000D03*
%TO.N,ADC5*%
X136022038Y-122114152D03*
X132350000Y-97750000D03*
%TO.N,ADC4*%
X130950000Y-128410000D03*
X131789023Y-97654000D03*
%TO.N,ADC3*%
X131370000Y-122080000D03*
X131294500Y-97940000D03*
%TO.N,Analog_in1*%
X124608000Y-110610000D03*
%TO.N,Analog_in2*%
X126695500Y-110750000D03*
D14*
%TO.N,Analog_in3*%
X132810000Y-120710000D03*
%TO.N,Analog_in4*%
X127530000Y-129940000D03*
%TO.N,Analog_in5*%
X135000000Y-120710000D03*
D13*
%TO.N,Net-(C28-Pad2)*%
X123210000Y-117270000D03*
%TO.N,Net-(C1-Pad1)*%
X108218000Y-81530000D03*
%TO.N,Net-(C2-Pad1)*%
X123110000Y-115990000D03*
%TO.N,Net-(C5-Pad1)*%
X107440000Y-104430000D03*
%TO.N,Net-(C6-Pad1)*%
X107670000Y-101920000D03*
%TO.N,Net-(C7-Pad1)*%
X113598000Y-84000000D03*
%TO.N,Net-(C11-Pad2)*%
X107998000Y-85250000D03*
%TO.N,Net-(C12-Pad2)*%
X108278000Y-80210000D03*
%TO.N,Net-(C14-Pad2)*%
X107590000Y-100720000D03*
%TO.N,Net-(C15-Pad1)*%
X113258000Y-85200000D03*
%TO.N,Net-(C20-Pad1)*%
X113220000Y-105610000D03*
%TO.N,Net-(C21-Pad2)*%
X113748000Y-80140000D03*
%TO.N,Net-(C22-Pad2)*%
X113240000Y-100700000D03*
%TO.N,Net-(C24-Pad1)*%
X113250000Y-104400000D03*
%TO.N,Net-(C25-Pad1)*%
X113250000Y-101970000D03*
D14*
%TO.N,Net-(C26-Pad1)*%
X122854375Y-113515625D03*
D13*
%TO.N,Net-(C30-Pad1)*%
X128600000Y-113510000D03*
%TD*%
D15*
%TO.N,ADC3*%
X131360000Y-103842536D02*
X131360000Y-122070000D01*
X130325000Y-102807536D02*
X131360000Y-103842536D01*
X130325000Y-99615000D02*
X130325000Y-102807536D01*
X131300000Y-98640000D02*
X130325000Y-99615000D01*
X131300000Y-97945500D02*
X131300000Y-98640000D01*
X131294500Y-97940000D02*
X131300000Y-97945500D01*
%TO.N,SDA*%
X141440000Y-122786396D02*
X141440000Y-111560000D01*
X125730000Y-138496396D02*
X141440000Y-122786396D01*
X125730000Y-140400000D02*
X125730000Y-138496396D01*
X122980000Y-143150000D02*
X125730000Y-140400000D01*
%TO.N,SCL*%
X134847756Y-123988470D02*
X139710000Y-119126226D01*
X139710000Y-112320000D02*
X140580000Y-111450000D01*
X134847756Y-128742244D02*
X134847756Y-123988470D01*
X139710000Y-119126226D02*
X139710000Y-112320000D01*
X122980000Y-140610000D02*
X134847756Y-128742244D01*
%TO.N,Vgrid1*%
X105680000Y-107300000D02*
X104580000Y-107300000D01*
X104580000Y-107300000D02*
X104520000Y-107240000D01*
X106474278Y-108094278D02*
X105680000Y-107300000D01*
X105200000Y-143150000D02*
X106474278Y-141875722D01*
X106474278Y-141875722D02*
X106474278Y-108094278D01*
%TO.N,Vgrid3*%
X101295000Y-141975000D02*
X101295000Y-88639695D01*
X100120000Y-143150000D02*
X101295000Y-141975000D01*
X103034695Y-86900000D02*
X104250000Y-86900000D01*
X101295000Y-88639695D02*
X103034695Y-86900000D01*
%TO.N,Vgrid2*%
X108032964Y-85985000D02*
X116385000Y-85985000D01*
X103300000Y-132700000D02*
X103110000Y-132510000D01*
X103110000Y-132510000D02*
X103110000Y-90907964D01*
X103934278Y-136391027D02*
X103300000Y-135756749D01*
X103934278Y-141875722D02*
X103934278Y-136391027D01*
X103110000Y-90907964D02*
X108032964Y-85985000D01*
X116385000Y-85985000D02*
X117190000Y-86790000D01*
X103300000Y-135756749D02*
X103300000Y-132700000D01*
X102660000Y-143150000D02*
X103934278Y-141875722D01*
%TO.N,Igrid3*%
X100120000Y-140610000D02*
X100120000Y-83090000D01*
X100120000Y-83090000D02*
X104420000Y-78790000D01*
%TO.N,Igrid2*%
X116755000Y-78355000D02*
X116910000Y-78510000D01*
X102660000Y-140610000D02*
X102660000Y-89887964D01*
X107660000Y-84887964D02*
X107660000Y-83557964D01*
X112862964Y-78355000D02*
X116755000Y-78355000D01*
X102660000Y-89887964D02*
X107660000Y-84887964D01*
X107660000Y-83557964D02*
X112862964Y-78355000D01*
%TO.N,Igrid1*%
X103630000Y-102950000D02*
X104300000Y-102280000D01*
X105200000Y-140610000D02*
X104895000Y-140305000D01*
X103630000Y-132393604D02*
X103630000Y-102950000D01*
X104895000Y-140305000D02*
X104895000Y-133658604D01*
X104895000Y-133658604D02*
X103630000Y-132393604D01*
%TO.N,batt_curr_sense*%
X122715000Y-117595000D02*
X122715000Y-116795000D01*
X122715000Y-116795000D02*
X120329500Y-114409500D01*
X120329500Y-114409500D02*
X118720000Y-114409500D01*
X123720000Y-118600000D02*
X122715000Y-117595000D01*
%TO.N,Vgrid3_sense*%
X111658000Y-89900000D02*
X116020000Y-89900000D01*
X108238000Y-86480000D02*
X111658000Y-89900000D01*
X116020000Y-89900000D02*
X116130000Y-90010000D01*
%TO.N,Vdc_link*%
X113745000Y-106969500D02*
X113694500Y-107020000D01*
%TO.N,dc_ready*%
X135524500Y-104521201D02*
X150978299Y-119975000D01*
X135524500Y-99220000D02*
X135524500Y-104521201D01*
X150978299Y-119975000D02*
X173150000Y-119975000D01*
X173150000Y-119975000D02*
X174325000Y-118800000D01*
%TO.N,dc_fault*%
X176865000Y-118800000D02*
X175690000Y-117625000D01*
X155805000Y-117625000D02*
X136745000Y-98565000D01*
X136745000Y-98565000D02*
X136745000Y-98075000D01*
X136745000Y-98075000D02*
X136260000Y-97590000D01*
X175690000Y-117625000D02*
X155805000Y-117625000D01*
%TO.N,OCD_leakage*%
X136730000Y-97290000D02*
X142685000Y-103245000D01*
X153904999Y-115085000D02*
X177351701Y-115085000D01*
X142685000Y-103865000D02*
X153904999Y-115085000D01*
X178040000Y-117435000D02*
X179405000Y-118800000D01*
X142685000Y-103245000D02*
X142685000Y-103865000D01*
X178040000Y-115773299D02*
X178040000Y-117435000D01*
X177351701Y-115085000D02*
X178040000Y-115773299D01*
%TO.N,vsi_ready*%
X130225498Y-95544464D02*
X130515462Y-95254500D01*
X131209500Y-89774964D02*
X131230000Y-89754464D01*
X130925534Y-95254500D02*
X131230000Y-94950034D01*
X130225498Y-95954536D02*
X130225498Y-95544464D01*
X131230000Y-90205536D02*
X131209500Y-90185036D01*
X131209500Y-90185036D02*
X131209500Y-89774964D01*
X112820000Y-140610000D02*
X112820000Y-113360034D01*
X130515462Y-95254500D02*
X130925534Y-95254500D01*
X112820000Y-113360034D02*
X130225498Y-95954536D01*
X131230000Y-89754464D02*
X131230000Y-85580000D01*
X131230000Y-94950034D02*
X131230000Y-90205536D01*
X112820000Y-113360034D02*
X112905017Y-113275017D01*
%TO.N,vsi_fault*%
X124935000Y-100608638D02*
X111645000Y-113898638D01*
X111645000Y-113898638D02*
X111645000Y-141975000D01*
X130745500Y-81320000D02*
X130720000Y-81345500D01*
X124935000Y-99784964D02*
X124935000Y-100608638D01*
X125841837Y-99291729D02*
X125428235Y-99291729D01*
X111645000Y-141975000D02*
X112820000Y-143150000D01*
X130720000Y-81345500D02*
X130720000Y-94413566D01*
X125428235Y-99291729D02*
X124935000Y-99784964D01*
X130720000Y-94413566D02*
X125841837Y-99291729D01*
%TO.N,OCD_grid3*%
X118110000Y-104570000D02*
X110280000Y-112400000D01*
X129715498Y-93169807D02*
X118315305Y-104570000D01*
X129715498Y-81325000D02*
X129715498Y-93169807D01*
X129720498Y-81320000D02*
X129715498Y-81325000D01*
X110280000Y-112400000D02*
X110280000Y-140610000D01*
X118315305Y-104570000D02*
X118110000Y-104570000D01*
%TO.N,offset_v*%
X116519964Y-95040000D02*
X112069964Y-99490000D01*
X112069964Y-99490000D02*
X109660000Y-99490000D01*
%TO.N,OCD_grid1*%
X107740000Y-140610000D02*
X107740000Y-109209964D01*
X125145000Y-87815036D02*
X125145000Y-84785498D01*
X125200000Y-91749964D02*
X125200000Y-87870036D01*
X107740000Y-109209964D02*
X125200000Y-91749964D01*
X125200000Y-87870036D02*
X125145000Y-87815036D01*
X125145000Y-84785498D02*
X128720498Y-81210000D01*
%TO.N,OCD_grd2*%
X125695000Y-94595000D02*
X125695000Y-95775000D01*
X129215498Y-91074502D02*
X125695000Y-94595000D01*
X109014278Y-112455722D02*
X109014278Y-141875722D01*
X125695000Y-95775000D02*
X109014278Y-112455722D01*
X129220000Y-80720000D02*
X129215498Y-80724502D01*
X129215498Y-80724502D02*
X129215498Y-91074502D01*
X109014278Y-141875722D02*
X107740000Y-143150000D01*
%TO.N,ADC5*%
X134350000Y-121050000D02*
X132525000Y-119225000D01*
X136022038Y-122114152D02*
X135034152Y-122114152D01*
X132525000Y-119225000D02*
X132525000Y-97925000D01*
X132525000Y-97925000D02*
X132350000Y-97750000D01*
X135034152Y-122114152D02*
X134350000Y-121430000D01*
X134350000Y-121430000D02*
X134350000Y-121050000D01*
%TO.N,ADC4*%
X131990000Y-103242536D02*
X131990000Y-127370000D01*
X131535000Y-102787536D02*
X131990000Y-103242536D01*
X131990000Y-127370000D02*
X130950000Y-128410000D01*
X131790000Y-102122464D02*
X131535000Y-102377464D01*
X131789023Y-97654000D02*
X131790000Y-97654977D01*
X131535000Y-102377464D02*
X131535000Y-102787536D01*
X131790000Y-97654977D02*
X131790000Y-102122464D01*
%TO.N,Analog_in1*%
X124215000Y-122665000D02*
X124215000Y-111003000D01*
X124215000Y-111003000D02*
X124608000Y-110610000D01*
X120180000Y-126700000D02*
X124215000Y-122665000D01*
%TO.N,Analog_in2*%
X126695500Y-110750000D02*
X126554500Y-110891000D01*
X126554500Y-122865500D02*
X120180000Y-129240000D01*
X126554500Y-110891000D02*
X126554500Y-122865500D01*
%TD*%
M02*
