%TF.GenerationSoftware,KiCad,Pcbnew,(6.0.7)*%
%TF.CreationDate,2023-04-08T09:09:30+05:30*%
%TF.ProjectId,aux_PS,6175785f-5053-42e6-9b69-6361645f7063,rev?*%
%TF.SameCoordinates,Original*%
%TF.FileFunction,Drillmap*%
%TF.FilePolarity,Positive*%
%FSLAX45Y45*%
G04 Gerber Fmt 4.5, Leading zero omitted, Abs format (unit mm)*
G04 Created by KiCad (PCBNEW (6.0.7)) date 2023-04-08 09:09:30*
%MOMM*%
%LPD*%
G01*
G04 APERTURE LIST*
%ADD10C,0.100000*%
%ADD11C,0.200000*%
%ADD12C,0.320000*%
G04 APERTURE END LIST*
D10*
X5193000Y-4083000D02*
X16062000Y-4083000D01*
X16062000Y-4083000D02*
X16062000Y-10913000D01*
X16062000Y-10913000D02*
X5193000Y-10913000D01*
X5193000Y-10913000D02*
X5193000Y-4083000D01*
D11*
D12*
X5540000Y-4340000D02*
X5860000Y-4660000D01*
X5860000Y-4340000D02*
X5540000Y-4660000D01*
X5540000Y-10340000D02*
X5860000Y-10660000D01*
X5860000Y-10340000D02*
X5540000Y-10660000D01*
X15340000Y-4340000D02*
X15660000Y-4660000D01*
X15660000Y-4340000D02*
X15340000Y-4660000D01*
X15340000Y-10340000D02*
X15660000Y-10660000D01*
X15660000Y-10340000D02*
X15340000Y-10660000D01*
D11*
X5445619Y-11228476D02*
X5445619Y-11028476D01*
X5493238Y-11028476D01*
X5521810Y-11038000D01*
X5540857Y-11057048D01*
X5550381Y-11076095D01*
X5559905Y-11114190D01*
X5559905Y-11142762D01*
X5550381Y-11180857D01*
X5540857Y-11199905D01*
X5521810Y-11218952D01*
X5493238Y-11228476D01*
X5445619Y-11228476D01*
X5645619Y-11228476D02*
X5645619Y-11095143D01*
X5645619Y-11133238D02*
X5655143Y-11114190D01*
X5664667Y-11104667D01*
X5683714Y-11095143D01*
X5702762Y-11095143D01*
X5769428Y-11228476D02*
X5769428Y-11095143D01*
X5769428Y-11028476D02*
X5759905Y-11038000D01*
X5769428Y-11047524D01*
X5778952Y-11038000D01*
X5769428Y-11028476D01*
X5769428Y-11047524D01*
X5893238Y-11228476D02*
X5874190Y-11218952D01*
X5864667Y-11199905D01*
X5864667Y-11028476D01*
X5998000Y-11228476D02*
X5978952Y-11218952D01*
X5969428Y-11199905D01*
X5969428Y-11028476D01*
X6226571Y-11228476D02*
X6226571Y-11028476D01*
X6293238Y-11171333D01*
X6359905Y-11028476D01*
X6359905Y-11228476D01*
X6540857Y-11228476D02*
X6540857Y-11123714D01*
X6531333Y-11104667D01*
X6512286Y-11095143D01*
X6474190Y-11095143D01*
X6455143Y-11104667D01*
X6540857Y-11218952D02*
X6521809Y-11228476D01*
X6474190Y-11228476D01*
X6455143Y-11218952D01*
X6445619Y-11199905D01*
X6445619Y-11180857D01*
X6455143Y-11161810D01*
X6474190Y-11152286D01*
X6521809Y-11152286D01*
X6540857Y-11142762D01*
X6636095Y-11095143D02*
X6636095Y-11295143D01*
X6636095Y-11104667D02*
X6655143Y-11095143D01*
X6693238Y-11095143D01*
X6712286Y-11104667D01*
X6721809Y-11114190D01*
X6731333Y-11133238D01*
X6731333Y-11190381D01*
X6721809Y-11209428D01*
X6712286Y-11218952D01*
X6693238Y-11228476D01*
X6655143Y-11228476D01*
X6636095Y-11218952D01*
X6817048Y-11209428D02*
X6826571Y-11218952D01*
X6817048Y-11228476D01*
X6807524Y-11218952D01*
X6817048Y-11209428D01*
X6817048Y-11228476D01*
X6817048Y-11104667D02*
X6826571Y-11114190D01*
X6817048Y-11123714D01*
X6807524Y-11114190D01*
X6817048Y-11104667D01*
X6817048Y-11123714D01*
X4988000Y-11458000D02*
X5188000Y-11658000D01*
X5188000Y-11458000D02*
X4988000Y-11658000D01*
X5426571Y-11448476D02*
X5550381Y-11448476D01*
X5483714Y-11524667D01*
X5512286Y-11524667D01*
X5531333Y-11534190D01*
X5540857Y-11543714D01*
X5550381Y-11562762D01*
X5550381Y-11610381D01*
X5540857Y-11629428D01*
X5531333Y-11638952D01*
X5512286Y-11648476D01*
X5455143Y-11648476D01*
X5436095Y-11638952D01*
X5426571Y-11629428D01*
X5636095Y-11629428D02*
X5645619Y-11638952D01*
X5636095Y-11648476D01*
X5626571Y-11638952D01*
X5636095Y-11629428D01*
X5636095Y-11648476D01*
X5721809Y-11467524D02*
X5731333Y-11458000D01*
X5750381Y-11448476D01*
X5798000Y-11448476D01*
X5817048Y-11458000D01*
X5826571Y-11467524D01*
X5836095Y-11486571D01*
X5836095Y-11505619D01*
X5826571Y-11534190D01*
X5712286Y-11648476D01*
X5836095Y-11648476D01*
X5959905Y-11448476D02*
X5978952Y-11448476D01*
X5998000Y-11458000D01*
X6007524Y-11467524D01*
X6017048Y-11486571D01*
X6026571Y-11524667D01*
X6026571Y-11572286D01*
X6017048Y-11610381D01*
X6007524Y-11629428D01*
X5998000Y-11638952D01*
X5978952Y-11648476D01*
X5959905Y-11648476D01*
X5940857Y-11638952D01*
X5931333Y-11629428D01*
X5921809Y-11610381D01*
X5912286Y-11572286D01*
X5912286Y-11524667D01*
X5921809Y-11486571D01*
X5931333Y-11467524D01*
X5940857Y-11458000D01*
X5959905Y-11448476D01*
X6150381Y-11448476D02*
X6169428Y-11448476D01*
X6188476Y-11458000D01*
X6198000Y-11467524D01*
X6207524Y-11486571D01*
X6217048Y-11524667D01*
X6217048Y-11572286D01*
X6207524Y-11610381D01*
X6198000Y-11629428D01*
X6188476Y-11638952D01*
X6169428Y-11648476D01*
X6150381Y-11648476D01*
X6131333Y-11638952D01*
X6121809Y-11629428D01*
X6112286Y-11610381D01*
X6102762Y-11572286D01*
X6102762Y-11524667D01*
X6112286Y-11486571D01*
X6121809Y-11467524D01*
X6131333Y-11458000D01*
X6150381Y-11448476D01*
X6302762Y-11648476D02*
X6302762Y-11515143D01*
X6302762Y-11534190D02*
X6312286Y-11524667D01*
X6331333Y-11515143D01*
X6359905Y-11515143D01*
X6378952Y-11524667D01*
X6388476Y-11543714D01*
X6388476Y-11648476D01*
X6388476Y-11543714D02*
X6398000Y-11524667D01*
X6417048Y-11515143D01*
X6445619Y-11515143D01*
X6464667Y-11524667D01*
X6474190Y-11543714D01*
X6474190Y-11648476D01*
X6569428Y-11648476D02*
X6569428Y-11515143D01*
X6569428Y-11534190D02*
X6578952Y-11524667D01*
X6598000Y-11515143D01*
X6626571Y-11515143D01*
X6645619Y-11524667D01*
X6655143Y-11543714D01*
X6655143Y-11648476D01*
X6655143Y-11543714D02*
X6664667Y-11524667D01*
X6683714Y-11515143D01*
X6712286Y-11515143D01*
X6731333Y-11524667D01*
X6740857Y-11543714D01*
X6740857Y-11648476D01*
X7131333Y-11438952D02*
X6959905Y-11696095D01*
X7388476Y-11448476D02*
X7407524Y-11448476D01*
X7426571Y-11458000D01*
X7436095Y-11467524D01*
X7445619Y-11486571D01*
X7455143Y-11524667D01*
X7455143Y-11572286D01*
X7445619Y-11610381D01*
X7436095Y-11629428D01*
X7426571Y-11638952D01*
X7407524Y-11648476D01*
X7388476Y-11648476D01*
X7369428Y-11638952D01*
X7359905Y-11629428D01*
X7350381Y-11610381D01*
X7340857Y-11572286D01*
X7340857Y-11524667D01*
X7350381Y-11486571D01*
X7359905Y-11467524D01*
X7369428Y-11458000D01*
X7388476Y-11448476D01*
X7540857Y-11629428D02*
X7550381Y-11638952D01*
X7540857Y-11648476D01*
X7531333Y-11638952D01*
X7540857Y-11629428D01*
X7540857Y-11648476D01*
X7740857Y-11648476D02*
X7626571Y-11648476D01*
X7683714Y-11648476D02*
X7683714Y-11448476D01*
X7664667Y-11477048D01*
X7645619Y-11496095D01*
X7626571Y-11505619D01*
X7817048Y-11467524D02*
X7826571Y-11458000D01*
X7845619Y-11448476D01*
X7893238Y-11448476D01*
X7912286Y-11458000D01*
X7921809Y-11467524D01*
X7931333Y-11486571D01*
X7931333Y-11505619D01*
X7921809Y-11534190D01*
X7807524Y-11648476D01*
X7931333Y-11648476D01*
X8102762Y-11448476D02*
X8064667Y-11448476D01*
X8045619Y-11458000D01*
X8036095Y-11467524D01*
X8017048Y-11496095D01*
X8007524Y-11534190D01*
X8007524Y-11610381D01*
X8017048Y-11629428D01*
X8026571Y-11638952D01*
X8045619Y-11648476D01*
X8083714Y-11648476D01*
X8102762Y-11638952D01*
X8112286Y-11629428D01*
X8121809Y-11610381D01*
X8121809Y-11562762D01*
X8112286Y-11543714D01*
X8102762Y-11534190D01*
X8083714Y-11524667D01*
X8045619Y-11524667D01*
X8026571Y-11534190D01*
X8017048Y-11543714D01*
X8007524Y-11562762D01*
X8245619Y-11448476D02*
X8264667Y-11448476D01*
X8283714Y-11458000D01*
X8293238Y-11467524D01*
X8302762Y-11486571D01*
X8312286Y-11524667D01*
X8312286Y-11572286D01*
X8302762Y-11610381D01*
X8293238Y-11629428D01*
X8283714Y-11638952D01*
X8264667Y-11648476D01*
X8245619Y-11648476D01*
X8226571Y-11638952D01*
X8217048Y-11629428D01*
X8207524Y-11610381D01*
X8198000Y-11572286D01*
X8198000Y-11524667D01*
X8207524Y-11486571D01*
X8217048Y-11467524D01*
X8226571Y-11458000D01*
X8245619Y-11448476D01*
X8388476Y-11448476D02*
X8388476Y-11486571D01*
X8464667Y-11448476D02*
X8464667Y-11486571D01*
X8759905Y-11724667D02*
X8750381Y-11715143D01*
X8731333Y-11686571D01*
X8721810Y-11667524D01*
X8712286Y-11638952D01*
X8702762Y-11591333D01*
X8702762Y-11553238D01*
X8712286Y-11505619D01*
X8721810Y-11477048D01*
X8731333Y-11458000D01*
X8750381Y-11429428D01*
X8759905Y-11419905D01*
X8921810Y-11515143D02*
X8921810Y-11648476D01*
X8874190Y-11438952D02*
X8826571Y-11581809D01*
X8950381Y-11581809D01*
X9178952Y-11648476D02*
X9178952Y-11448476D01*
X9264667Y-11648476D02*
X9264667Y-11543714D01*
X9255143Y-11524667D01*
X9236095Y-11515143D01*
X9207524Y-11515143D01*
X9188476Y-11524667D01*
X9178952Y-11534190D01*
X9388476Y-11648476D02*
X9369429Y-11638952D01*
X9359905Y-11629428D01*
X9350381Y-11610381D01*
X9350381Y-11553238D01*
X9359905Y-11534190D01*
X9369429Y-11524667D01*
X9388476Y-11515143D01*
X9417048Y-11515143D01*
X9436095Y-11524667D01*
X9445619Y-11534190D01*
X9455143Y-11553238D01*
X9455143Y-11610381D01*
X9445619Y-11629428D01*
X9436095Y-11638952D01*
X9417048Y-11648476D01*
X9388476Y-11648476D01*
X9569429Y-11648476D02*
X9550381Y-11638952D01*
X9540857Y-11619905D01*
X9540857Y-11448476D01*
X9721810Y-11638952D02*
X9702762Y-11648476D01*
X9664667Y-11648476D01*
X9645619Y-11638952D01*
X9636095Y-11619905D01*
X9636095Y-11543714D01*
X9645619Y-11524667D01*
X9664667Y-11515143D01*
X9702762Y-11515143D01*
X9721810Y-11524667D01*
X9731333Y-11543714D01*
X9731333Y-11562762D01*
X9636095Y-11581809D01*
X9807524Y-11638952D02*
X9826571Y-11648476D01*
X9864667Y-11648476D01*
X9883714Y-11638952D01*
X9893238Y-11619905D01*
X9893238Y-11610381D01*
X9883714Y-11591333D01*
X9864667Y-11581809D01*
X9836095Y-11581809D01*
X9817048Y-11572286D01*
X9807524Y-11553238D01*
X9807524Y-11543714D01*
X9817048Y-11524667D01*
X9836095Y-11515143D01*
X9864667Y-11515143D01*
X9883714Y-11524667D01*
X9959905Y-11724667D02*
X9969429Y-11715143D01*
X9988476Y-11686571D01*
X9998000Y-11667524D01*
X10007524Y-11638952D01*
X10017048Y-11591333D01*
X10017048Y-11553238D01*
X10007524Y-11505619D01*
X9998000Y-11477048D01*
X9988476Y-11458000D01*
X9969429Y-11429428D01*
X9959905Y-11419905D01*
X10321810Y-11724667D02*
X10312286Y-11715143D01*
X10293238Y-11686571D01*
X10283714Y-11667524D01*
X10274190Y-11638952D01*
X10264667Y-11591333D01*
X10264667Y-11553238D01*
X10274190Y-11505619D01*
X10283714Y-11477048D01*
X10293238Y-11458000D01*
X10312286Y-11429428D01*
X10321810Y-11419905D01*
X10398000Y-11515143D02*
X10398000Y-11648476D01*
X10398000Y-11534190D02*
X10407524Y-11524667D01*
X10426571Y-11515143D01*
X10455143Y-11515143D01*
X10474190Y-11524667D01*
X10483714Y-11543714D01*
X10483714Y-11648476D01*
X10607524Y-11648476D02*
X10588476Y-11638952D01*
X10578952Y-11629428D01*
X10569429Y-11610381D01*
X10569429Y-11553238D01*
X10578952Y-11534190D01*
X10588476Y-11524667D01*
X10607524Y-11515143D01*
X10636095Y-11515143D01*
X10655143Y-11524667D01*
X10664667Y-11534190D01*
X10674190Y-11553238D01*
X10674190Y-11610381D01*
X10664667Y-11629428D01*
X10655143Y-11638952D01*
X10636095Y-11648476D01*
X10607524Y-11648476D01*
X10731333Y-11515143D02*
X10807524Y-11515143D01*
X10759905Y-11448476D02*
X10759905Y-11619905D01*
X10769429Y-11638952D01*
X10788476Y-11648476D01*
X10807524Y-11648476D01*
X11026571Y-11515143D02*
X11026571Y-11715143D01*
X11026571Y-11524667D02*
X11045619Y-11515143D01*
X11083714Y-11515143D01*
X11102762Y-11524667D01*
X11112286Y-11534190D01*
X11121810Y-11553238D01*
X11121810Y-11610381D01*
X11112286Y-11629428D01*
X11102762Y-11638952D01*
X11083714Y-11648476D01*
X11045619Y-11648476D01*
X11026571Y-11638952D01*
X11236095Y-11648476D02*
X11217048Y-11638952D01*
X11207524Y-11619905D01*
X11207524Y-11448476D01*
X11398000Y-11648476D02*
X11398000Y-11543714D01*
X11388476Y-11524667D01*
X11369428Y-11515143D01*
X11331333Y-11515143D01*
X11312286Y-11524667D01*
X11398000Y-11638952D02*
X11378952Y-11648476D01*
X11331333Y-11648476D01*
X11312286Y-11638952D01*
X11302762Y-11619905D01*
X11302762Y-11600857D01*
X11312286Y-11581809D01*
X11331333Y-11572286D01*
X11378952Y-11572286D01*
X11398000Y-11562762D01*
X11464667Y-11515143D02*
X11540857Y-11515143D01*
X11493238Y-11448476D02*
X11493238Y-11619905D01*
X11502762Y-11638952D01*
X11521809Y-11648476D01*
X11540857Y-11648476D01*
X11683714Y-11638952D02*
X11664667Y-11648476D01*
X11626571Y-11648476D01*
X11607524Y-11638952D01*
X11598000Y-11619905D01*
X11598000Y-11543714D01*
X11607524Y-11524667D01*
X11626571Y-11515143D01*
X11664667Y-11515143D01*
X11683714Y-11524667D01*
X11693238Y-11543714D01*
X11693238Y-11562762D01*
X11598000Y-11581809D01*
X11864667Y-11648476D02*
X11864667Y-11448476D01*
X11864667Y-11638952D02*
X11845619Y-11648476D01*
X11807524Y-11648476D01*
X11788476Y-11638952D01*
X11778952Y-11629428D01*
X11769428Y-11610381D01*
X11769428Y-11553238D01*
X11778952Y-11534190D01*
X11788476Y-11524667D01*
X11807524Y-11515143D01*
X11845619Y-11515143D01*
X11864667Y-11524667D01*
X11940857Y-11724667D02*
X11950381Y-11715143D01*
X11969428Y-11686571D01*
X11978952Y-11667524D01*
X11988476Y-11638952D01*
X11998000Y-11591333D01*
X11998000Y-11553238D01*
X11988476Y-11505619D01*
X11978952Y-11477048D01*
X11969428Y-11458000D01*
X11950381Y-11429428D01*
X11940857Y-11419905D01*
M02*
