M48
; DRILL file {KiCad (6.0.7)} date Sat Apr  8 09:09:28 2023
; FORMAT={-:-/ absolute / metric / decimal}
; #@! TF.CreationDate,2023-04-08T09:09:28+05:30
; #@! TF.GenerationSoftware,Kicad,Pcbnew,(6.0.7)
; #@! TF.FileFunction,Plated,1,2,PTH
FMAT,2
METRIC
; #@! TA.AperFunction,Plated,PTH,ViaDrill
T1C0.400
; #@! TA.AperFunction,Plated,PTH,ComponentDrill
T2C0.750
; #@! TA.AperFunction,Plated,PTH,ComponentDrill
T3C1.000
; #@! TA.AperFunction,Plated,PTH,ComponentDrill
T4C1.100
; #@! TA.AperFunction,Plated,PTH,ComponentDrill
T5C1.500
; #@! TA.AperFunction,Plated,PTH,ViaDrill
T6C5.000
%
G90
G05
T1
X119.675Y-90.52
X129.1Y-56.75
T2
X133.835Y-55.8
X133.835Y-58.34
X133.835Y-78.66
X133.835Y-83.74
X149.075Y-55.8
X149.075Y-58.34
X149.075Y-78.66
X149.075Y-83.74
T3
X130.79Y-49.54
X133.33Y-49.54
X135.87Y-49.54
X143.1Y-91.495
X143.1Y-94.035
X143.1Y-96.575
X145.64Y-91.495
X145.64Y-94.035
X145.64Y-96.575
T4
X129.51Y-98.38
X132.05Y-98.38
X134.59Y-98.38
T5
X66.07Y-49.33
X66.07Y-69.65
X66.23Y-77.57
X66.23Y-97.89
X111.79Y-49.33
X111.79Y-59.49
X111.95Y-77.57
X111.95Y-87.73
T6
X56.72Y-53.3
X57.05Y-63.1
X57.1Y-83.85
X57.19Y-92.75
T0
M30
