%TF.GenerationSoftware,KiCad,Pcbnew,(6.0.7)*%
%TF.CreationDate,2023-04-08T09:09:21+05:30*%
%TF.ProjectId,aux_PS,6175785f-5053-42e6-9b69-6361645f7063,rev?*%
%TF.SameCoordinates,Original*%
%TF.FileFunction,Legend,Bot*%
%TF.FilePolarity,Positive*%
%FSLAX46Y46*%
G04 Gerber Fmt 4.6, Leading zero omitted, Abs format (unit mm)*
G04 Created by KiCad (PCBNEW (6.0.7)) date 2023-04-08 09:09:21*
%MOMM*%
%LPD*%
G01*
G04 APERTURE LIST*
%ADD10C,0.150000*%
%ADD11C,0.120000*%
G04 APERTURE END LIST*
D10*
%TO.C,R2*%
X128461666Y-87592380D02*
X128795000Y-87116190D01*
X129033095Y-87592380D02*
X129033095Y-86592380D01*
X128652142Y-86592380D01*
X128556904Y-86640000D01*
X128509285Y-86687619D01*
X128461666Y-86782857D01*
X128461666Y-86925714D01*
X128509285Y-87020952D01*
X128556904Y-87068571D01*
X128652142Y-87116190D01*
X129033095Y-87116190D01*
X128080714Y-86687619D02*
X128033095Y-86640000D01*
X127937857Y-86592380D01*
X127699761Y-86592380D01*
X127604523Y-86640000D01*
X127556904Y-86687619D01*
X127509285Y-86782857D01*
X127509285Y-86878095D01*
X127556904Y-87020952D01*
X128128333Y-87592380D01*
X127509285Y-87592380D01*
%TO.C,R1*%
X127671666Y-52692380D02*
X128005000Y-52216190D01*
X128243095Y-52692380D02*
X128243095Y-51692380D01*
X127862142Y-51692380D01*
X127766904Y-51740000D01*
X127719285Y-51787619D01*
X127671666Y-51882857D01*
X127671666Y-52025714D01*
X127719285Y-52120952D01*
X127766904Y-52168571D01*
X127862142Y-52216190D01*
X128243095Y-52216190D01*
X126719285Y-52692380D02*
X127290714Y-52692380D01*
X127005000Y-52692380D02*
X127005000Y-51692380D01*
X127100238Y-51835238D01*
X127195476Y-51930476D01*
X127290714Y-51978095D01*
%TO.C,D1*%
X121900595Y-92792380D02*
X121900595Y-91792380D01*
X121662500Y-91792380D01*
X121519642Y-91840000D01*
X121424404Y-91935238D01*
X121376785Y-92030476D01*
X121329166Y-92220952D01*
X121329166Y-92363809D01*
X121376785Y-92554285D01*
X121424404Y-92649523D01*
X121519642Y-92744761D01*
X121662500Y-92792380D01*
X121900595Y-92792380D01*
X120376785Y-92792380D02*
X120948214Y-92792380D01*
X120662500Y-92792380D02*
X120662500Y-91792380D01*
X120757738Y-91935238D01*
X120852976Y-92030476D01*
X120948214Y-92078095D01*
%TO.C,C3*%
X110137142Y-54033333D02*
X110184761Y-53985714D01*
X110232380Y-53842857D01*
X110232380Y-53747619D01*
X110184761Y-53604761D01*
X110089523Y-53509523D01*
X109994285Y-53461904D01*
X109803809Y-53414285D01*
X109660952Y-53414285D01*
X109470476Y-53461904D01*
X109375238Y-53509523D01*
X109280000Y-53604761D01*
X109232380Y-53747619D01*
X109232380Y-53842857D01*
X109280000Y-53985714D01*
X109327619Y-54033333D01*
X109232380Y-54366666D02*
X109232380Y-54985714D01*
X109613333Y-54652380D01*
X109613333Y-54795238D01*
X109660952Y-54890476D01*
X109708571Y-54938095D01*
X109803809Y-54985714D01*
X110041904Y-54985714D01*
X110137142Y-54938095D01*
X110184761Y-54890476D01*
X110232380Y-54795238D01*
X110232380Y-54509523D01*
X110184761Y-54414285D01*
X110137142Y-54366666D01*
%TO.C,D2*%
X121790595Y-62892380D02*
X121790595Y-61892380D01*
X121552500Y-61892380D01*
X121409642Y-61940000D01*
X121314404Y-62035238D01*
X121266785Y-62130476D01*
X121219166Y-62320952D01*
X121219166Y-62463809D01*
X121266785Y-62654285D01*
X121314404Y-62749523D01*
X121409642Y-62844761D01*
X121552500Y-62892380D01*
X121790595Y-62892380D01*
X120838214Y-61987619D02*
X120790595Y-61940000D01*
X120695357Y-61892380D01*
X120457261Y-61892380D01*
X120362023Y-61940000D01*
X120314404Y-61987619D01*
X120266785Y-62082857D01*
X120266785Y-62178095D01*
X120314404Y-62320952D01*
X120885833Y-62892380D01*
X120266785Y-62892380D01*
%TO.C,C5*%
X127581666Y-55287142D02*
X127629285Y-55334761D01*
X127772142Y-55382380D01*
X127867380Y-55382380D01*
X128010238Y-55334761D01*
X128105476Y-55239523D01*
X128153095Y-55144285D01*
X128200714Y-54953809D01*
X128200714Y-54810952D01*
X128153095Y-54620476D01*
X128105476Y-54525238D01*
X128010238Y-54430000D01*
X127867380Y-54382380D01*
X127772142Y-54382380D01*
X127629285Y-54430000D01*
X127581666Y-54477619D01*
X126676904Y-54382380D02*
X127153095Y-54382380D01*
X127200714Y-54858571D01*
X127153095Y-54810952D01*
X127057857Y-54763333D01*
X126819761Y-54763333D01*
X126724523Y-54810952D01*
X126676904Y-54858571D01*
X126629285Y-54953809D01*
X126629285Y-55191904D01*
X126676904Y-55287142D01*
X126724523Y-55334761D01*
X126819761Y-55382380D01*
X127057857Y-55382380D01*
X127153095Y-55334761D01*
X127200714Y-55287142D01*
%TO.C,C4*%
X110307142Y-82443333D02*
X110354761Y-82395714D01*
X110402380Y-82252857D01*
X110402380Y-82157619D01*
X110354761Y-82014761D01*
X110259523Y-81919523D01*
X110164285Y-81871904D01*
X109973809Y-81824285D01*
X109830952Y-81824285D01*
X109640476Y-81871904D01*
X109545238Y-81919523D01*
X109450000Y-82014761D01*
X109402380Y-82157619D01*
X109402380Y-82252857D01*
X109450000Y-82395714D01*
X109497619Y-82443333D01*
X109735714Y-83300476D02*
X110402380Y-83300476D01*
X109354761Y-83062380D02*
X110069047Y-82824285D01*
X110069047Y-83443333D01*
D11*
%TO.C,R2*%
X132342936Y-91090000D02*
X133797064Y-91090000D01*
X132342936Y-89270000D02*
X133797064Y-89270000D01*
%TO.C,R1*%
X128232064Y-54970000D02*
X126777936Y-54970000D01*
X128232064Y-53150000D02*
X126777936Y-53150000D01*
%TO.C,D1*%
X118702500Y-89385000D02*
X122762500Y-89385000D01*
X118702500Y-91655000D02*
X118702500Y-89385000D01*
X122762500Y-91655000D02*
X118702500Y-91655000D01*
%TO.C,C3*%
X112540000Y-53488748D02*
X112540000Y-54911252D01*
X110720000Y-53488748D02*
X110720000Y-54911252D01*
%TO.C,D2*%
X118592500Y-59485000D02*
X122652500Y-59485000D01*
X122652500Y-61755000D02*
X118592500Y-61755000D01*
X118592500Y-61755000D02*
X118592500Y-59485000D01*
%TO.C,C5*%
X128142064Y-55840000D02*
X126687936Y-55840000D01*
X128142064Y-57660000D02*
X126687936Y-57660000D01*
%TO.C,C4*%
X110890000Y-81898748D02*
X110890000Y-83321252D01*
X112710000Y-81898748D02*
X112710000Y-83321252D01*
%TD*%
M02*
